<?xml version="1.0" encoding="UTF-8" standalone="no"?>
<!-- Created with Inkscape (http://www.inkscape.org/) -->

<svg
   xmlns:dc="http://purl.org/dc/elements/1.1/"
   xmlns:cc="http://creativecommons.org/ns#"
   xmlns:rdf="http://www.w3.org/1999/02/22-rdf-syntax-ns#"
   xmlns:svg="http://www.w3.org/2000/svg"
   xmlns="http://www.w3.org/2000/svg"
   xmlns:sodipodi="http://sodipodi.sourceforge.net/DTD/sodipodi-0.dtd"
   xmlns:inkscape="http://www.inkscape.org/namespaces/inkscape"
   version="1.1"
   id="svg4485"
   width="673.36499"
   height="661.36499"
   viewBox="0 0 673.36499 661.36499"
   sodipodi:docname="AlephLogo_Ruby-Hollow.svg"
   inkscape:version="0.92.2 5c3e80d, 2017-08-06"
   inkscape:export-filename="/Users/kevindick/Documents/GitHub/chazingtheinfinite.github.io/logo/AlephLogo_Ruby.png"
   inkscape:export-xdpi="100"
   inkscape:export-ydpi="100">
  <metadata
     id="metadata4491">
    <rdf:RDF>
      <cc:Work
         rdf:about="">
        <dc:format>image/svg+xml</dc:format>
        <dc:type
           rdf:resource="http://purl.org/dc/dcmitype/StillImage" />
        <dc:title></dc:title>
      </cc:Work>
    </rdf:RDF>
  </metadata>
  <defs
     id="defs4489" />
  <sodipodi:namedview
     pagecolor="#ffffff"
     bordercolor="#666666"
     borderopacity="1"
     objecttolerance="10"
     gridtolerance="10"
     guidetolerance="10"
     inkscape:pageopacity="0"
     inkscape:pageshadow="2"
     inkscape:window-width="1680"
     inkscape:window-height="1005"
     id="namedview4487"
     showgrid="false"
     inkscape:zoom="1"
     inkscape:cx="266.38636"
     inkscape:cy="260.47883"
     inkscape:window-x="0"
     inkscape:window-y="1"
     inkscape:window-maximized="1"
     inkscape:current-layer="g822"
     fit-margin-top="0"
     fit-margin-left="0"
     fit-margin-right="0"
     fit-margin-bottom="0" />
  <g
     id="g822"
     transform="translate(-15.8175,-15.8175)"
     inkscape:export-xdpi="100"
     inkscape:export-ydpi="100">
    <path
       sodipodi:nodetypes="ccscsscccccsssscsscsscsssccccscccscsssssccscscsccccccscssssscssssccccssccsc"
       inkscape:connector-curvature="0"
       id="path814"
       d="m 171.40488,582.30183 c -1.87387,-3.92953 -1.85993,-4.18911 0.31251,-5.81968 1.25062,-0.93869 5.17967,-2.87529 8.73121,-4.30357 6.74299,-2.71174 30.68084,-15.01686 31.69973,-16.29507 0.32287,-0.40504 3.49284,-2.46269 7.04439,-4.57256 23.41165,-13.90819 44.26602,-32.53793 63.5184,-56.74263 4.51943,-5.68196 14.59753,-25.19648 16.83818,-32.60429 1.07425,-3.55154 2.39999,-7.28936 2.94609,-8.30625 4.39781,-8.18923 4.50561,-42.75886 0.17477,-56.04563 -1.32837,-4.07539 -2.99866,-9.62284 -3.71174,-12.32767 -0.71308,-2.70485 -3.33888,-9.14453 -5.8351,-14.31041 -4.20135,-8.69464 -5.17557,-9.82175 -13.11167,-15.16952 -21.10675,-14.22286 -38.91942,-32.36757 -52.92329,-53.90985 -12.11212,-18.63219 -23.40038,-47.99806 -27.37749,-71.22129 -2.53104,-14.77931 -3.53633,-59.74191 -1.74896,-78.22456 1.56694,-16.20338 4.49813,-35.21766 5.94966,-38.59482 0.55509,-1.29147 2.43355,-8.42391 4.17436,-15.849863 3.73358,-15.926715 6.0855,-22.307218 8.22267,-22.307218 0.85645,0 0,0 4.56878,1.145005 3.00155,1.141186 3.01159,1.191947 3.01159,15.216789 0,53.490167 18.95074,109.735787 49.27443,146.246087 6.77463,8.15677 24.69674,25.18583 32.32303,30.71237 9.09907,6.59384 23.29743,15.66316 24.52125,15.66316 0.43243,0 4.4599,1.81557 8.94993,4.0346 8.05059,3.97871 24.69883,10.05417 27.55087,10.05417 1.00622,0 1.67987,-3.21559 2.15219,-10.27306 0.51116,-7.63796 1.86349,-13.64351 5.27217,-23.41289 l 4.58465,-13.13983 -4.58174,-4.47113 c -5.83562,-5.69472 -14.08521,-19.02675 -16.93319,-27.36539 -3.05131,-8.93397 -3.07603,-32.76893 -0.0445,-42.85334 2.69008,-8.94843 9.66022,-22.61789 17.66741,-34.64837 l 6.25052,-9.39113 -0.63716,16.5831 c -0.46797,12.1794 -4.40334,28.20654 6.42506,45.91481 7.03036,13.19162 15.70556,18.63026 35.56093,22.85447 38.67865,8.22887 47.21835,12.51841 56.9873,20.49649 9.86015,8.05255 17.24288,27.89371 14.89673,46.6999 -2.28423,18.30987 -0.6727,9.27743 -4.02788,28.20749 -1.39317,7.86031 -4.8176,18.65021 -6.79348,0.2023 -2.07838,-19.40492 -2.15217,-24.97338 -9.07887,-33.21265 -8.13436,-11.05849 -19.01164,-12.32539 -32.22522,-13.30347 -7.98051,0 -13.28148,0.39668 -18.30582,16.74309 -4.53629,14.7586 -5.1737,18.69758 -3.52438,21.77939 2.18909,4.09035 3.22488,4.77949 21.31517,14.18171 9.51142,4.94345 21.10069,11.42845 25.75394,14.4111 16.48684,10.5678 37.41487,34.7694 45.89603,53.07514 1.50987,3.25891 3.26882,6.60733 3.90877,7.44095 2.1042,2.74103 11.88653,33.01886 13.76598,42.60791 1.69385,8.64203 2.78998,16.78549 6.63733,49.31069 0.76382,6.45735 1.13863,18.34475 0.83289,26.41644 -0.67869,17.91824 -5.21751,61.81859 -6.76722,65.45408 -1.2484,2.92859 -5.97975,3.6303 -7.91628,1.17406 -0.63639,-0.80717 -1.4775,-5.45168 -1.86914,-10.32115 -0.39164,-4.86947 -1.52661,-11.47358 -2.52217,-14.6758 -0.99553,-3.20222 -3.59047,-11.89801 -5.76652,-19.32397 -5.62785,-19.20554 -14.81299,-41.89988 -22.09596,-54.59398 -11.63432,-20.27843 -14.83141,-25.16963 -25.78615,-39.45001 -11.10407,-14.47503 -28.86939,-31.70661 -43.8211,-42.50451 -15.80655,-11.41526 -40.36369,-23.5512 -56.35508,-27.85021 -5.16588,-1.38876 -11.65637,-3.27102 -14.42331,-4.1828 -6.22482,-2.05125 -6.12281,-2.05439 -6.12281,0.18919 0,2.09441 21.08066,44.5704 27.13919,54.68346 13.22745,22.07966 18.34913,32.13293 23.53688,46.20018 8.57208,23.24427 10.65074,33.84871 10.81641,55.18101 0.16892,21.75092 -1.2297,27.71952 -8.83891,37.71979 -3.53587,4.64697 -6.64875,7.05706 -13.64779,10.56658 l -9.06714,4.54651 -20.54612,-0.10523 c -12.56083,-0.0643 -25.33731,-0.84512 -32.8738,-2.00895 -40.9247,-6.31984 -91.7884,-6.98182 -111.2559,-1.44797 -3.05991,0.86981 -8.42354,2.39833 -11.91917,3.3967 -3.49564,0.99838 -10.19925,3.68943 -14.89692,5.98012 -4.69767,2.29068 -8.84651,4.16488 -9.21965,4.16488 -0.37313,0 -1.56103,-1.85084 -2.63977,-4.113 z"
       style="fill:none;fill-opacity:1;stroke:#c74a51;stroke-width:9;stroke-miterlimit:4;stroke-dasharray:none;stroke-opacity:1" />
    <ellipse
       ry="320.5"
       rx="326.5"
       cy="346.5"
       cx="352.5"
       id="path818"
       style="fill:none;fill-opacity:1;stroke:#c74a51;stroke-width:18;stroke-miterlimit:4;stroke-dasharray:none;stroke-opacity:1" />
  </g>
</svg>
