<?xml version="1.0" encoding="UTF-8" standalone="no"?>
<!-- Created with Inkscape (http://www.inkscape.org/) -->

<svg
   width="149.29305mm"
   height="149.29305mm"
   viewBox="0 0 149.29305 149.29305"
   version="1.1"
   id="svg5"
   xml:space="preserve"
   inkscape:version="1.2.1 (9c6d41e4, 2022-07-14)"
   sodipodi:docname="dick-ai-lab_logo_square-m_bg-0.svg"
   inkscape:export-filename="../../Branding/dick-ai-lab_logo_square_m.png"
   inkscape:export-xdpi="300"
   inkscape:export-ydpi="300"
   xmlns:inkscape="http://www.inkscape.org/namespaces/inkscape"
   xmlns:sodipodi="http://sodipodi.sourceforge.net/DTD/sodipodi-0.dtd"
   xmlns="http://www.w3.org/2000/svg"
   xmlns:svg="http://www.w3.org/2000/svg"><sodipodi:namedview
     id="namedview7"
     pagecolor="#ffffff"
     bordercolor="#000000"
     borderopacity="0.25"
     inkscape:showpageshadow="2"
     inkscape:pageopacity="0.0"
     inkscape:pagecheckerboard="0"
     inkscape:deskcolor="#d1d1d1"
     inkscape:document-units="mm"
     showgrid="false"
     inkscape:zoom="0.63446243"
     inkscape:cx="360.14741"
     inkscape:cy="305.77067"
     inkscape:window-width="1595"
     inkscape:window-height="698"
     inkscape:window-x="0"
     inkscape:window-y="38"
     inkscape:window-maximized="0"
     inkscape:current-layer="g11697" /><defs
     id="defs2" /><g
     inkscape:label="Layer 1"
     inkscape:groupmode="layer"
     id="layer1"
     transform="translate(12.228759,32.393219)"><g
       id="g11697"
       transform="matrix(1.4119011,0,0,1.4119011,-4.7931757,-134.95296)"><g
         id="g566"
         transform="translate(1.7667979,0.68701345)"><path
           style="fill:#d63384;fill-opacity:1;stroke:none;stroke-width:0.769983;stroke-dasharray:none;stroke-opacity:1"
           d="m 73.777601,137.13818 c -4.243351,1.29736 -8.562929,0.53975 -12.074131,-2.11772 -0.742434,-0.56192 -1.759321,-1.57795 -2.449187,-2.44711 -0.649011,-0.81769 -1.893186,-3.32651 -2.203178,-4.44265 -0.40823,-1.46973 -0.585723,-3.44361 -0.43707,-4.86109 0.399365,-3.80866 2.390721,-7.244 5.463529,-9.42527 0.803967,-0.5707 1.160244,-0.76911 2.348911,-1.30806 1.262329,-0.57236 1.524394,-0.66116 2.64424,-0.89599 1.320345,-0.27692 2.785028,-0.34934 4.204391,-0.20799 0.698586,0.0696 0.787124,0.10432 1.255734,0.49285 1.102371,0.91395 2.216095,2.24934 2.768243,3.31917 0.276729,0.53622 0.320634,0.68677 0.274661,0.94222 -0.08891,0.49419 -0.471293,0.962 -1.144591,1.40032 -0.737085,0.47984 -1.227047,0.96493 -1.446582,1.43218 -0.193283,0.4114 -0.245441,1.36333 -0.133115,2.42947 0.09597,0.91086 0.09831,1.87152 0.0059,2.36286 -0.07375,0.39153 -0.42072,1.10696 -0.573353,1.18222 -0.06217,0.0307 -0.203407,-0.13663 -0.402278,-0.47641 -0.242084,-0.41362 -0.390533,-0.57202 -0.706471,-0.75381 -0.45082,-0.25941 -0.676122,-0.22667 -0.84559,0.12291 -0.08464,0.17457 -0.07748,0.32384 0.02642,0.55028 l 0.142549,0.31075 -0.328332,0.12886 c -0.180578,0.0709 -0.511518,0.13734 -0.735416,0.14771 -0.34634,0.016 -0.42414,-0.0158 -0.521378,-0.21297 -0.154784,-0.31391 0.0033,-0.55704 0.823114,-1.26401 0.368069,-0.3175 0.719772,-0.66255 0.781569,-0.76678 0.203745,-0.34368 0.132116,-0.83549 -0.217064,-1.49064 -0.274149,-0.51439 -0.322552,-0.68563 -0.345328,-1.22196 -0.0235,-0.55303 -0.07217,-0.71783 -0.429833,-1.45353 -0.376729,-0.77498 -0.437447,-0.85682 -0.919451,-1.23894 -1.036339,-0.8216 -2.333266,-1.0254 -3.795175,-0.59638 -0.929899,0.27288 -1.26834,0.43872 -1.883181,0.92275 -0.65246,0.51362 -0.986803,0.97393 -1.292591,1.77963 -0.49369,1.3008 -0.390202,3.05129 0.241244,4.08025 0.380753,0.62043 0.880474,1.00162 1.920415,1.46491 0.443028,0.19737 0.869942,0.40497 0.948674,0.46133 0.289654,0.20737 0.436442,0.72298 0.63093,2.21628 0.183657,1.41012 0.229339,1.59665 0.591198,2.41433 0.456263,1.03102 0.845267,1.53457 1.696233,2.1957 1.104883,0.8584 2.492547,1.24963 3.813462,1.07515 0.70802,-0.0935 2.321664,-0.88646 2.839002,-1.39507 0.848289,-0.83399 1.174526,-1.85797 1.039977,-3.26415 -0.08331,-0.87091 -0.0033,-1.135 0.406061,-1.33675 0.3278,-0.16164 0.61153,-0.12912 1.60491,0.18385 0.36367,0.11456 0.78871,0.22431 0.94456,0.24389 0.62231,0.0781 1.18587,-0.47106 1.39511,-1.35956 0.18327,-0.77825 -0.1005,-0.92274 -0.88499,-0.45063 -0.50664,0.30489 -0.52462,0.30855 -0.87916,0.17816 -0.19909,-0.0732 -0.60023,-0.2802 -0.89144,-0.4599 -0.82712,-0.51044 -1.2752,-0.70063 -1.777907,-0.75467 -0.554758,-0.0596 -0.75862,0.029 -1.26608,0.5505 -0.418923,0.43051 -1.830531,1.29311 -1.81278,1.10774 0.0053,-0.057 0.140477,-0.19142 0.300021,-0.29857 0.355931,-0.23905 0.981563,-1.06073 1.194973,-1.56941 0.08697,-0.20729 0.19758,-0.59882 0.245806,-0.87006 0.09597,-0.53973 0.09217,-2.14412 -0.0069,-2.94041 -0.03449,-0.27699 -0.0013,-0.70103 0.07321,-0.94231 l 0.135903,-0.43868 1.494088,-0.73672 c 1.447756,-0.71385 1.503626,-0.74926 1.801596,-1.14087 0.61564,-0.80918 0.63691,-1.66514 0.0783,-3.15136 l -0.37743,-1.00416 0.5095,0.40687 c 1.91541,1.52959 2.96886,2.80457 3.93593,4.76362 0.95514,1.93484 1.40098,3.90655 1.37227,6.06848 -0.0218,1.64075 -0.16305,2.44914 -0.70355,4.02618 -0.85586,2.49717 -2.30578,4.55355 -4.35347,6.17442 -0.86135,0.6818 -3.06454,1.83754 -4.11539,2.15883 z"
           id="path8359" /><path
           style="fill:#d63384;fill-opacity:1;stroke-width:0.264583"
           d="m 12.671101,139.24862 c -0.552722,-0.84356 -13.1210957,-26.66825 -13.1210957,-26.96039 0,-0.13205 6.207039,-0.23349 14.2874997,-0.23349 11.926014,0 14.2875,0.06 14.2875,0.36274 0,0.1995 -2.951345,6.42051 -6.558548,13.82447 l -6.558547,13.46174 -0.966136,0.0812 c -0.771811,0.0648 -1.047503,-0.043 -1.370673,-0.53624 z m 7.225822,-14.11806 c 2.488153,-5.10481 4.523915,-9.36129 4.523915,-9.45885 0,-0.24573 -18.7839737,-0.22469 -18.7914667,0.021 -0.01768,0.57988 9.3946377,19.34999 9.5564547,19.05755 0.102949,-0.18605 2.222943,-4.51494 4.711097,-9.61974 z"
           id="path11293"
           sodipodi:nodetypes="sssssccsscssscc" /><path
           style="fill:#d63384;fill-opacity:1;stroke-width:0.264583"
           d="m 54.649017,143.01722 c -3.693017,-3.4927 -5.887273,-8.60176 -6.478934,-15.08539 -0.749181,-8.20982 1.432904,-15.7216 5.94084,-20.45121 1.230755,-1.29127 2.093217,-1.98361 2.470542,-1.98322 0.983075,0.001 0.954709,0.49056 -0.09823,1.69509 -2.728576,3.12142 -4.440007,7.30398 -5.140629,12.56318 -0.381601,2.86447 -0.144457,10.62596 0.39737,13.00555 0.872267,3.8308 2.625532,7.53818 4.655497,9.84435 1.931262,2.19403 0.495877,2.53236 -1.746459,0.41165 z m -28.155564,-0.92843 c -1.035137,-0.71344 -1.29822,-1.19103 -1.307229,-2.37309 -0.01196,-1.56997 0.990002,-2.73228 2.35535,-2.73228 1.900105,0 2.510938,1.78058 1.096171,3.19535 l -0.773396,0.7734 h 0.788273 c 0.678562,0 0.860788,-0.16392 1.309249,-1.17775 0.54438,-1.23066 1.481206,-5.59614 3.139808,-14.6311 l 0.983567,-5.35781 h -1.792269 c -0.98575,0 -1.862471,-0.11359 -1.948273,-0.25241 -0.0858,-0.13883 -0.07992,-0.55555 0.01307,-0.92604 0.162029,-0.64558 0.250288,-0.67363 2.11972,-0.67363 1.806536,0 1.960618,-0.044 2.08556,-0.59531 0.0742,-0.32742 0.366707,-1.68685 0.650015,-3.02094 0.593498,-2.79478 1.199809,-4.10939 2.443118,-5.29721 1.507072,-1.43981 3.400377,-1.805 5.122129,-0.98797 1.080998,0.51297 1.821429,1.93117 1.580632,3.02751 -0.316654,1.44172 -2.425068,2.60329 -3.464968,1.90893 -1.059849,-0.70768 -1.012624,-2.37242 0.09195,-3.24128 l 0.667406,-0.52498 h -0.822637 c -1.095193,0 -1.444718,0.71502 -2.14175,4.38135 -0.302678,1.59208 -0.618471,3.22211 -0.701757,3.6223 l -0.151431,0.7276 h 2.269979 c 2.378361,0 2.431635,0.0315 2.105806,1.24688 -0.144434,0.53873 -0.338897,0.59149 -2.437887,0.66146 l -2.280936,0.076 -1.127437,5.95312 c -1.901939,10.04268 -2.761689,12.84568 -4.572781,14.9084 -0.47983,0.5465 -1.206018,1.16614 -1.613752,1.37699 -1.006292,0.52037 -2.882191,0.486 -3.685304,-0.0675 z"
           id="path11342"
           sodipodi:nodetypes="sssssssssssssscssscssssssssssscssscssccsssss" /><path
           style="fill:#d63384;fill-opacity:1;stroke-width:0.264583"
           d="m 83.035923,143.77741 c -0.17742,-0.28707 -0.10271,-0.40455 1.50691,-2.36966 2.9644,-3.61911 4.71648,-9.86033 4.71648,-16.80104 0,-7.21478 -1.67593,-12.98491 -4.95589,-17.06284 -0.76202,-0.94741 -1.34801,-1.84163 -1.30219,-1.98715 0.0458,-0.14552 0.34988,-0.30368 0.67571,-0.35147 0.74602,-0.10941 3.71133,2.88748 5.01622,5.06965 2.35729,3.94209 3.23809,7.41302 3.40192,13.40577 0.14392,5.26424 -0.2512,7.93795 -1.73997,11.77395 -1.80998,4.66364 -6.37351,9.85292 -7.31919,8.32279 z"
           id="path11344"
           sodipodi:nodetypes="ssssssssss" /></g></g></g><style
     type="text/css"
     id="style8281">
	.st0{display:none;}
	.st1{fill-rule:evenodd;clip-rule:evenodd;}
	.st2{fill:none;}
</style></svg>
