<svg xmlns="http://www.w3.org/2000/svg" width="48" height="48" fill="none" viewBox="0 0 48 48">
  <path fill="#AC3E3B" d="M47.943 36.549a15.024 15.024 0 0 0-.06-1.6c-.56-9.015-4.725-12.88-4.725-12.88l-.002.001a7.839 7.839 0 0 0-5.647-2.395 7.76 7.76 0 0 0-3.367.78l-.015-.008s-.111.063-.297.163c-.072.038-.149.067-.22.11l-.004-.001s-.008.006-.01.006l-.046.03c-.88.45-2.681 1.28-4.718 1.739-1.41.337-1.546-.805-1.553-1.11v-.583c-.051-.624-.377-1.783-2.016-2.04v-7.266l.006.002.008-2.537s-.18-2.39.866-3.343c.034-.034.064-.069.098-.1.014-.011.023-.027.038-.036.007-.005.013-.005.018-.01.695-.605 1.593-.703 2.125-.701.14.007 2.453.184 2.453 3.38v4.434h.007a4.362 4.362 0 0 0 4.36 4.299c2.069 0 3.772-1.45 4.218-3.382.007-.019.016-.026.023-.047.098-.297.105-.53.089-.73l.002-.01c0-.013-.008-.024-.008-.037a1.443 1.443 0 0 0-.062-.309c-.012-.029-.019-.055-.033-.082-.04-.086-.074-.144-.074-.144l-.016.009a1.002 1.002 0 0 0-.83-.46c-.477 0-.85.338-.96.78-.01.034-.026.074-.04.113h-.011v.03c-.172.485-.508 1.289-.906 1.507-.437.308-1.12.61-1.862.25-.873-.473-1.482-1.373-1.482-2.438 0-.077.016-.147.022-.223h-.022V6.414c0-.878-.5-1.767-.883-2.321-.015-.025-.033-.049-.05-.074a10.637 10.637 0 0 0-.207-.281h-.024c-.967-1.213-2.44-2.007-4.112-2.007-2.318 0-4.261 1.504-4.966 3.583-.129.5-.311 1.682-.311 4.37v9.037c-1.806.102-2.005 1.569-2.016 2.083v.467c-.035.552-.317 1.651-2.031 1.173a15.94 15.94 0 0 1-3.836-1.544c-.1-.066-.205-.124-.31-.184l-.128-.079v.007a7.744 7.744 0 0 0-3.747-.97 7.822 7.822 0 0 0-4.483 1.406l-.003-.002s-.15.102-.387.294c-.473.374-.902.8-1.278 1.27C2.947 24.464.768 28.069.217 34.288a14.377 14.377 0 0 0-.14 2.94c0 .038-.004.073-.004.11H.08c.25 4.123 2.338 7.56 5.674 8.612 2.918.918 6.093-.21 8.561-2.675l-.002.007.061-.07c.108-.107.216-.216.32-.33.65-.645 2.109-1.934 4.135-2.824.072-.03.163-.067.28-.11.018-.009.039-.014.058-.023 1.4-.511 5.473-1.634 10.234.352 2.104.975 3.733 2.298 4.437 2.923.003.005.008.008.011.012.238.211.377.346.377.346l-.005-.027c2.382 2.113 5.31 3.05 8.023 2.195 3.463-1.092 5.581-4.75 5.695-9.082.002-.002.005-.004.008-.004a.96.96 0 0 1-.005-.091ZM15.23 32.498c.042 1.094-.865 1.285-1.33 1.313h-.51c-.849-.005-1.008.582-1.034.922v.609c0 1.109-.74 1.314-1.147 1.343h-.587c-1 0-1.084-.942-1.09-1.19v-.786c-.011-.825-.76-.894-.97-.898h-.317c-1.288.01-1.545-.68-1.586-1.099v-.314c.01-1.283 1.12-1.405 1.482-1.411h.4c.817-.004.97-.527.992-.82v-.717c0-1.215 1.07-1.33 1.42-1.337.041-.002 1.405-.016 1.405 1.357v.628c.009.255.116.9.997.89h.476c.39.012 1.402.157 1.402 1.411v.099h-.003Z"/>
</svg>
