<svg xmlns="http://www.w3.org/2000/svg" width="36" height="48" fill="none" viewBox="0 0 36 48">
  <g clip-path="url(#a)">
    <path fill="#AC3E3B" d="M23.998 15V1.5a1.5 1.5 0 0 0-1.5-1.5h-3a1.5 1.5 0 0 0-1.5 1.5v13.775c.47-.167.97-.275 1.497-.275h4.503Zm12 9A6 6 0 0 0 30 18H19.486c-.823 0-1.49.663-1.49 1.486v.052A4.462 4.462 0 0 0 22.454 24h3.306c.907 0 1.237.336 1.237.75v1.519c0 .402-.336.73-.739.75-4.173.214-6.015 2.316-9.004 6.801l-.592.888a.747.747 0 0 1-1.04.208l-1.247-.832a.75.75 0 0 1-.208-1.04l.591-.888c1.475-2.212 2.831-4.055 4.435-5.445a6.032 6.032 0 0 1-3.644-3.23A4.443 4.443 0 0 1 13.5 24h-3a4.468 4.468 0 0 1-3-1.17 4.467 4.467 0 0 1-3 1.17h-3a4.43 4.43 0 0 1-1.5-.277v7.306a12 12 0 0 0 3.515 8.486L5.999 42v6h23.998v-5.996l3.367-3.368A9.003 9.003 0 0 0 36 32.27L35.998 24Zm-3-8.447V4.5a1.5 1.5 0 0 0-1.5-1.5h-3a1.5 1.5 0 0 0-1.5 1.5V15h3c1.057 0 2.056.217 3 .553ZM1.5 21h3A1.5 1.5 0 0 0 6 19.5v-12A1.5 1.5 0 0 0 4.5 6h-3A1.5 1.5 0 0 0 0 7.5v12A1.5 1.5 0 0 0 1.5 21Zm9 0h3a1.5 1.5 0 0 0 1.5-1.5v-15A1.5 1.5 0 0 0 13.5 3h-3A1.5 1.5 0 0 0 9 4.5v15a1.5 1.5 0 0 0 1.5 1.5Z"/>
  </g>
  <defs>
    <clipPath id="a">
      <path fill="#fff" d="M0 0h36v48H0z"/>
    </clipPath>
  </defs>
</svg>
