<?xml version="1.0" encoding="UTF-8" standalone="no"?>
<!-- Created with Inkscape (http://www.inkscape.org/) -->

<svg
   xmlns:dc="http://purl.org/dc/elements/1.1/"
   xmlns:cc="http://creativecommons.org/ns#"
   xmlns:rdf="http://www.w3.org/1999/02/22-rdf-syntax-ns#"
   xmlns:svg="http://www.w3.org/2000/svg"
   xmlns="http://www.w3.org/2000/svg"
   xmlns:sodipodi="http://sodipodi.sourceforge.net/DTD/sodipodi-0.dtd"
   xmlns:inkscape="http://www.inkscape.org/namespaces/inkscape"
   version="1.1"
   id="svg4903"
   width="170"
   height="83"
   viewBox="0 0 170 82.999998"
   sodipodi:docname="agrifood-logo.svg"
   inkscape:export-filename="/Users/kevindick/Documents/GitHub/chazingtheinfinite.github.io/images/organizations/agrifood-logo.png"
   inkscape:export-xdpi="96"
   inkscape:export-ydpi="96"
   inkscape:version="0.92.2 5c3e80d, 2017-08-06">
  <metadata
     id="metadata4909">
    <rdf:RDF>
      <cc:Work
         rdf:about="">
        <dc:format>image/svg+xml</dc:format>
        <dc:type
           rdf:resource="http://purl.org/dc/dcmitype/StillImage" />
        <dc:title></dc:title>
      </cc:Work>
    </rdf:RDF>
  </metadata>
  <defs
     id="defs4907" />
  <sodipodi:namedview
     pagecolor="#ffffff"
     bordercolor="#666666"
     borderopacity="1"
     objecttolerance="10"
     gridtolerance="10"
     guidetolerance="10"
     inkscape:pageopacity="0"
     inkscape:pageshadow="2"
     inkscape:window-width="1579"
     inkscape:window-height="926"
     id="namedview4905"
     showgrid="false"
     fit-margin-top="0"
     fit-margin-left="0"
     fit-margin-right="0"
     fit-margin-bottom="0"
     inkscape:zoom="3"
     inkscape:cx="120.91265"
     inkscape:cy="35.531839"
     inkscape:window-x="0"
     inkscape:window-y="0"
     inkscape:window-maximized="0"
     inkscape:current-layer="svg4903" />
  <g
     id="g6249"
     transform="matrix(0.68545222,0,0,0.68545222,6.153403,14.876857)">
    <path
       inkscape:connector-curvature="0"
       id="path6131"
       d="M -6.708142,59.112604 C -6.830364,58.990384 -6.930364,50.590383 -6.930364,40.445938 V 22.001494 h 10.5 10.5 V 40.668161 59.334827 H 3.7918584 c -5.6527784,0 -10.3777784,-0.1 -10.5000004,-0.222223 z"
       style="fill:#ee1c25;fill-opacity:1;stroke:none;stroke-width:0.333;stroke-miterlimit:4;stroke-dasharray:none;stroke-opacity:1" />
    <path
       inkscape:connector-curvature="0"
       id="path6133"
       d="m 36.191225,55.159895 c 0.201321,-3.765853 0.166957,-4.196511 -0.350711,-4.395159 -0.315646,-0.121124 -2.080721,0.03364 -3.92239,0.343916 -4.425811,0.745645 -4.21936,0.774234 -3.782784,-0.523825 0.200397,-0.595833 0.492682,-1.248808 0.649522,-1.451056 0.313996,-0.404902 -2.898344,-3.576255 -6.131893,-6.053656 -1.054166,-0.807655 -1.916666,-1.526897 -1.916666,-1.598316 0,-0.07142 0.442788,-0.358826 0.983974,-0.638684 l 0.983974,-0.508833 -0.47175,-1.567507 c -0.259463,-0.862129 -0.403553,-1.635705 -0.3202,-1.719057 0.08335,-0.08335 0.02452,-0.315353 -0.130746,-0.515554 -0.155264,-0.200202 -0.368799,-0.71634 -0.474524,-1.146975 -0.167745,-0.683255 -0.09959,-0.753871 0.535189,-0.554482 1.308545,0.411028 3.721138,0.76795 4.011427,0.593456 0.156206,-0.0939 0.498387,-0.683794 0.760402,-1.310884 l 0.476391,-1.140163 1.870329,2.347522 c 1.028681,1.291138 1.993723,2.347523 2.144537,2.347523 0.35895,0 0.994031,-1.192521 0.759814,-1.426738 -0.09958,-0.09958 -0.236342,-0.531805 -0.303911,-0.960494 -0.06757,-0.428689 -0.405551,-2.161457 -0.751074,-3.850596 -0.70707,-3.456615 -0.580039,-4.112733 0.598387,-3.09069 0.434889,0.377177 1.024048,0.642893 1.309244,0.59048 0.285195,-0.05241 1.118537,-1.328708 1.85187,-2.836213 0.733333,-1.507505 1.434201,-2.745005 1.557483,-2.75 0.123282,-0.005 0.403815,0.553417 0.623407,1.240917 0.697428,2.183513 2.05241,4.416667 2.679845,4.416667 0.323463,0 1.057489,-0.394952 1.631169,-0.877672 l 1.043054,-0.877672 -0.188867,0.794338 c -0.635278,2.671857 -0.910713,4.441867 -1.07025,6.877673 -0.146539,2.237349 -0.09192,2.75 0.292991,2.75 0.511091,0 1.598223,-1.098874 3.050386,-3.083334 0.50309,-0.6875 1.02419,-1.25 1.158,-1.25 0.13381,0 0.418172,0.463316 0.631917,1.029591 0.347774,0.921359 0.504377,1.012782 1.489746,0.869697 0.605615,-0.08794 1.523384,-0.326256 2.039486,-0.52959 1.697361,-0.668726 1.696891,-0.670424 0.878432,3.178094 -0.387949,1.824195 -0.375726,2.107567 0.111945,2.595238 0.301096,0.301096 0.627804,0.542089 0.726018,0.535542 1.059894,-0.07066 0.853207,0.217443 -1.586865,2.211945 -2.7552,2.252086 -5.885626,5.559626 -5.603769,5.920821 0.465542,0.596582 0.724089,2.135999 0.393101,2.340561 -0.171536,0.106015 -1.616735,-0.03479 -3.211553,-0.312905 -1.594818,-0.278113 -3.255021,-0.50566 -3.689339,-0.50566 h -0.78967 v 4.333333 c 0,3.048717 -0.113877,4.333333 -0.384135,4.333333 -0.28139,0 -0.324437,-1.116666 -0.160943,-4.174932 z"
       style="fill:#ee1c25;fill-opacity:1;stroke:none;stroke-width:0.333;stroke-miterlimit:4;stroke-dasharray:none;stroke-opacity:1" />
    <path
       inkscape:connector-curvature="0"
       id="path6135"
       d="m 59.325118,40.668225 0.08881,-18.666731 h 10.494518 10.494518 v 18.464337 c 0,16.529563 -0.05525,18.48554 -0.527262,18.666666 -0.289995,0.111284 -5.052495,0.20236 -10.583333,0.202394 l -10.056071,6.6e-5 z"
       style="fill:#ee1c25;fill-opacity:1;stroke:none;stroke-width:0.333;stroke-miterlimit:4;stroke-dasharray:none;stroke-opacity:1" />
    <path
       inkscape:connector-curvature="0"
       id="path6137"
       d="m 85.802969,37.447973 c 0,-0.05394 0.186129,-0.359458 0.413619,-0.678938 0.227491,-0.319481 0.351471,-0.580874 0.275511,-0.580874 -0.07596,0 -0.03393,-0.125527 0.0934,-0.278948 0.127328,-0.153422 0.213815,-0.355922 0.192192,-0.45 -0.02162,-0.09408 0.08018,-0.441052 0.226224,-0.771052 0.146046,-0.33 0.280852,-0.645 0.29957,-0.7 0.122232,-0.359167 0.363714,-0.972194 0.551485,-1.4 0.120701,-0.275 0.23713,-0.5675 0.25873,-0.65 0.0216,-0.0825 0.0609,-0.2175 0.0873,-0.3 0.0264,-0.0825 0.0698,-0.24 0.0963,-0.35 0.16013,-0.664559 0.37801,-1.1 0.55039,-1.1 0.10894,0 0.15033,-0.12442 0.092,-0.276489 -0.0584,-0.152069 0.10587,-0.695181 0.36494,-1.206915 0.25907,-0.511735 0.47021,-0.994815 0.46919,-1.073512 -0.005,-0.38718 0.51672,-1.643084 0.68258,-1.643084 0.10416,0 0.14721,-0.1125 0.0957,-0.25 -0.15615,-0.416538 0.15541,-1.012059 0.56513,-1.080195 1.03635,-0.172345 1.76208,0.412468 1.96487,1.583349 0.0235,0.135765 0.19766,0.539346 0.38698,0.896846 0.18932,0.3575 0.28589,0.65 0.2146,0.65 -0.0713,0 -0.0176,0.135 0.11935,0.3 0.13694,0.165 0.18683,0.3 0.11087,0.3 -0.076,0 0.0578,0.275181 0.29733,0.611515 0.23949,0.336333 0.3814,0.665552 0.31535,0.731598 -0.066,0.06605 -0.0198,0.240864 0.10267,0.388485 0.12252,0.147621 0.16061,0.268402 0.0847,0.268402 -0.076,0 0.0454,0.257659 0.2696,0.572575 0.22424,0.314917 0.35255,0.627742 0.28512,0.695167 -0.0674,0.06743 -0.0206,0.245547 0.10417,0.395826 0.12472,0.15028 0.16755,0.332454 0.0952,0.404833 -0.0724,0.07238 -0.0371,0.131599 0.0784,0.131599 0.22265,0 0.52076,0.73006 0.46959,1.15 -0.0168,0.1375 0.0454,0.25 0.13812,0.25 0.20457,0 0.74882,1.399963 0.68033,1.75 -0.0269,0.1375 0.06,0.25 0.19319,0.25 0.13315,0 0.18527,0.05682 0.11582,0.126272 -0.0695,0.06945 0.006,0.314475 0.16667,0.544501 0.41119,0.587056 0.36826,0.729227 -0.22021,0.729227 -0.71256,0 -1.34052,-0.371661 -1.20864,-0.715339 0.0601,-0.156564 0.0326,-0.284661 -0.0612,-0.284661 -0.19085,0 -0.47689,-0.765026 -0.42998,-1.15 0.0168,-0.1375 -0.0731,-0.25 -0.1997,-0.25 -0.12659,0 -0.18487,-0.118052 -0.1295,-0.262337 0.0554,-0.144285 -0.0498,-0.461806 -0.23369,-0.705603 -0.32271,-0.427832 -0.43865,-0.441332 -3.32927,-0.387664 -2.71025,0.05032 -2.99227,0.08887 -2.96713,0.405604 0.0153,0.1925 -0.0522,0.35 -0.15,0.35 -0.0978,0 -0.17778,0.15111 -0.17778,0.3358 0,0.439283 -0.452515,1.730997 -0.65949,1.882528 -0.08889,0.06508 -0.134373,0.20008 -0.101067,0.3 0.03331,0.09992 0.01556,0.208575 -0.03944,0.241457 -0.22228,0.132891 -1.6,0.391236 -1.6,0.300027 z M 93.9137,31.938161 c -0.0748,-0.2475 -0.16376,-0.63 -0.1978,-0.85 -0.034,-0.22 -0.0846,-0.4225 -0.11241,-0.45 -0.0278,-0.0275 -0.0655,-0.1175 -0.0839,-0.2 -0.0184,-0.0825 -0.17477,-0.42 -0.34756,-0.75 -0.1728,-0.33 -0.27403,-0.7125 -0.22495,-0.85 0.0491,-0.1375 -0.0179,-0.25 -0.14884,-0.25 -0.13094,0 -0.18626,-0.135 -0.12295,-0.3 0.0633,-0.165 0.034,-0.3 -0.0651,-0.3 -0.20121,0 -0.41836,-0.580815 -0.50199,-1.342653 -0.0304,-0.276557 -0.17895,-0.580553 -0.3302,-0.675545 -0.2084,-0.130878 -0.34606,0.0563 -0.56832,0.772742 -0.16131,0.52 -0.38371,1.008062 -0.4942,1.084581 -0.1105,0.07652 -0.14336,0.19667 -0.073,0.267002 0.16733,0.167331 -0.22687,1.293873 -0.45275,1.293873 -0.0958,0 -0.12235,0.135 -0.059,0.3 0.0633,0.165 0.008,0.3 -0.12294,0.3 -0.13094,0 -0.19791,0.1125 -0.14884,0.25 0.0491,0.1375 -0.0498,0.52 -0.21979,0.85 -0.6585,1.278585 -0.62522,1.3 2.02065,1.3 2.38536,0 2.38964,-8.6e-4 2.25398,-0.45 z"
       style="fill:#000006;fill-opacity:1;stroke:#000005;stroke-width:0.5;stroke-miterlimit:4;stroke-dasharray:none;stroke-opacity:1" />
    <path
       inkscape:connector-curvature="0"
       id="path6139"
       d="m 101.56994,41.288465 c -0.11225,-0.112252 -0.53159,-0.231576 -1.00159,-0.285002 -0.40825,-0.04641 -1.36538,-1.30543 -1.36538,-1.796048 0,-0.496905 0.0577,-0.541508 0.59796,-0.462215 0.32888,0.04827 0.55738,0.15342 0.50778,0.233671 -0.0496,0.08025 0.19882,0.420738 0.55204,0.756641 0.58023,0.551782 0.76734,0.61083 1.93853,0.611746 1.146,9e-4 1.37292,-0.06624 1.95696,-0.579041 0.36336,-0.319031 0.6015,-0.580056 0.5292,-0.580056 -0.0723,0 -0.0491,-0.1125 0.0514,-0.25 0.21387,-0.292351 0.36547,-2.55 0.17124,-2.55 -0.0725,0 -0.41832,0.212845 -0.76849,0.47299 -0.55132,0.409599 -0.8296,0.466252 -2.07629,0.422713 -1.06996,-0.03737 -1.62206,-0.163017 -2.15,-0.489303 -0.64053,-0.395865 -0.74152,-0.529829 -0.69704,-0.924614 0.007,-0.06502 -0.14133,-0.231292 -0.33034,-0.369501 -0.18901,-0.138208 -0.37711,-0.512512 -0.41799,-0.831786 -0.28063,-2.191569 -0.28983,-2.560377 -0.0739,-2.963804 0.12919,-0.241379 0.21839,-0.523881 0.19823,-0.627783 -0.0979,-0.50437 0.0709,-0.871853 0.76071,-1.656713 0.4125,-0.469319 0.93,-0.886672 1.15,-0.927451 0.22,-0.04078 0.4,-0.08737 0.4,-0.103535 0,-0.01617 0.5625,-0.05017 1.25,-0.07558 0.6875,-0.0254 1.25,0.03125 1.25,0.125892 0,0.09464 0.0867,0.118485 0.1927,0.05298 0.10599,-0.0655 0.37599,0.06419 0.6,0.288197 0.48715,0.48715 0.97427,0.526072 1.14116,0.09118 0.0713,-0.185915 0.27074,-0.277034 0.48413,-0.221232 0.19956,0.05218 0.40504,-0.0081 0.45663,-0.133886 0.19085,-0.465452 0.10068,8.403642 -0.0943,9.271232 -0.11122,0.495 -0.20289,1.0575 -0.20372,1.25 -8.2e-4,0.1925 -0.0859,0.35 -0.18907,0.35 -0.10316,0 -0.18757,0.125036 -0.18757,0.277858 0,0.321247 -1.27467,1.392198 -1.76707,1.484656 -0.87092,0.163532 -2.74988,0.253869 -2.86596,0.13779 z m 2.15553,-4.897573 c 0.38768,-0.0048 1.57462,-1.086296 1.64737,-1.501094 0.0384,-0.2191 0.19593,-0.642131 0.35,-0.940068 0.35821,-0.6927 0.35665,-1.543805 -0.004,-2.280842 -0.15636,-0.3194 -0.31386,-0.753153 -0.35,-0.963896 -0.13926,-0.812237 -1.47161,-1.716831 -2.52867,-1.716831 -0.77591,0 -1.91802,0.846437 -2.34483,1.737787 -0.53146,1.109906 -0.53181,3.344364 -6.6e-4,4.260398 0.36992,0.637966 1.10847,1.516862 1.10847,1.319111 0,-0.04549 0.2475,-0.0062 0.55,0.08735 0.3025,0.09353 0.73,0.131977 0.95,0.08543 0.22,-0.04654 0.50012,-0.08585 0.6225,-0.08735 z"
       style="fill:#000006;fill-opacity:1;stroke:#000005;stroke-width:0.5;stroke-miterlimit:4;stroke-dasharray:none;stroke-opacity:1" />
    <path
       inkscape:connector-curvature="0"
       id="path6141"
       d="m 109.60297,32.905857 c 0,-4.161051 0.0251,-4.477501 0.35,-4.415302 0.1925,0.03685 0.41124,0.07389 0.48609,0.0823 0.0748,0.0084 0.16485,0.210753 0.2,0.449637 0.0973,0.661109 0.48823,0.655493 0.88293,-0.01268 0.19491,-0.329945 0.42786,-0.554482 0.51768,-0.498973 0.0898,0.05551 0.1633,0.01946 0.1633,-0.08011 0,-0.278627 1.65673,-0.214417 1.94659,0.07544 0.1542,0.154204 0.1796,0.303995 0.0637,0.375636 -0.10604,0.06554 -0.14476,0.244351 -0.086,0.397365 0.0833,0.217107 -0.0661,0.258348 -0.68041,0.187776 -1.16339,-0.133656 -1.72778,0.165098 -2.18195,1.154982 -0.34272,0.746979 -0.39499,1.272292 -0.37965,3.816008 l 0.0178,2.949784 -0.65,2.16e-4 -0.65,2.16e-4 z"
       style="fill:#000006;fill-opacity:1;stroke:#000005;stroke-width:0.5;stroke-miterlimit:4;stroke-dasharray:none;stroke-opacity:1" />
    <path
       inkscape:connector-curvature="0"
       id="path6143"
       d="m 116.04914,32.938161 0.0538,-4.45 0.5,-0.05846 0.5,-0.05846 v 4.50846 4.50846 h -0.55383 -0.55382 z"
       style="fill:#000006;fill-opacity:1;stroke:#000005;stroke-width:0.5;stroke-miterlimit:4;stroke-dasharray:none;stroke-opacity:1" />
    <path
       inkscape:connector-curvature="0"
       id="path6145"
       d="m 115.9363,26.054827 c -0.0733,-0.07333 -0.13195,-0.455833 -0.13027,-0.85 0.002,-0.536334 0.0518,-0.641178 0.19694,-0.416666 0.12692,0.196395 0.19493,0.214436 0.19694,0.05224 0.002,-0.141355 0.21779,-0.229988 0.50306,-0.206378 0.4379,0.03624 0.5,0.135324 0.5,0.797759 0,0.6972 -0.0443,0.756379 -0.56667,0.756379 -0.31166,0 -0.62666,-0.06 -0.7,-0.133334 z"
       style="fill:#000006;fill-opacity:1;stroke:#000005;stroke-width:0.5;stroke-miterlimit:4;stroke-dasharray:none;stroke-opacity:1" />
    <path
       inkscape:connector-curvature="0"
       id="path6147"
       d="m 121.50297,37.226716 c -1.4218,-0.903515 -2.04222,-2.28324 -1.9959,-4.438555 0.0506,-2.353179 0.9686,-3.979025 2.48453,-4.400151 0.78295,-0.217504 2.46586,-0.233507 3.14564,-0.02991 1.13645,0.340366 2.28009,2.044868 1.6428,2.448468 -0.49884,0.315919 -0.7786,0.191961 -1.10325,-0.488835 -0.91046,-1.909259 -3.54643,-1.691262 -4.56382,0.377432 -0.54041,1.098838 -0.54876,3.289274 -0.017,4.453277 0.7669,1.678627 2.84857,2.215251 4.09104,1.054609 0.3445,-0.321812 0.72042,-0.854901 0.83536,-1.184642 0.19152,-0.549396 0.25559,-0.583289 0.76612,-0.405317 l 0.55712,0.194213 -0.39422,0.84043 c -0.66593,1.419703 -1.36642,1.830535 -3.2402,1.900349 -1.30872,0.04876 -1.71998,-0.01109 -2.20824,-0.321365 z"
       style="fill:#000006;fill-opacity:1;stroke:#000005;stroke-width:0.5;stroke-miterlimit:4;stroke-dasharray:none;stroke-opacity:1" />
    <path
       inkscape:connector-curvature="0"
       id="path6149"
       d="m 130.80297,37.405699 c 0,-0.06594 -0.27051,-0.239633 -0.60113,-0.385981 -0.33063,-0.146348 -0.55032,-0.348318 -0.4882,-0.448822 0.0621,-0.100505 0.0123,-0.182735 -0.11067,-0.182735 -0.12298,0 -0.16555,-0.09394 -0.0946,-0.208761 0.071,-0.114819 0.0515,-0.317319 -0.0433,-0.45 -0.0948,-0.132682 -0.13995,-1.793739 -0.10036,-3.691239 l 0.072,-3.45 h 0.48315 0.48314 l 0.0342,3.15 c 0.0188,1.7325 0.0435,3.317161 0.0548,3.521469 0.0113,0.204308 0.28844,0.589044 0.61579,0.854968 0.32734,0.265924 0.70387,0.571263 0.83673,0.67853 0.36202,0.29229 0.77827,0.237905 1.48947,-0.194602 0.35239,-0.2143 0.71457,-0.343988 0.80484,-0.288197 0.0903,0.05579 0.16413,0.0231 0.16413,-0.07265 0,-0.09575 0.165,-0.351198 0.36667,-0.567661 0.45401,-0.487327 0.43512,-0.352768 0.56317,-4.011788 l 0.10604,-3.029933 0.58206,-0.08543 0.58206,-0.08543 v 4.438054 4.438054 l -0.45,-0.02269 c -0.30557,-0.01541 -0.47051,-0.167128 -0.51391,-0.472692 -0.0655,-0.46103 -0.51317,-0.610688 -0.73811,-0.246738 -0.0691,0.111794 -0.21163,0.150105 -0.31676,0.08513 -0.10512,-0.06497 -0.1664,-0.0011 -0.13618,0.141989 0.0302,0.143065 -0.14754,0.291014 -0.39504,0.328777 -0.2475,0.03776 -0.45,0.142759 -0.45,0.233326 0,0.09057 -0.63,0.16023 -1.4,0.154806 -0.77,-0.0054 -1.4,-0.06381 -1.4,-0.129756 z"
       style="fill:#000006;fill-opacity:1;stroke:#000005;stroke-width:0.5;stroke-miterlimit:4;stroke-dasharray:none;stroke-opacity:1" />
    <path
       inkscape:connector-curvature="0"
       id="path6151"
       d="m 139.40297,31.015468 v -6.372693 l 0.45,0.04717 c 0.2475,0.02594 0.5625,0.05865 0.7,0.07269 0.19417,0.01982 0.25,1.432471 0.25,6.325525 v 6.3 h -0.7 -0.7 z"
       style="fill:#000006;fill-opacity:1;stroke:#000005;stroke-width:0.5;stroke-miterlimit:4;stroke-dasharray:none;stroke-opacity:1" />
    <path
       inkscape:connector-curvature="0"
       id="path6153"
       d="m 144.40297,37.195512 c -0.49814,-0.382326 -0.50023,-0.397938 -0.56212,-4.195552 l -0.0621,-3.811799 h -0.55455 c -0.35959,0 -0.55454,-0.105465 -0.55454,-0.3 0,-0.165 0.147,-0.3 0.32666,-0.3 0.58256,0 0.80667,-0.456996 0.80667,-1.644951 0,-1.066471 0.0434,-1.181438 0.51302,-1.36 0.28216,-0.107277 0.54822,-0.195049 0.59124,-0.195049 0.043,0 0.10466,0.650634 0.13698,1.445854 0.0572,1.408231 0.0744,1.451099 0.65876,1.647402 0.9271,0.311425 0.9849,0.593895 0.14461,0.706744 l -0.74461,0.1 -0.0551,3.153624 c -0.0329,1.886308 0.0274,3.307828 0.15027,3.537348 0.12137,0.226779 0.46571,0.409349 0.84191,0.446376 0.50147,0.04936 0.66751,0.17937 0.78244,0.612652 0.14541,0.548187 0.14248,0.549985 -0.88682,0.545552 -0.70576,-0.003 -1.19099,-0.125938 -1.5327,-0.388201 z"
       style="fill:#000006;fill-opacity:1;stroke:#000005;stroke-width:0.5;stroke-miterlimit:4;stroke-dasharray:none;stroke-opacity:1" />
    <path
       inkscape:connector-curvature="0"
       id="path6155"
       d="m 150.10297,37.409346 c -0.22,-0.09568 -0.58,-0.373872 -0.8,-0.618192 -0.37135,-0.412405 -0.4,-0.725624 -0.4,-4.373605 v -3.929388 l 0.55,-0.06329 0.55,-0.06328 0.003,3.363284 c 0.002,1.849807 0.0567,3.564767 0.12274,3.811024 0.15213,0.56761 1.24559,1.252489 1.99814,1.251513 0.57283,-7.4e-4 1.84397,-0.644486 2.12155,-1.074421 0.55499,-0.859602 0.7856,-2.380794 0.72185,-4.761664 l -0.067,-2.502743 0.5,0.01979 0.5,0.01979 0.0538,4.45 0.0538,4.45 h -0.52714 c -0.45577,0 -0.51408,-0.06834 -0.43065,-0.504774 0.14902,-0.779548 -0.21628,-0.806241 -0.97463,-0.07122 -0.6379,0.61828 -0.79952,0.672847 -2.13272,0.720064 -0.79338,0.0281 -1.62251,-0.0272 -1.84251,-0.122886 z"
       style="fill:#000006;fill-opacity:1;stroke:#000005;stroke-width:0.5;stroke-miterlimit:4;stroke-dasharray:none;stroke-opacity:1" />
    <path
       inkscape:connector-curvature="0"
       id="path6157"
       d="m 159.20297,32.888161 c 0,-2.475 0.0376,-4.5 0.0836,-4.5 0.39752,0 0.71636,0.328496 0.71636,0.738064 0,0.593875 0.41039,0.534442 0.69743,-0.101003 0.10858,-0.240384 0.31108,-0.437061 0.44999,-0.437061 0.13892,0 0.25258,-0.07714 0.25258,-0.171429 0,-0.09429 0.40871,-0.171429 0.90825,-0.171429 0.66074,0 0.95937,0.0955 1.0958,0.350428 0.26653,0.498009 -0.28181,0.892931 -1.13746,0.819213 -0.56945,-0.04906 -0.80474,0.06374 -1.35921,0.651651 l -0.67054,0.710983 -0.0268,3.148668 c -0.0268,3.146587 -0.0936,3.450688 -0.76004,3.458852 -0.19268,0.0024 -0.25,-1.028637 -0.25,-4.496937 z"
       style="fill:#000006;fill-opacity:1;stroke:#000005;stroke-width:0.5;stroke-miterlimit:4;stroke-dasharray:none;stroke-opacity:1" />
    <path
       inkscape:connector-curvature="0"
       id="path6159"
       d="m 167.30095,37.384898 c -0.0691,-0.111794 -0.19882,-0.15802 -0.28829,-0.102725 -0.28427,0.17569 -1.75006,-1.104469 -1.56726,-1.36878 0.0317,-0.04578 -0.11666,-0.275756 -0.3296,-0.511056 -0.72924,-0.805801 -0.43321,-5.414176 0.3478,-5.414176 0.0896,0 0.11382,-0.07953 0.0537,-0.176745 -0.13883,-0.224641 1.27983,-1.450445 1.51234,-1.306745 0.0953,0.0589 0.28579,0.03523 0.42329,-0.05261 0.29083,-0.18579 2.55507,-0.256314 2.85,-0.08877 0.11,0.06249 0.30631,0.129777 0.43624,0.149526 0.68534,0.10417 2.0733,1.804283 1.90674,2.33557 -0.0314,0.100031 0.041,0.299938 0.16073,0.444239 0.11976,0.1443 0.19041,0.607326 0.15701,1.028948 l -0.0607,0.766584 -3.5,0.1 -3.5,0.1 0.049,0.636831 c 0.11945,1.553157 1.56176,2.863169 3.15232,2.863169 0.77951,0 0.99774,-0.112605 1.93794,-1 0.58273,-0.55 1.10479,-0.993675 1.16014,-0.985943 0.32208,0.04499 0.85537,0.360173 0.62923,0.371886 -0.15142,0.0078 -0.22265,0.141082 -0.16113,0.301409 0.12738,0.331948 -1.38539,1.986984 -1.66067,1.816849 -0.0985,-0.0609 -0.23569,-0.01926 -0.30478,0.09254 -0.0691,0.111795 -0.835,0.203263 -1.70202,0.203263 -0.86702,0 -1.63292,-0.09147 -1.70202,-0.203263 z m 4.26817,-5.255955 c 0.79466,-0.957499 -1.00698,-3.108103 -2.62412,-3.132399 -0.92644,-0.01392 -2.00077,0.672022 -2.5388,1.620974 -0.50398,0.888898 -0.54247,1.356152 -0.13324,1.61758 0.42512,0.271577 5.05977,0.178682 5.29616,-0.106155 z"
       style="fill:#000006;fill-opacity:1;stroke:#000005;stroke-width:0.5;stroke-miterlimit:4;stroke-dasharray:none;stroke-opacity:1" />
    <path
       inkscape:connector-curvature="0"
       id="path6161"
       d="m 181.51265,37.381231 c 0,-0.119173 -0.0846,-0.16442 -0.18789,-0.10055 -0.29488,0.182246 -1.19923,-0.92048 -1.33102,-1.623 -0.0655,-0.34911 -0.0532,-0.845069 0.0274,-1.102133 0.16107,-0.51383 0.88965,-1.527326 0.89455,-1.244359 0.002,0.09733 0.0692,0.07459 0.15,-0.05055 0.26593,-0.411782 1.64113,-0.863638 2.25486,-0.740893 0.34575,0.06915 0.71475,0.01558 0.88903,-0.12906 0.16387,-0.136002 0.42841,-0.197213 0.58786,-0.136026 0.15945,0.06119 0.6556,-0.0324 1.10255,-0.207963 0.6885,-0.270449 0.81263,-0.40731 0.81263,-0.895911 0,-1.192793 -1.12554,-2.162625 -2.50984,-2.162625 -1.09617,0 -2.09183,0.555167 -2.42478,1.352017 -0.19917,0.476681 -0.37798,0.647568 -0.59175,0.565536 -0.16849,-0.06465 -0.36935,-0.117553 -0.44636,-0.117553 -0.077,0 -0.15864,-0.225 -0.1814,-0.5 -0.0228,-0.275 0.0529,-0.5 0.16818,-0.5 0.11526,0 0.16232,-0.07644 0.10458,-0.169865 -0.15533,-0.251331 0.84798,-1.0542 1.34869,-1.079254 0.23798,-0.01191 0.52268,-0.08346 0.63268,-0.159004 0.30249,-0.207741 2.9655,-0.164523 3.24124,0.0526 0.13268,0.104476 0.32052,0.140962 0.41741,0.08108 0.2343,-0.144804 1.07716,0.454696 0.94345,0.671044 -0.0575,0.09308 0.008,0.206795 0.14666,0.252703 0.18358,0.06099 0.27818,1.021698 0.35124,3.567082 0.055,1.915987 0.067,3.686113 0.0267,3.933613 -0.092,0.564688 -0.74046,0.601339 -0.88464,0.05 -0.13159,-0.503237 -0.73797,-0.516503 -1.36507,-0.02987 -0.26234,0.203574 -0.58948,0.331074 -0.72698,0.283333 -0.1375,-0.04774 -0.25,-1.93e-4 -0.25,0.105662 0,0.105854 -0.72,0.205547 -1.6,0.22154 -1.03332,0.01878 -1.6,-0.04766 -1.6,-0.187599 z m 3.47947,-0.893024 c 0.2087,-0.157978 0.44334,-0.247757 0.52141,-0.199507 0.28919,0.178732 1.19912,-1.853112 1.19912,-2.677605 0,-0.91225 -0.0356,-0.927318 -1.4,-0.591894 -0.495,0.121695 -1.11567,0.209412 -1.37928,0.194928 -0.26361,-0.01448 -0.59808,0.07226 -0.74328,0.192756 -0.14519,0.120501 -0.37951,0.180121 -0.52071,0.132489 -0.36218,-0.122178 -1.3497,1.055495 -1.35353,1.614171 -0.002,0.255962 0.25988,0.728462 0.58142,1.05 0.50227,0.502275 0.73467,0.58372 1.65,0.578255 0.60711,-0.0036 1.22861,-0.129913 1.44485,-0.293593 z"
       style="fill:#000006;fill-opacity:1;stroke:#000005;stroke-width:0.5;stroke-miterlimit:4;stroke-dasharray:none;stroke-opacity:1" />
    <path
       inkscape:connector-curvature="0"
       id="path6163"
       d="m 191.04599,37.254827 c -0.0733,-0.07333 -0.13334,-2.053333 -0.13334,-4.4 0,-4.119655 0.0137,-4.266666 0.39619,-4.266666 0.25074,0 0.44016,0.175162 0.51594,0.477108 0.0887,0.353234 0.22152,0.450494 0.51174,0.3746 0.2156,-0.05638 0.34648,-0.148027 0.29085,-0.20366 -0.16824,-0.168243 0.86604,-0.883549 1.08335,-0.749242 0.11107,0.06864 0.20193,0.03548 0.20193,-0.0737 0,-0.116878 0.51401,-0.172614 1.25,-0.135545 0.6875,0.03463 1.25,0.08053 1.25,0.102001 0,0.02147 0.16198,0.06985 0.35995,0.107503 0.43189,0.08215 0.99076,0.516893 0.848,0.65966 -0.0559,0.05595 0.0544,0.215789 0.24516,0.3552 0.30372,0.22193 0.35545,0.728403 0.41563,4.069775 l 0.0687,3.816301 h -0.51492 c -0.65936,0 -0.69209,-0.163751 -0.7673,-3.838619 -0.068,-3.323335 -0.25203,-3.815172 -1.62251,-4.336778 -0.67418,-0.256597 -0.7995,-0.238879 -1.81111,0.256057 -1.48765,0.727839 -1.59583,1.071934 -1.53091,4.86934 l 0.0521,3.05 h -0.4881 c -0.26845,0 -0.5481,-0.06 -0.62143,-0.133334 z"
       style="fill:#000006;fill-opacity:1;stroke:#000005;stroke-width:0.5;stroke-miterlimit:4;stroke-dasharray:none;stroke-opacity:1" />
    <path
       inkscape:connector-curvature="0"
       id="path6165"
       d="m 203.11265,37.361909 c 0,-0.105206 -0.12016,-0.164838 -0.26703,-0.132516 -0.14687,0.03232 -0.59528,-0.278732 -0.99647,-0.691232 -0.40118,-0.4125 -0.675,-0.75 -0.60847,-0.75 0.0665,0 0.009,-0.135 -0.12803,-0.3 -0.13693,-0.165 -0.18193,-0.3 -0.1,-0.3 0.0819,0 0.0379,-0.133854 -0.0979,-0.297453 -0.13578,-0.1636 -0.19283,-0.438274 -0.12678,-0.610388 0.0691,-0.179993 0.0361,-0.261025 -0.0776,-0.190744 -0.12197,0.07538 -0.19771,-0.342033 -0.19771,-1.089612 0,-0.666492 0.0816,-1.211803 0.18128,-1.211803 0.0997,0 0.13686,-0.169843 0.0826,-0.377429 -0.0543,-0.207585 -0.005,-0.435467 0.10999,-0.506405 0.11477,-0.07094 0.15799,-0.261094 0.096,-0.422571 -0.062,-0.161478 -0.008,-0.293595 0.12054,-0.293595 0.12826,0 0.18138,-0.08384 0.11805,-0.186316 -0.0633,-0.102474 0.0864,-0.327474 0.3327,-0.5 0.24632,-0.172526 0.37285,-0.313684 0.28119,-0.313684 -0.0917,0 0.0429,-0.169669 0.29897,-0.377042 0.25609,-0.207373 0.58106,-0.332744 0.72215,-0.278603 0.1411,0.05414 0.25653,0.02131 0.25653,-0.07296 0,-0.09427 0.54,-0.171397 1.2,-0.171397 0.66,0 1.2,0.07713 1.2,0.171397 0,0.09427 0.12655,0.122839 0.28121,0.06349 0.15467,-0.05935 0.43862,0.06602 0.631,0.278602 0.19238,0.212582 0.42584,0.386513 0.51879,0.386513 0.093,0 0.169,-1.016928 0.169,-2.25984 v -2.25984 l 0.70278,0.08205 0.70278,0.08205 -0.0528,6.305572 -0.0528,6.305571 -0.51902,0.05528 c -0.45129,0.04806 -0.50698,-0.0078 -0.42669,-0.427778 0.0727,-0.380117 0.007,-0.483053 -0.30648,-0.483053 -0.21936,0 -0.51087,0.135 -0.64781,0.3 -0.13693,0.165 -0.37295,0.3 -0.52448,0.3 -0.15154,0 -0.27552,0.07295 -0.27552,0.162103 0,0.08916 -0.585,0.171289 -1.3,0.182516 -0.715,0.01123 -1.3,-0.06567 -1.3,-0.170871 z m 3.44462,-1.665234 c 0.29955,-0.334683 0.54705,-0.760703 0.55,-0.946711 0.003,-0.186008 0.0954,-0.39382 0.20538,-0.461803 0.26606,-0.164429 0.2578,-2.240676 -0.01,-2.405915 -0.11526,-0.07124 -0.18501,-0.279048 -0.15499,-0.461803 0.03,-0.182755 -0.0332,-0.467282 -0.14037,-0.632282 -0.10723,-0.165 -0.28498,-0.474661 -0.39501,-0.688135 -0.11003,-0.213473 -0.61748,-0.602944 -1.12766,-0.86549 l -0.9276,-0.477357 -0.81081,0.413645 c -1.6567,0.845185 -2.08945,2.076917 -1.82836,5.20408 0.0838,1.003342 1.48571,2.364031 2.52594,2.451607 0.82841,0.06974 1.23309,-0.146637 2.11305,-1.129836 z"
       style="fill:#000006;fill-opacity:1;stroke:#000005;stroke-width:0.5;stroke-miterlimit:4;stroke-dasharray:none;stroke-opacity:1" />
    <path
       inkscape:connector-curvature="0"
       id="path6167"
       d="m 85.912654,55.776357 c 0,-0.116492 0.105295,-0.146728 0.233988,-0.06719 0.159771,0.09874 0.191259,0.03326 0.09928,-0.206443 -0.130656,-0.340485 0.371217,-1.693673 0.716874,-1.932891 0.09404,-0.06508 0.155569,-0.20008 0.136736,-0.3 -0.08397,-0.445494 0.03707,-0.877041 0.327413,-1.167386 0.172857,-0.172857 0.251837,-0.314285 0.175511,-0.314285 -0.07633,0 -0.0346,-0.125527 0.09273,-0.278948 0.127328,-0.153422 0.21008,-0.355922 0.183893,-0.45 -0.07841,-0.281691 0.499561,-1.671052 0.695151,-1.671052 0.0997,0 0.13348,-0.12442 0.0751,-0.276489 -0.0584,-0.152069 0.10895,-0.701266 0.37179,-1.220439 0.26284,-0.519172 0.46028,-1.002252 0.43875,-1.073511 -0.0215,-0.07126 0.13133,-0.534561 0.33968,-1.029561 0.20834,-0.495 0.40341,-1.02852 0.43348,-1.185599 0.0301,-0.157079 0.22833,-0.517079 0.44059,-0.8 0.29855,-0.397949 0.56172,-0.514401 1.16247,-0.514401 0.47457,0 0.78627,0.09722 0.80154,0.25 0.0138,0.1375 0.0475,0.295 0.075,0.35 0.0275,0.055 0.065,0.1675 0.0834,0.25 0.0184,0.0825 0.18942,0.4425 0.38013,0.8 0.19072,0.3575 0.28843,0.65 0.21713,0.65 -0.0713,0 -0.0176,0.135 0.11935,0.3 0.13694,0.165 0.18683,0.3 0.11087,0.3 -0.076,0 0.0454,0.257659 0.26961,0.572575 0.22424,0.314917 0.36326,0.617023 0.30894,0.671347 -0.0543,0.05432 0.12048,0.48477 0.38845,0.956548 0.26798,0.471778 0.44045,0.979672 0.38328,1.128654 -0.0572,0.148982 -0.0224,0.270876 0.0773,0.270876 0.21398,0 0.76372,1.388331 0.69296,1.75 -0.0269,0.1375 0.06,0.25 0.19318,0.25 0.13316,0 0.1886,0.0535 0.1232,0.1189 -0.0654,0.06539 0.0473,0.392146 0.25037,0.726113 0.2031,0.333968 0.32197,0.730463 0.26417,0.8811 -0.0578,0.150638 -0.0223,0.273887 0.079,0.273887 0.21142,0 0.78919,1.383278 0.69817,1.67155 -0.0333,0.105487 0.0567,0.266163 0.2,0.357059 0.16714,0.106013 0.018,0.166363 -0.41599,0.168328 -0.85684,0.0039 -1.57323,-0.726374 -1.44012,-1.467989 0.0169,-0.09408 -0.0735,-0.296579 -0.20081,-0.45 -0.12733,-0.153422 -0.15298,-0.280327 -0.057,-0.282011 0.096,-0.0017 0.056,-0.07819 -0.0888,-0.170021 -0.14482,-0.09183 -0.28235,-0.292949 -0.30563,-0.446938 -0.0233,-0.153988 -0.1126,-0.392478 -0.1985,-0.529978 -0.0859,-0.1375 -0.0834,-0.251379 0.006,-0.253063 0.089,-0.0017 0.0268,-0.09031 -0.1382,-0.196937 -0.165,-0.106632 -1.57274,-0.195253 -3.12831,-0.196938 l -2.82832,-0.0031 -0.12549,0.5 c -0.069,0.275 -0.21096,0.5 -0.31541,0.5 -0.10445,0 -0.13811,0.135 -0.0748,0.3 0.0633,0.165 0.0115,0.3 -0.11505,0.3 -0.126583,0 -0.204351,0.1125 -0.17281,0.25 0.0898,0.39148 -0.479639,1.948992 -0.669637,1.831567 -0.0936,-0.05785 -0.170176,-0.0099 -0.170176,0.106629 0,0.116492 -0.27,0.211804 -0.6,0.211804 -0.33,0 -0.6,-0.09531 -0.6,-0.211804 z M 93.5071,51.010519 c 0.5398,-0.150408 0.61739,-0.583998 0.25451,-1.422358 -0.18612,-0.43002 -0.43151,-1.05641 -0.54844,-1.4 -0.0187,-0.055 -0.15303,-0.37 -0.29846,-0.7 -0.14544,-0.33 -0.28169,-0.69 -0.30278,-0.8 -0.0211,-0.11 -0.0633,-0.2675 -0.0938,-0.35 -0.0305,-0.0825 -0.0743,-0.2175 -0.0972,-0.3 -0.023,-0.0825 -0.14672,-0.403359 -0.275,-0.71302 -0.12829,-0.309661 -0.23325,-0.647161 -0.23325,-0.75 0,-0.252332 -0.59337,-0.239971 -0.625,0.01302 -0.0267,0.213381 -0.0943,0.505416 -0.17368,0.75 -0.0268,0.0825 -0.0401,0.211386 -0.0295,0.286414 0.0105,0.07503 -0.13084,0.480027 -0.31416,0.9 -0.18333,0.419972 -0.33911,0.808586 -0.34618,0.863586 -0.0618,0.480834 -0.6131,1.8 -0.75222,1.8 -0.0972,0 -0.15415,0.1125 -0.12652,0.25 0.0276,0.1375 -0.0186,0.511462 -0.10283,0.831028 -0.10567,0.401106 -0.0721,0.632405 0.10853,0.746938 0.30973,0.196437 3.24585,0.192275 3.95604,-0.0056 z"
       style="fill:#000006;fill-opacity:1;stroke:#000005;stroke-width:0.5;stroke-miterlimit:4;stroke-dasharray:none;stroke-opacity:1" />
    <path
       inkscape:connector-curvature="0"
       id="path6169"
       d="m 101.26265,59.650295 c -0.1925,-0.05031 -0.35,-0.184494 -0.35,-0.298197 0,-0.113703 -0.135,-0.154929 -0.3,-0.09161 -0.165,0.06332 -0.3,0.02263 -0.3,-0.09041 0,-0.113039 -0.0675,-0.164661 -0.15,-0.114715 -0.19553,0.118381 -0.66311,-0.387418 -0.50464,-0.545893 0.0667,-0.06672 0.0191,-0.121311 -0.10575,-0.121311 -0.12488,0 -0.17874,-0.125897 -0.11969,-0.27977 0.059,-0.153874 0.0112,-0.339185 -0.10628,-0.411804 -0.32748,-0.202395 -0.25409,-0.441475 0.13636,-0.444221 0.1925,-0.0014 0.76222,0.366146 1.26605,0.816666 0.84125,0.752255 1.00453,0.817948 2,0.804662 1.25371,-0.01673 2.21,-0.496656 2.53037,-1.269898 0.35879,-0.865979 0.49567,-2.566016 0.22031,-2.736202 -0.13372,-0.08264 -0.27843,-0.04432 -0.32159,0.08516 -0.0432,0.129476 -0.20597,0.235411 -0.3618,0.235411 -0.15584,0 -0.28334,0.07908 -0.28334,0.175736 0,0.557819 -2.79386,0.818347 -3.17473,0.296043 -0.0689,-0.09448 -0.23901,-0.194694 -0.37803,-0.222702 -0.39948,-0.08048 -1.44745,-1.086927 -1.32987,-1.277179 0.0584,-0.09454 0.0109,-0.171898 -0.10556,-0.171898 -0.11649,0 -0.19268,-0.0675 -0.16932,-0.15 0.0234,-0.0825 -0.0679,-0.348871 -0.20272,-0.591936 -0.13486,-0.243064 -0.30003,-0.841925 -0.36704,-1.330802 -0.13127,-0.957685 0.24487,-2.927262 0.55903,-2.927262 0.10552,0 0.13623,-0.09 0.0682,-0.2 -0.068,-0.11 -0.0208,-0.2 0.10487,-0.2 0.12566,0 0.19284,-0.106875 0.1493,-0.2375 -0.0872,-0.261644 0.52869,-0.9625 0.84583,-0.9625 0.11,0 0.2,-0.105 0.2,-0.233334 0,-0.128333 0.0557,-0.177619 0.12381,-0.109524 0.0681,0.0681 0.25453,-0.0069 0.41429,-0.166666 0.41089,-0.410887 2.53004,-0.393769 2.94762,0.02381 0.17286,0.172857 0.31428,0.247169 0.31428,0.165138 0,-0.08203 0.21834,0.05597 0.4852,0.306668 0.52876,0.496744 0.9148,0.413233 0.9148,-0.197895 0,-0.254863 0.13739,-0.388196 0.4,-0.388196 0.38681,0 0.40134,0.146789 0.44037,4.45 0.0432,4.763958 0.0254,5.614092 -0.13161,6.268089 -0.12562,0.523322 -1.12523,1.685354 -1.51628,1.762643 -0.16086,0.03179 -0.54583,0.161634 -0.8555,0.288536 -0.5468,0.224088 -2.27878,0.277936 -2.98698,0.09287 z m 2.48334,-4.619359 c 0.0367,-0.08647 0.33751,-0.34718 0.66854,-0.579349 1.20077,-0.842164 1.91883,-3.241832 1.32146,-4.41614 -0.0972,-0.191008 -0.29967,-0.608771 -0.45,-0.928364 -0.44716,-0.950613 -1.38464,-1.567022 -2.4253,-1.594671 -0.82281,-0.02186 -0.99568,0.05954 -1.75361,0.825749 -0.46246,0.4675 -0.78222,0.85 -0.71059,0.85 0.0716,0 0.0272,0.192537 -0.0987,0.427861 -0.32664,0.610336 -0.34493,2.808998 -0.0262,3.145353 0.14241,0.150268 0.2258,0.37262 0.1853,0.494116 -0.0947,0.284202 1.03582,1.53267 1.38791,1.53267 0.14733,0 0.26786,0.09 0.26786,0.2 0,0.234367 1.53505,0.274569 1.63334,0.04277 z"
       style="fill:#000006;fill-opacity:1;stroke:#000005;stroke-width:0.5;stroke-miterlimit:4;stroke-dasharray:none;stroke-opacity:1" />
    <path
       inkscape:connector-curvature="0"
       id="path6171"
       d="m 109.5589,51.438161 c 0.0532,-4.502406 0.0583,-4.550649 0.48931,-4.612018 0.34701,-0.04941 0.44866,0.05189 0.5,0.49829 0.0661,0.574877 0.76444,0.952388 0.76444,0.413255 0,-0.526898 0.89183,-1.149527 1.64654,-1.149527 1.09273,0 1.33559,0.151655 1.22549,0.765254 -0.13034,0.726355 -0.35839,0.912651 -0.66499,0.543222 -0.14081,-0.169662 -0.376,-0.308476 -0.52264,-0.308476 -0.25626,0 -1.72607,0.907755 -1.67914,1.037032 0.0126,0.03463 -0.085,0.332968 -0.2169,0.662968 -0.15702,0.392956 -0.22537,1.652473 -0.19806,3.65 l 0.0417,3.05 h -0.71975 -0.71976 z"
       style="fill:#000006;fill-opacity:1;stroke:#000005;stroke-width:0.5;stroke-miterlimit:4;stroke-dasharray:none;stroke-opacity:1" />
    <path
       inkscape:connector-curvature="0"
       id="path6173"
       d="m 116.06983,51.387992 -0.0572,-4.600169 0.53561,1.69e-4 0.53561,1.69e-4 0.0208,4.267011 c 0.0114,2.346856 -0.0367,4.416856 -0.107,4.6 -0.0703,0.183144 -0.29492,0.332989 -0.49921,0.332989 -0.34949,0 -0.37481,-0.271803 -0.4286,-4.600169 z"
       style="fill:#000006;fill-opacity:1;stroke:#000005;stroke-width:0.5;stroke-miterlimit:4;stroke-dasharray:none;stroke-opacity:1" />
    <path
       inkscape:connector-curvature="0"
       id="path6175"
       d="m 116.11265,44.013874 c 0,-0.676505 0.20795,-0.886859 0.69277,-0.700813 0.50968,0.195581 0.32092,1.158954 -0.24277,1.23901 -0.38116,0.05413 -0.45,-0.02819 -0.45,-0.538197 z"
       style="fill:#000006;fill-opacity:1;stroke:#000005;stroke-width:0.5;stroke-miterlimit:4;stroke-dasharray:none;stroke-opacity:1" />
    <path
       inkscape:connector-curvature="0"
       id="path6177"
       d="m 119.31265,51.388161 v -0.6 h 2.20628 c 1.83845,0 2.22676,0.05338 2.32914,0.320185 0.0676,0.176101 0.01,0.390207 -0.1289,0.475789 -0.19853,0.122698 -0.19412,0.178534 0.0208,0.264026 0.14995,0.05963 -0.78487,0.115526 -2.07737,0.12421 l -2.35,0.01579 z"
       style="fill:#000006;fill-opacity:1;stroke:#000005;stroke-width:0.5;stroke-miterlimit:4;stroke-dasharray:none;stroke-opacity:1" />
    <path
       inkscape:connector-curvature="0"
       id="path6179"
       d="m 126.31572,49.649325 -0.003,-6.438836 4.15,0.03884 4.15,0.03884 0.0633,0.55 0.0633,0.55 h -3.51983 -3.51984 l 0.0566,2.25 0.0565,2.25 3.05,0.05521 c 2.88461,0.05221 3.05,0.07662 3.05,0.45 0,0.375382 -0.14643,0.394791 -2.9786,0.394791 -2.5316,0 -2.99682,0.04748 -3.1,0.316357 -0.0668,0.173997 -0.1214,1.568997 -0.1214,3.1 v 2.783643 h -0.5 c -0.275,0 -0.50137,-0.1125 -0.50306,-0.25 -0.002,-0.166667 -0.0677,-0.15 -0.19694,0.05 -0.12739,0.197133 -0.19492,-1.907811 -0.19693,-6.138836 z"
       style="fill:#000006;fill-opacity:1;stroke:#000005;stroke-width:0.5;stroke-miterlimit:4;stroke-dasharray:none;stroke-opacity:1" />
    <path
       inkscape:connector-curvature="0"
       id="path6181"
       d="m 139.82351,56.042756 c -0.67537,-0.17182 -1.85138,-1.009319 -2.29797,-1.636504 -0.48075,-0.67514 -0.61634,-1.35775 -0.6194,-3.118091 -0.003,-1.696829 0.14886,-2.301249 0.77859,-3.1 1.67568,-2.125456 5.15246,-2.115241 6.84396,0.02011 l 0.68396,0.863442 v 2.222381 c 0,2.101818 -0.0305,2.268548 -0.56287,3.073391 -0.92112,1.392637 -3.04264,2.129051 -4.82627,1.675274 z m 2.56507,-1.131649 c 0.92936,-0.38831 1.51214,-1.430668 1.65279,-2.956199 0.14992,-1.625891 -0.16329,-2.762865 -1.00775,-3.658256 -0.62223,-0.659751 -0.75151,-0.708491 -1.87924,-0.708491 -0.99847,0 -1.31485,0.08735 -1.80249,0.497675 -0.8248,0.694028 -1.28589,1.776042 -1.31517,3.086278 -0.0676,3.026107 1.93666,4.748128 4.35186,3.738993 z"
       style="fill:#000006;fill-opacity:1;stroke:#000005;stroke-width:0.5;stroke-miterlimit:4;stroke-dasharray:none;stroke-opacity:1" />
    <path
       inkscape:connector-curvature="0"
       id="path6183"
       d="m 150.01265,56.061532 c -0.80577,-0.19232 -2.00937,-1.209415 -2.43197,-2.05513 -0.36706,-0.734555 -0.42484,-1.156121 -0.38448,-2.805201 0.0447,-1.828829 0.0853,-1.995632 0.70253,-2.892809 1.5039,-2.185835 4.94748,-2.315436 6.75718,-0.254308 0.73065,0.832173 0.93369,1.802379 0.80585,3.850788 -0.14291,2.289857 -0.3435,2.686955 -1.83635,3.63525 -0.7785,0.494527 -2.61493,0.759569 -3.61276,0.52141 z m 2.83914,-1.264571 c 0.98522,-0.60073 1.31174,-1.263694 1.41383,-2.870703 0.12157,-1.913577 -0.17738,-2.942496 -1.08699,-3.741139 -0.68133,-0.598223 -0.80804,-0.634511 -1.9595,-0.561191 -1.30443,0.08306 -1.65854,0.297615 -2.4166,1.464233 -0.31027,0.477496 -0.38988,0.953512 -0.38988,2.331435 0,1.637199 0.0337,1.773267 0.61953,2.5 0.34073,0.422711 0.83573,0.879738 1.1,1.015616 0.7168,0.368566 1.99497,0.30359 2.71961,-0.138251 z"
       style="fill:#000006;fill-opacity:1;stroke:#000005;stroke-width:0.5;stroke-miterlimit:4;stroke-dasharray:none;stroke-opacity:1" />
    <path
       inkscape:connector-curvature="0"
       id="path6185"
       d="m 159.81514,55.874138 c -2.08752,-1.088481 -2.98276,-4.087858 -2.02604,-6.787965 0.35934,-1.014171 0.57366,-1.297759 1.39662,-1.848012 0.75507,-0.504864 1.18352,-0.65 1.91881,-0.65 1.01939,0 2.09941,0.428213 2.28234,0.904914 0.0623,0.162297 0.25106,0.295086 0.41951,0.295086 0.25637,0 0.30627,-0.356535 0.30627,-2.188197 0,-1.255998 0.086,-2.241326 0.20179,-2.312909 0.11099,-0.06859 0.38099,-0.06784 0.6,0.0017 0.38649,0.122666 0.39821,0.311456 0.39821,6.412909 v 6.286523 h -0.62331 c -0.5586,0 -0.6133,-0.05241 -0.52682,-0.504774 0.14002,-0.732469 -0.21722,-0.826346 -0.79077,-0.207802 -0.87913,0.948108 -2.39649,1.203468 -3.55661,0.598553 z m 2.90548,-0.990099 c 0.94401,-0.488164 1.45994,-1.730562 1.45211,-3.496768 -0.007,-1.612513 -0.39264,-2.646785 -1.27015,-3.407847 -0.66403,-0.575913 -2.35446,-0.543259 -3.04062,0.05874 -1.61591,1.4177 -1.62766,5.171907 -0.0206,6.573902 0.73655,0.642558 1.94237,0.75646 2.87925,0.271976 z"
       style="fill:#000006;fill-opacity:1;stroke:#000005;stroke-width:0.5;stroke-miterlimit:4;stroke-dasharray:none;stroke-opacity:1" />
    <path
       inkscape:connector-curvature="0"
       id="path6189"
       d="m 187.74683,55.961663 c -0.2388,-0.08834 -0.43418,-0.253513 -0.43418,-0.367058 0,-0.113544 -0.10951,-0.183944 -0.24335,-0.156444 -0.13384,0.0275 -0.40856,-0.265 -0.61047,-0.65 -0.54796,-1.044809 -0.35644,-2.054461 0.55225,-2.911472 0.40365,-0.380686 0.81041,-0.644872 0.90392,-0.58708 0.0935,0.05779 0.22132,0.02206 0.28403,-0.07941 0.0627,-0.101468 0.29441,-0.137313 0.51489,-0.07966 0.22048,0.05766 0.53561,-0.007 0.7003,-0.143676 0.1745,-0.144829 0.54367,-0.199657 0.88487,-0.131418 0.34636,0.06927 0.61522,0.02773 0.65838,-0.101722 0.0401,-0.120346 0.38342,-0.22933 0.76289,-0.242187 0.65541,-0.02221 1.39229,-0.504865 1.39229,-0.911945 0,-0.378359 -0.85688,-1.627803 -1.26683,-1.8472 -0.23167,-0.123989 -0.95077,-0.239028 -1.598,-0.255643 -1.01791,-0.02613 -1.24821,0.03957 -1.70597,0.486681 -0.29106,0.28429 -0.6192,0.666922 -0.7292,0.850293 -0.29274,0.488011 -1.28999,0.259369 -1.15303,-0.26436 0.0548,-0.209662 0.19419,-0.381203 0.30969,-0.381203 0.11551,0 0.14981,-0.0602 0.0762,-0.13377 -0.17966,-0.179666 0.47377,-0.885721 0.69383,-0.749711 0.0953,0.0589 0.17327,0.01178 0.17327,-0.104716 0,-0.116492 0.0675,-0.192683 0.15,-0.169313 0.0825,0.02337 0.36304,-0.07543 0.62341,-0.219562 0.619,-0.342648 3.855,-0.237699 3.97723,0.128988 0.0459,0.137817 0.16584,0.199704 0.26645,0.137526 0.1006,-0.06218 0.18291,-0.01243 0.18291,0.110558 0,0.122983 0.09,0.167983 0.2,0.1 0.17987,-0.111164 0.28663,0.151346 0.22369,0.55 -0.013,0.0825 0.0566,0.15 0.15463,0.15 0.32196,0 0.40852,0.872842 0.4312,4.347842 0.0157,2.412647 0.0918,3.45779 0.25643,3.525018 0.12873,0.05256 -0.0584,0.102666 -0.41595,0.11135 -0.41898,0.01018 -0.65,-0.07982 -0.65,-0.253213 0,-0.147951 -0.16709,-0.420222 -0.37132,-0.605046 -0.33019,-0.298822 -0.39916,-0.302499 -0.62266,-0.0332 -0.13824,0.166564 -0.33114,0.253523 -0.42868,0.193242 -0.0975,-0.06028 -0.17734,-0.03594 -0.17734,0.05409 0,0.594859 -2.84269,1.048889 -3.96582,0.633415 z m 3.1605,-0.837015 c 0.16207,-0.0017 0.52115,-0.213154 0.79796,-0.469821 0.2768,-0.256666 0.57701,-0.466666 0.66712,-0.466666 0.0901,0 0.10823,-0.09 0.0402,-0.2 -0.068,-0.11 -0.0187,-0.2 0.1096,-0.2 0.12826,0 0.18475,-0.126252 0.12554,-0.280561 -0.0592,-0.154308 0.0183,-0.446808 0.17224,-0.65 0.34886,-0.46045 0.37313,-1.196076 0.0461,-1.398168 -0.31384,-0.193963 -0.99655,-0.254113 -1.24342,-0.10955 -0.10444,0.06116 -0.37444,0.128853 -0.6,0.150424 -0.22555,0.02157 -0.8826,0.171978 -1.4601,0.334239 -0.5775,0.162262 -1.05,0.251009 -1.05,0.197216 0,-0.05379 -0.25429,0.193449 -0.56509,0.549425 -0.3108,0.355976 -0.55386,0.799671 -0.54014,0.98599 0.0742,1.007448 1.46168,1.900952 2.60523,1.67774 0.33,-0.06441 0.73261,-0.118533 0.89468,-0.120268 z"
       style="fill:#000006;fill-opacity:1;stroke:#000005;stroke-width:0.5;stroke-miterlimit:4;stroke-dasharray:none;stroke-opacity:1" />
    <path
       inkscape:connector-curvature="0"
       id="path6191"
       d="m 196.91265,51.347283 v -4.559122 h 0.55638 c 0.45852,0 0.56415,0.0939 0.60057,0.533898 0.0622,0.751255 0.16309,0.785047 0.72612,0.243146 0.27261,-0.262374 0.54866,-0.45133 0.61344,-0.419902 0.0648,0.03143 0.25599,-0.08107 0.42492,-0.25 0.41078,-0.410778 2.53433,-0.422815 2.94048,-0.01667 0.15976,0.159762 0.34619,0.234762 0.41428,0.166667 0.0681,-0.0681 0.12381,-0.0038 0.12381,0.142857 0,0.146666 0.0597,0.206989 0.13262,0.134051 0.0729,-0.07294 0.31634,0.159562 0.5409,0.516667 0.36441,0.579521 0.41694,1.052192 0.48895,4.399282 l 0.0807,3.75 h -0.72157 -0.72157 v -3.409932 c 0,-3.660874 -0.14547,-4.327739 -1.05207,-4.822819 -0.54018,-0.294986 -1.94793,-0.402149 -1.94793,-0.148284 0,0.09957 -0.12991,0.181035 -0.2887,0.181035 -0.15879,0 -0.57605,0.342249 -0.92723,0.760554 l -0.63853,0.760554 0.0394,3.346533 0.0394,3.346534 -0.71221,-0.04796 -0.71222,-0.04797 z"
       style="fill:#000006;fill-opacity:1;stroke:#000005;stroke-width:0.5;stroke-miterlimit:4;stroke-dasharray:none;stroke-opacity:1" />
    <path
       inkscape:connector-curvature="0"
       id="path6193"
       d="m 208.25761,55.895821 c -1.37936,-0.718629 -1.83316,-1.821216 -1.33626,-3.246632 0.4207,-1.206835 1.05803,-1.445347 5.7706,-2.159595 1.04821,-0.158868 1.064,-1.36397 0.0321,-2.451433 -0.36484,-0.384489 -0.63415,-0.45 -1.84993,-0.45 -1.40108,0 -1.43415,0.01215 -2.15354,0.791389 -0.56123,0.607929 -0.8336,0.764455 -1.17488,0.675207 -0.34361,-0.08986 -0.41499,-0.212535 -0.31502,-0.541389 0.35443,-1.165852 1.881,-1.925207 3.87036,-1.925207 1.55435,0 2.29631,0.249411 2.96135,0.995458 0.39494,0.443049 0.45258,0.736112 0.47296,2.404542 0.0378,3.098567 0.15309,5.304224 0.29671,5.678512 0.11452,0.298431 0.0335,0.341197 -0.54239,0.286176 -0.57058,-0.05452 -0.68699,-0.151173 -0.74032,-0.614688 -0.0642,-0.55789 -0.31021,-0.716491 -0.53848,-0.347142 -0.54356,0.87949 -3.66235,1.473163 -4.75328,0.904802 z m 2.9957,-0.808564 c 1.36446,-0.405203 2.0213,-1.257066 2.10101,-2.724821 0.0558,-1.027229 0.0364,-1.07445 -0.44167,-1.078262 -0.275,-0.0022 -0.59,0.04276 -0.7,0.09989 -0.11,0.05713 -0.785,0.214888 -1.5,0.350566 -0.715,0.135678 -1.435,0.278518 -1.6,0.317422 -0.165,0.0389 -0.49927,0.363971 -0.74284,0.722373 -0.39473,0.580851 -0.41536,0.720188 -0.18992,1.282686 0.15025,0.374881 0.53298,0.773 0.94284,0.980737 0.83774,0.424607 0.86501,0.42524 2.13058,0.04941 z"
       style="fill:#000006;fill-opacity:1;stroke:#000005;stroke-width:0.5;stroke-miterlimit:4;stroke-dasharray:none;stroke-opacity:1" />
    <path
       inkscape:connector-curvature="0"
       id="path6195"
       d="m 219.1884,55.749563 c -0.83543,-0.447766 -1.60659,-1.315261 -1.5168,-1.706282 0.0322,-0.140316 -0.0504,-0.25512 -0.18351,-0.25512 -0.13316,0 -0.18288,-0.05922 -0.1105,-0.131599 0.0724,-0.07238 0.0317,-0.251899 -0.0903,-0.398934 -0.12202,-0.147035 -0.17464,-0.44794 -0.11691,-0.668678 0.0577,-0.220738 0.0233,-0.350906 -0.0764,-0.289262 -0.10063,0.0622 -0.17998,-0.405 -0.17828,-1.049724 0.002,-0.869277 0.0559,-1.086268 0.2131,-0.861803 0.16345,0.233458 0.18129,0.198058 0.0804,-0.159598 -0.0713,-0.25289 -0.0245,-0.586268 0.10412,-0.741239 0.12856,-0.154903 0.17568,-0.375584 0.10472,-0.490402 -0.071,-0.114819 -0.0241,-0.208761 0.10418,-0.208761 0.12826,0 0.18536,-0.124667 0.12689,-0.277038 -0.11067,-0.288412 0.57235,-1.007735 1.50648,-1.586534 0.79165,-0.490523 2.58691,-0.455912 3.05277,0.05886 0.19675,0.217406 0.42948,0.350938 0.51717,0.296738 0.0877,-0.0542 0.21599,-0.0071 0.28508,0.104716 0.0691,0.111795 0.25531,0.203263 0.41382,0.203263 0.23263,0 0.28819,-0.404893 0.28819,-2.1 v -2.1 h 0.5 0.5 v 6.3 c 0,6.166666 -0.008,6.3 -0.4,6.3 -0.26872,0 -0.4,-0.133334 -0.4,-0.406277 0,-0.442608 -0.62856,-0.808035 -0.75214,-0.437276 -0.0419,0.125626 -0.36228,0.400594 -0.712,0.611041 -0.85062,0.511868 -2.29876,0.509165 -3.26011,-0.0061 z m 3.48538,-1.15148 c 0.81554,-0.90185 1.23887,-2.007509 1.23887,-3.235685 0,-0.632847 -0.09,-1.206254 -0.2,-1.274237 -0.11,-0.06798 -0.2,-0.286721 -0.2,-0.486082 0,-0.199361 -0.3448,-0.75102 -0.76623,-1.225908 -0.69844,-0.787053 -0.85325,-0.865337 -1.75,-0.88495 -0.8856,-0.01937 -1.05938,0.05424 -1.74149,0.737711 -0.41675,0.417576 -0.69823,0.759229 -0.62552,0.759229 0.0727,0 0.0393,0.1125 -0.0743,0.25 -0.28488,0.344857 -0.27961,4.15 0.006,4.15 0.12015,0 0.15663,0.06183 0.0811,0.137401 -0.0756,0.07557 0.18963,0.472312 0.58933,0.881647 0.67691,0.693213 0.80404,0.742755 1.85407,0.722521 0.93892,-0.01809 1.2044,-0.106949 1.58846,-0.531647 z"
       style="fill:#000006;fill-opacity:1;stroke:#000005;stroke-width:0.5;stroke-miterlimit:4;stroke-dasharray:none;stroke-opacity:1" />
    <path
       inkscape:connector-curvature="0"
       id="path6197"
       d="m 228.81265,55.984998 c -0.56075,-0.220329 -1.33034,-0.985928 -1.20117,-1.19494 0.0592,-0.09584 0.0162,-0.230788 -0.0956,-0.299881 -0.28273,-0.174735 -0.2552,-1.570082 0.0367,-1.862016 0.132,-0.132 0.16079,-0.24 0.064,-0.24 -0.0968,0 0.11931,-0.263674 0.48028,-0.585943 0.36096,-0.322268 0.78217,-0.537639 0.93602,-0.478602 0.15385,0.05904 0.27972,0.01723 0.27972,-0.0929 0,-0.110133 0.2025,-0.199097 0.45,-0.197698 0.2475,0.0014 0.99,-0.107039 1.65,-0.240971 0.66,-0.133933 1.38871,-0.257098 1.61936,-0.2737 1.26292,-0.09091 1.43807,-1.312841 0.33064,-2.306675 -0.66425,-0.596116 -0.8872,-0.675954 -1.95,-0.698291 -1.06135,-0.02231 -1.27509,0.04204 -1.85,0.556915 -0.3575,0.320175 -0.65,0.694711 -0.65,0.832303 0,0.137593 -0.1575,0.220018 -0.35,0.183167 -0.1925,-0.03685 -0.4625,-0.07389 -0.6,-0.0823 -0.1375,-0.0084 -0.25,-0.143397 -0.25,-0.299957 0,-0.394444 0.99546,-1.541761 1.21823,-1.404078 0.1,0.06179 0.18177,0.02583 0.18177,-0.0799 0,-0.344392 1.22854,-0.631368 2.70288,-0.631368 1.15719,0 1.54761,0.08214 1.97015,0.414516 0.28984,0.227983 0.52697,0.344983 0.52697,0.26 0,-0.208239 0.49336,0.294966 0.525,0.535484 0.0138,0.1045 0.0469,0.2575 0.0736,0.34 0.0267,0.0825 0.0294,1.371073 0.006,2.863496 -0.0406,2.592853 0.16671,4.09233 0.65492,4.736504 0.14321,0.188956 0.011,0.25 -0.54129,0.25 -0.47459,0 -0.76363,-0.105171 -0.82449,-0.3 -0.31816,-1.018381 -0.27669,-0.976692 -0.6479,-0.651342 -0.74928,0.656716 -1.78011,1.015384 -3.04583,1.059763 -0.715,0.02507 -1.48,-0.02514 -1.7,-0.111584 z m 3.16488,-0.873407 c 0.44563,-0.06259 1.9694,-1.506165 1.82924,-1.732958 -0.0554,-0.08956 -0.009,-0.219363 0.10262,-0.288456 0.1118,-0.06909 0.20326,-0.437539 0.20326,-0.81877 0,-0.563906 -0.0978,-0.730316 -0.52432,-0.892496 -0.31136,-0.118376 -0.616,-0.126613 -0.75,-0.02028 -0.12412,0.09849 -0.67568,0.239424 -1.22568,0.31319 -2.72646,0.365675 -3.77496,1.556448 -2.6,2.952811 0.275,0.326819 0.5,0.550095 0.5,0.496168 0,-0.05393 0.2475,-0.02715 0.55,0.0595 0.3025,0.08665 0.775,0.118174 1.05,0.07005 0.275,-0.04813 0.6642,-0.110571 0.86488,-0.13876 z"
       style="fill:#000006;fill-opacity:1;stroke:#000005;stroke-width:0.5;stroke-miterlimit:4;stroke-dasharray:none;stroke-opacity:1" />
    <path
       inkscape:connector-curvature="0"
       id="path6213"
       d="m 176.81265,55.554792 c -1.30186,-0.488116 -2.29747,-1.412416 -2.95073,-2.739382 -0.55467,-1.126692 -0.64803,-1.548545 -0.71573,-3.234065 -0.11198,-2.787869 0.25068,-3.909399 1.74845,-5.407173 1.39931,-1.399309 2.1939,-1.663726 4.64875,-1.546975 1.47269,0.07004 1.85448,0.1642 2.56069,0.631551 0.82786,0.54785 2.07492,2.229515 1.9446,2.622305 -0.0378,0.113909 -0.31757,0.295047 -0.62174,0.402528 -0.49113,0.173548 -0.60026,0.128777 -0.97501,-0.4 -1.25122,-1.7655 -2.44044,-2.305619 -4.42212,-2.008448 -1.28155,0.192181 -2.6124,1.412445 -3.0135,2.763107 -0.35594,1.198577 -0.397,3.602071 -0.0829,4.849652 0.28033,1.113308 1.37545,2.402004 2.30068,2.707357 0.39328,0.129793 1.33381,0.201023 2.09008,0.15829 1.19575,-0.06757 1.45647,-0.155125 1.99958,-0.671537 0.3435,-0.326613 0.85007,-0.976341 1.12571,-1.443841 0.50416,-0.855084 1.01499,-1.064442 1.63651,-0.670701 0.70221,0.444866 -0.91833,2.873135 -2.44484,3.663423 -0.96828,0.501283 -3.84139,0.694018 -4.82852,0.323909 z"
       style="fill:#000006;fill-opacity:1;stroke:#000005;stroke-width:0.5;stroke-miterlimit:4;stroke-dasharray:none;stroke-opacity:1" />
  </g>
</svg>
