<?xml version="1.0" encoding="UTF-8" standalone="no"?>
<!-- Created with Inkscape (http://www.inkscape.org/) -->

<svg
   xmlns:dc="http://purl.org/dc/elements/1.1/"
   xmlns:cc="http://creativecommons.org/ns#"
   xmlns:rdf="http://www.w3.org/1999/02/22-rdf-syntax-ns#"
   xmlns:svg="http://www.w3.org/2000/svg"
   xmlns="http://www.w3.org/2000/svg"
   xmlns:sodipodi="http://sodipodi.sourceforge.net/DTD/sodipodi-0.dtd"
   xmlns:inkscape="http://www.inkscape.org/namespaces/inkscape"
   width="95.25mm"
   height="68.791664mm"
   viewBox="0 0 95.25 68.791664"
   version="1.1"
   id="svg918"
   inkscape:version="0.92.2 5c3e80d, 2017-08-06"
   sodipodi:docname="CPAP4PC-tile.svg"
   inkscape:export-filename="/Users/kevindick/Documents/GitHub/chazingtheinfinite.github.io/images/project/CPAP4PC-tile.png"
   inkscape:export-xdpi="96"
   inkscape:export-ydpi="96">
  <defs
     id="defs912" />
  <sodipodi:namedview
     id="base"
     pagecolor="#ffffff"
     bordercolor="#666666"
     borderopacity="1.0"
     inkscape:pageopacity="0.0"
     inkscape:pageshadow="2"
     inkscape:zoom="2.49"
     inkscape:cx="147.07046"
     inkscape:cy="136.38813"
     inkscape:document-units="mm"
     inkscape:current-layer="layer1"
     showgrid="false"
     fit-margin-top="0"
     fit-margin-left="0"
     fit-margin-right="0"
     fit-margin-bottom="0"
     showguides="false"
     inkscape:window-width="1680"
     inkscape:window-height="1005"
     inkscape:window-x="0"
     inkscape:window-y="250"
     inkscape:window-maximized="0" />
  <metadata
     id="metadata915">
    <rdf:RDF>
      <cc:Work
         rdf:about="">
        <dc:format>image/svg+xml</dc:format>
        <dc:type
           rdf:resource="http://purl.org/dc/dcmitype/StillImage" />
        <dc:title></dc:title>
      </cc:Work>
    </rdf:RDF>
  </metadata>
  <g
     inkscape:label="Layer 1"
     inkscape:groupmode="layer"
     id="layer1"
     transform="translate(-9.5758815,-59.882449)">
    <rect
       style="fill:#ffe680;fill-opacity:1;stroke:#000000;stroke-width:0.43509191;stroke-miterlimit:4;stroke-dasharray:none;stroke-opacity:1"
       id="rect1463"
       width="94.814911"
       height="68.356575"
       x="9.7934275"
       y="60.099995"
       inkscape:export-xdpi="96"
       inkscape:export-ydpi="96" />
    <g
       id="g1263"
       transform="matrix(0.92477954,0,0,0.92477954,6.9060437,6.817024)">
      <path
         style="fill:#d3e7eb;stroke-width:0.19809829"
         d="m 43.762765,104.38109 c -1.572156,-0.22323 -2.674327,-1.60053 -2.674327,-3.34191 0,-2.186651 1.34165,-3.597584 3.410832,-3.586972 2.255888,0.01157 3.456451,1.470924 3.27671,3.983032 -0.07838,1.0955 -0.195909,1.4838 -0.570236,1.88402 -0.862632,0.92231 -1.985873,1.26872 -3.442979,1.06183 z m 1.593789,-1.87272 c 0.456532,-0.45653 0.535767,-0.66294 0.535767,-1.39569 0,-0.98417 -0.09142,-1.329538 -0.445721,-1.683839 -0.509235,-0.509236 -1.196321,-0.503911 -1.855218,0.01438 -0.450287,0.354196 -0.521961,0.559449 -0.521961,1.494739 0,0.88696 0.08845,1.17262 0.486242,1.57041 0.267432,0.26743 0.672633,0.48624 0.900446,0.48624 0.227813,0 0.633013,-0.21881 0.900445,-0.48624 z m 5.868438,1.86972 c -2.593683,-0.59512 -3.049519,-5.14917 -0.650372,-6.497567 0.602442,-0.338592 1.094867,-0.432665 2.264764,-0.432665 1.318719,0 1.509697,0.04649 1.620125,0.394424 0.204111,0.643098 -0.02689,0.754289 -1.346947,0.648328 -1.34526,-0.107984 -2.332647,0.219683 -2.684194,0.890757 -0.640654,1.222943 -0.361032,3.188903 0.537191,3.776883 0.35891,0.23494 0.93605,0.33161 1.979921,0.33161 1.375432,0 1.477924,0.0296 1.54225,0.44572 0.06302,0.40765 -0.01135,0.44698 -0.870818,0.46044 -0.516848,0.008 -1.118013,0.0414 -1.335921,0.0741 -0.217908,0.0327 -0.693106,-0.009 -1.055999,-0.092 z m -28.361596,-3.33366 v -3.358579 l 0.915385,-0.0728 c 0.510217,-0.04058 0.945824,0.01634 0.984154,0.128625 0.03782,0.110787 0.04933,1.627738 0.02558,3.371004 l -0.04319,3.16957 -0.940967,0.0604 -0.940966,0.0604 z m 3.610615,-0.0794 0.0542,-3.416241 0.843709,-0.01428 c 0.734886,-0.01244 0.892255,0.06409 1.220096,0.59334 0.207013,0.33419 0.737507,1.181452 1.178874,1.882801 l 0.802487,1.27518 0.05745,-1.865352 0.05745,-1.865357 0.831653,-0.0041 c 0.58263,-0.0029 0.849785,0.08486 0.89221,0.293027 0.03331,0.163431 0.06016,1.678883 0.05967,3.367672 l -8.91e-4,3.07052 -0.922759,0.0596 -0.922759,0.0596 -1.202955,-1.84253 -1.202952,-1.84252 -0.0037,1.83241 -0.0037,1.83241 h -0.89612 -0.89612 z m 7.527735,0.009 0.0542,-3.407267 0.821517,-0.05102 0.821518,-0.05102 1.159465,1.823978 1.159465,1.823979 0.05724,-1.733363 c 0.06141,-1.85958 0.0019,-1.771935 1.224202,-1.801715 0.628514,-0.01531 0.732244,0.47539 0.684475,3.237928 -0.06883,3.98061 0.0414,3.56577 -0.94749,3.56577 h -0.863509 l -1.215291,-1.83241 -1.215291,-1.83241 -0.0012,1.83241 -0.0012,1.83241 h -0.89612 -0.89612 l 0.0542,-3.40727 z m 21.944063,0.0455 v -3.373594 h 2.476229 2.476228 v 0.495246 0.495246 h -1.980983 -1.980982 v 0.891442 0.89144 h 1.75978 c 1.575689,0 1.770305,0.0403 1.860388,0.38473 0.05533,0.2116 0.05087,0.43446 -0.0099,0.49524 -0.06079,0.0608 -0.897959,0.11052 -1.860388,0.11052 h -1.749875 v 0.98357 0.98356 l 2.030507,0.0565 c 1.879624,0.0523 2.030507,0.0859 2.030507,0.45265 0,0.37258 -0.150546,0.3995 -2.525753,0.45164 l -2.525753,0.0554 z m 6.339145,0.0172 v -3.344577 l 0.486086,-0.09292 c 0.435024,-0.08316 0.645277,0.153831 2.001476,2.256009 0.833463,1.291918 1.573934,2.385118 1.645491,2.429338 0.07156,0.0442 0.121805,-0.98137 0.111663,-2.2791 l -0.01844,-2.359514 h 0.56119 0.561191 v 3.367674 3.36767 h -0.571512 c -0.525194,0 -0.991024,-0.42791 -1.409471,-1.29472 -0.05448,-0.11285 -0.589342,-0.95442 -1.18859,-1.87014 l -1.08954,-1.66496 -0.05562,2.41491 -0.05562,2.41491 h -0.489149 -0.489148 z m 8.518226,0.48204 v -2.86254 l -1.139065,-0.05941 c -0.987197,-0.05149 -1.139065,-0.112234 -1.139065,-0.455606 0,-0.374315 0.150438,-0.399241 2.723852,-0.451311 l 2.723851,-0.05512 v 0.500836 c 0,0.475008 -0.05619,0.500836 -1.089541,0.500836 h -1.08954 v 2.872425 2.87243 H 71.298426 70.80318 Z m 4.358163,-0.47212 c 0,-1.834057 0.04667,-3.381318 0.103704,-3.438356 0.05704,-0.05704 0.324471,-0.0615 0.594295,-0.0099 l 0.49059,0.09378 v 3.344576 3.34458 h -0.594294 -0.594295 v -3.33466 z m 4.465323,2.69084 c -0.598455,-1.4333 -2.286242,-5.830668 -2.286242,-5.956591 0,-0.07421 0.24953,-0.134933 0.554513,-0.134933 0.531434,0 0.589445,0.101003 1.393776,2.426704 0.461592,1.33469 0.91014,2.54129 0.996773,2.68134 0.09944,0.16076 0.511268,-0.73387 1.117078,-2.4267 0.924697,-2.583915 0.979899,-2.681344 1.519235,-2.681344 0.307819,0 0.559672,0.04428 0.559672,0.0984 0,0.05412 -0.588616,1.569572 -1.308033,3.367674 -1.192481,2.98045 -1.350876,3.26927 -1.792994,3.26927 -0.359925,0 -0.554267,-0.16599 -0.753778,-0.64382 z m 5.043394,-2.72385 v -3.367674 h 2.462879 c 2.289333,0 2.471746,-0.02793 2.588695,-0.396406 0.176777,-0.556979 0.798348,-0.85591 1.262827,-0.607328 0.505678,0.27063 0.635151,0.892575 0.288762,1.387116 -0.341044,0.486908 -0.908796,0.528326 -1.339408,0.09771 -0.282997,-0.282997 -0.311298,-0.273994 -0.311298,0.09905 0,0.386997 -0.109906,0.410355 -1.931458,0.410478 l -1.931458,1.28e-4 v 0.89134 0.891336 l 1.805361,-2e-5 c 1.746828,-3e-5 1.804633,0.0144 1.782884,0.44569 -0.02128,0.42191 -0.115079,0.44878 -1.755836,0.50296 l -1.73336,0.0572 v 0.98278 0.98278 h 1.980983 1.980983 v 0.49524 0.49525 H 87.245338 84.67006 Z M 51.424178,93.428569 c -0.243661,-0.293592 -0.645089,-1.935335 -0.521939,-2.134599 0.04528,-0.07327 0.418599,-0.187694 0.829592,-0.254278 1.013108,-0.164133 2.560077,-1.25065 3.520634,-2.472729 0.435816,-0.554471 0.897498,-1.011705 1.025959,-1.016073 0.203879,-0.0069 0.855975,1.774885 0.855975,2.338906 0,0.406443 -2.274272,2.652005 -3.256504,3.215397 -1.06258,0.609477 -2.102528,0.746531 -2.453717,0.323376 z m -1.167831,-1.477938 c -0.486916,-1.107895 -0.69768,-2.725643 -0.598595,-4.594605 0.0552,-1.041212 0.166351,-2.052718 0.247002,-2.247789 0.136023,-0.329 0.04808,-0.34334 -1.214792,-0.198099 -3.960133,0.455452 -5.462063,-0.242028 -5.140383,-2.387137 0.151506,-1.010318 0.708431,-1.711782 0.708431,-0.892291 0,0.839075 0.515504,1.311526 1.699163,1.557253 0.605881,0.125781 1.474302,0.18105 1.929826,0.122821 0.455523,-0.05823 1.048508,-0.110398 1.317745,-0.115935 0.448267,-0.0092 0.388727,-0.114418 -0.706436,-1.248182 -1.838879,-1.903693 -2.426761,-2.815351 -3.145783,-4.878315 -0.348304,-0.999324 -0.370489,-1.213207 -0.12584,-1.213207 0.09695,0 0.360464,0.391829 0.585575,0.870731 0.517494,1.100921 2.351206,3.096581 3.88799,4.231366 l 1.183124,0.873637 0.178365,-0.561163 c 0.639161,-2.010902 3.16612,-6.597774 4.624054,-8.393468 1.127486,-1.388692 2.090624,-2.304423 2.930296,-2.78606 1.683978,-0.965934 2.4356,-0.738241 3.189374,0.966176 0.273009,0.617321 0.473045,1.303292 0.444523,1.524379 -0.02852,0.221087 0.02469,0.525016 0.118241,0.675397 0.09355,0.150382 0.165883,0.815149 0.160737,1.477262 -0.0065,0.841157 0.0787,1.268235 0.282945,1.417581 0.248305,0.181563 0.169834,0.421403 -0.521273,1.593261 -0.447469,0.758738 -0.883319,1.507934 -0.968554,1.664879 -0.27272,0.502166 -0.582689,0.445521 -0.691078,-0.126289 -0.05789,-0.305395 -0.16276,-1.246132 -0.233045,-2.090526 -0.121109,-1.454994 -0.106662,-1.535261 0.276331,-1.535261 0.309212,0 0.429491,-0.162835 0.512148,-0.693344 0.05941,-0.381339 0.156636,-1.005349 0.21605,-1.386688 0.07175,-0.460496 0.215115,-0.693344 0.4269,-0.693344 0.279873,0 0.275019,-0.04846 -0.03968,-0.396197 -1.491549,-1.648143 -5.243618,1.918431 -8.300381,7.890029 -0.520287,1.016417 -0.915834,1.878174 -0.878994,1.915014 0.03684,0.03684 0.824681,-0.224582 1.750755,-0.580939 1.315801,-0.506327 1.697603,-0.740842 1.747073,-1.073098 0.05887,-0.395424 0.18708,-0.427483 1.832409,-0.45819 0.973009,-0.01816 1.902823,-0.04044 2.066254,-0.04952 0.643223,-0.03573 0.338809,0.412589 -0.891442,1.312864 -0.708202,0.518249 -1.410573,1.047136 -1.560823,1.175302 -0.208605,0.177941 -0.360802,0.178312 -0.643819,0.0016 -0.237571,-0.148365 -0.495097,-0.167042 -0.717308,-0.05202 -0.19067,0.09869 -0.747821,0.33871 -1.238114,0.533372 -0.490294,0.194663 -0.96544,0.415986 -1.055884,0.49183 -0.231961,0.194519 3.603372,2.013499 5.575244,2.644168 1.838287,0.587942 4.165778,0.940666 5.080641,0.769953 0.761678,-0.14213 1.494416,-0.796858 1.49047,-1.331791 -0.002,-0.275699 -0.0543,-0.33047 -0.158629,-0.166216 -0.1094,0.172244 -0.442881,-0.0467 -1.123226,-0.737427 -0.711274,-0.722132 -1.075988,-0.955884 -1.376632,-0.88231 -0.342276,0.08376 -0.570599,-0.181147 -1.399495,-1.623752 -0.544771,-0.948115 -1.020206,-1.797901 -1.056524,-1.888418 -0.128633,-0.32059 0.415377,-0.154802 2.175547,0.663009 1.510815,0.701954 1.765514,0.88759 1.677835,1.222875 -0.06756,0.258346 0.09821,0.624871 0.478481,1.057984 0.32002,0.364481 0.638405,0.906204 0.707524,1.203829 0.06912,0.297625 0.229931,0.630281 0.357357,0.739235 0.248768,0.212702 0.724454,1.646457 0.831688,2.506768 0.09208,0.73872 -0.57833,1.502256 -1.548374,1.763463 -2.473281,0.66596 -8.596308,-1.442588 -13.448217,-4.631099 l -0.514061,-0.337825 -0.430564,1.636974 c -0.637368,2.423229 -0.644925,2.474873 -0.652736,4.459874 -0.004,1.007825 -0.02134,1.832409 -0.0386,1.832409 -0.01725,0 -0.13913,-0.245147 -0.270814,-0.544771 z M 45.846822,76.259234 c -0.910426,-1.784586 -0.175965,-2.581162 2.381058,-2.58243 1.411076,-6.93e-4 3.672833,0.432176 4.008525,0.767188 0.192609,0.192219 0.823483,2.382124 0.716941,2.488665 -0.04323,0.04323 -0.568768,-0.05411 -1.167868,-0.216301 -1.629626,-0.441183 -4.14368,-0.45128 -4.804298,-0.01929 -0.291583,0.190669 -0.576046,0.346672 -0.632141,0.346672 -0.0561,0 -0.282094,-0.353025 -0.502217,-0.784501 z"
         id="path1281"
         inkscape:connector-curvature="0" />
      <path
         style="fill:#b3d0d7;stroke-width:0.19809829"
         d="m 22.863396,101.01363 v -3.367674 h 0.891442 0.891442 v 3.367674 3.36767 h -0.891442 -0.891442 z m 3.653219,3.11173 c -0.05402,-0.14077 -0.07351,-1.63394 -0.04331,-3.31815 l 0.05491,-3.062205 0.841836,-0.06091 0.841836,-0.06091 1.188671,1.838075 1.188672,1.83807 v -1.826684 -1.826688 h 0.891442 0.891442 v 3.367672 3.36767 h -0.86864 -0.868641 l -1.211391,-1.92585 -1.211392,-1.92584 v 1.92584 1.92585 h -0.79861 c -0.469986,0 -0.839025,-0.10532 -0.896824,-0.25594 z m 7.527735,0 c -0.05402,-0.14077 -0.07351,-1.63394 -0.04331,-3.31815 l 0.05491,-3.062205 0.841836,-0.06091 0.841836,-0.06091 1.188671,1.838075 1.188671,1.83807 v -1.826684 -1.826688 h 0.891443 0.891442 v 3.367672 3.36767 h -0.85562 -0.85562 l -1.224413,-1.92115 -1.224411,-1.92115 v 1.92115 1.92115 h -0.79861 c -0.469987,0 -0.839025,-0.10532 -0.896825,-0.25594 z m 8.915191,0.066 c -0.656856,-0.26602 -1.642779,-1.52751 -1.784578,-2.28336 -0.305479,-1.62835 0.419249,-3.463729 1.604705,-4.063925 0.89195,-0.451595 2.914024,-0.386779 3.586029,0.114946 0.998891,0.745779 1.335806,1.392433 1.411989,2.710089 0.08951,1.54826 -0.484392,2.8006 -1.535603,3.35088 -0.726971,0.38055 -2.533209,0.47485 -3.282542,0.17137 z m 2.460373,-1.66357 c 0.921379,-0.98076 0.633366,-3.137212 -0.455505,-3.410502 -1.284602,-0.322413 -1.974535,0.369386 -1.953196,1.958472 0.02256,1.67996 1.409256,2.51589 2.408701,1.45203 z m 5.183188,1.6001 c -1.668316,-0.84418 -2.109877,-4.06645 -0.766852,-5.596068 0.71143,-0.810275 1.71047,-1.126917 3.294182,-1.044081 1.001324,0.05238 1.138826,0.11048 1.194844,0.504907 0.06072,0.42753 0.0039,0.445721 -1.392134,0.445721 -1.667278,0 -2.222056,0.273237 -2.654059,1.307166 -0.576787,1.380445 -0.155616,2.993965 0.927738,3.554195 0.465661,0.2408 0.984443,0.30953 1.897538,0.25139 1.202042,-0.0765 1.256664,-0.0602 1.256664,0.37509 0,0.4382 -0.0607,0.455 -1.634311,0.45219 -0.908221,-0.002 -1.851696,-0.11292 -2.12361,-0.25051 z m 5.342707,-3.12034 v -3.373769 l 2.426704,0.05562 c 2.276098,0.05217 2.426704,0.08021 2.426704,0.451819 0,0.36523 -0.150965,0.400628 -1.931458,0.452894 l -1.931458,0.0567 v 0.884269 0.884267 h 1.782884 c 1.769677,0 1.782885,0.004 1.782885,0.49525 0,0.49157 -0.01321,0.49524 -1.782885,0.49524 h -1.782884 v 0.9905 0.99049 h 1.980982 1.980983 v 0.49524 0.49525 h -2.476228 -2.476229 z m 6.339145,0.006 v -3.36767 h 0.48977 c 0.406669,0 0.768008,0.41752 2.129557,2.46066 l 1.639786,2.46066 0.05544,-2.46066 0.05544,-2.460664 h 0.489328 0.489327 v 3.367674 3.36767 l -0.54477,-0.004 c -0.47614,-0.003 -0.744428,-0.30714 -2.129557,-2.41163 l -1.584786,-2.407841 -0.05562,2.411631 -0.05562,2.41164 H 62.7741 62.284952 v -3.36767 z m 8.518226,0.49525 v -2.872428 h -1.08954 c -1.030111,0 -1.089541,-0.02701 -1.089541,-0.495246 V 97.64596 h 2.674327 2.674327 v 0.495246 c 0,0.468233 -0.05943,0.495246 -1.089541,0.495246 h -1.08954 v 2.872428 2.87242 H 71.298426 70.80318 Z m 4.358163,-0.49525 v -3.393985 l 0.54477,0.06268 0.54477,0.06268 v 3.268625 3.26862 l -0.54477,0.0627 -0.54477,0.0627 v -3.39398 z m 4.569105,2.92195 c -1.606906,-4.082343 -2.390024,-6.115652 -2.390024,-6.205525 0,-0.06073 0.239324,-0.08221 0.531832,-0.04773 0.488633,0.05759 0.608499,0.27187 1.475652,2.637955 0.519101,1.41641 0.971286,2.64406 1.004856,2.72814 0.03357,0.0841 0.506117,-1.09657 1.050101,-2.62363 0.958334,-2.690218 1.00665,-2.776522 1.55503,-2.777659 0.373891,-7.92e-4 0.532318,0.08286 0.466822,0.24645 -0.05453,0.136193 -0.659255,1.651645 -1.343839,3.367669 -1.112528,2.78873 -1.294093,3.12005 -1.709842,3.12005 -0.298318,0 -0.528064,-0.15986 -0.640588,-0.44572 z m 4.939612,-2.91603 v -3.373594 h 2.490007 c 2.46892,0 2.489471,0.0038 2.426704,0.445721 -0.06005,0.422833 -0.162487,0.448634 -1.994761,0.502419 l -1.931458,0.0567 v 0.884269 0.884265 h 1.782884 c 1.769678,0 1.782885,0.004 1.782885,0.49525 0,0.49157 -0.01321,0.49524 -1.782885,0.49524 h -1.782884 v 0.98357 0.98356 l 2.030507,0.0565 c 1.879624,0.0523 2.030508,0.0859 2.030508,0.45265 0,0.37258 -0.150547,0.3995 -2.525754,0.45164 l -2.525753,0.0554 z m 5.388274,-2.818918 c -0.348713,-0.348713 -0.289844,-1.040391 0.120123,-1.411407 0.323433,-0.292702 0.399625,-0.294574 0.792393,-0.01947 0.717391,0.502484 0.467312,1.668597 -0.357841,1.668597 -0.174327,0 -0.42393,-0.106973 -0.554675,-0.237717 z M 51.682665,93.532384 c -0.325127,-0.234101 -0.689313,-1.205545 -0.689313,-1.838697 0,-0.502617 0.07486,-0.584974 0.531751,-0.584974 0.950268,0 2.215131,-0.798528 3.507065,-2.214065 0.714901,-0.783297 1.321149,-1.295569 1.393913,-1.177835 0.07082,0.114594 0.256414,0.63249 0.412428,1.150885 0.341334,1.134163 0.239693,1.340524 -1.457385,2.958953 -1.512263,1.442179 -3.067998,2.159685 -3.698459,1.705733 z m -1.603162,-2.374146 c -0.408651,-1.2453 -0.498742,-3.726182 -0.202514,-5.576659 0.160186,-1.000638 0.147357,-1.059646 -0.198098,-0.911243 -0.203156,0.08727 -1.216245,0.196318 -2.251308,0.242316 -3.065512,0.136236 -4.166506,-0.525236 -3.863123,-2.320947 0.158513,-0.938227 0.69355,-1.516442 0.69355,-0.749521 0,1.193796 1.916187,1.786369 4.590987,1.419747 l 0.882419,-0.120949 -1.39954,-1.422518 c -0.769747,-0.782383 -1.678519,-1.953689 -2.019495,-2.602903 -1.188136,-2.262187 -1.461215,-4.024824 -0.318592,-2.056404 0.342926,0.590764 0.961819,1.433267 1.375319,1.872225 0.908114,0.964023 3.180074,2.866712 3.423081,2.866712 0.09595,0 0.235965,-0.200575 0.311133,-0.445722 0.33019,-1.076844 2.40487,-5.133732 3.415502,-6.67877 1.219277,-1.864008 3.644424,-4.437064 4.482229,-4.755596 1.417233,-0.538832 2.281694,-0.131668 2.798796,1.318241 0.411088,1.152656 0.373297,1.263908 -0.313035,0.921521 -0.472183,-0.235556 -0.731975,-0.253348 -1.219208,-0.0835 -1.940364,0.676414 -4.852219,4.203859 -6.91692,8.379219 -0.469404,0.949255 -0.808584,1.770798 -0.75373,1.82565 0.05485,0.05485 0.897642,-0.200723 1.872866,-0.567946 1.350369,-0.508487 1.773135,-0.754844 1.773135,-1.033259 0,-0.329398 0.212331,-0.371159 2.145489,-0.421967 1.224701,-0.03219 2.098546,0.01957 2.036112,0.12059 -0.06016,0.09734 -0.624481,0.523863 -1.254048,0.947831 -0.629568,0.423968 -1.189241,0.815424 -1.243718,0.869901 -0.558148,0.558148 -0.810904,0.645707 -1.046209,0.362425 -0.209156,-0.251805 -0.447228,-0.20648 -1.780893,0.339057 -1.761851,0.720688 -1.778683,0.664642 0.548972,1.827994 3.508831,1.753698 7.698414,2.74186 9.310619,2.196016 0.569711,-0.192886 0.887526,-0.458863 1.130909,-0.946448 l 0.338517,-0.678168 0.205772,0.541224 c 0.314862,0.828146 0.466528,2.028077 0.326738,2.58504 -0.330745,1.31779 -3.340373,1.463842 -6.855344,0.332677 -1.943994,-0.625602 -5.850359,-2.502405 -7.43633,-3.572764 -0.497013,-0.33543 -0.940181,-0.609873 -0.984818,-0.609873 -0.157468,0 -0.84441,2.494614 -1.087774,3.950224 -0.13554,0.810697 -0.19231,1.991858 -0.126153,2.624802 0.06615,0.632944 0.08928,1.150807 0.05139,1.150807 -0.03789,0 -0.2371,-0.51258 -0.442684,-1.139065 z m 14.697086,-6.495271 c -0.585484,-0.669275 -0.899164,-0.875454 -1.272689,-0.836515 -0.428155,0.04463 -0.628581,-0.169895 -1.470881,-1.574375 -0.536349,-0.894324 -0.944226,-1.710875 -0.906393,-1.814554 0.03783,-0.103681 0.894562,0.18232 1.903845,0.635555 1.595579,0.716523 1.822203,0.878603 1.736564,1.241983 -0.06083,0.258118 0.04641,0.549055 0.280473,0.760877 0.555012,0.502281 1.000904,1.553358 0.870505,2.052002 -0.06242,0.238712 -0.16996,0.43159 -0.238968,0.428619 -0.06901,-0.003 -0.475115,-0.405087 -0.902456,-0.893592 z m -3.960028,-5.063071 c -0.146948,-0.441165 -0.436728,-3.477088 -0.355228,-3.721587 0.04056,-0.121694 0.190503,-0.221262 0.333197,-0.221262 0.331397,0 0.431371,-0.273718 0.603673,-1.65278 0.077,-0.616328 0.216826,-1.120596 0.310715,-1.120596 0.09389,0 0.318564,0.225658 0.499277,0.501463 0.24812,0.378679 0.299107,0.750239 0.208237,1.517497 -0.09519,0.803705 -0.05354,1.064875 0.199293,1.249751 0.285992,0.209122 0.243716,0.363241 -0.401769,1.46459 -0.396767,0.676981 -0.72423,1.292956 -0.727694,1.368835 -0.0035,0.07588 -0.134729,0.307645 -0.291698,0.51504 -0.223174,0.294869 -0.305585,0.316464 -0.378003,0.09905 z M 45.852066,76.12711 C 45.62906,75.622968 45.4466,75.045585 45.4466,74.844039 c 0,-0.985226 2.423013,-1.425602 4.924816,-0.895072 0.801952,0.170061 1.581683,0.411771 1.732734,0.537132 0.282077,0.234103 0.935789,2.161869 0.784426,2.313232 -0.04643,0.04643 -0.71002,-0.05788 -1.474646,-0.231789 -1.992484,-0.453179 -3.800214,-0.420584 -4.436599,0.08 -0.277024,0.217908 -0.552308,0.396197 -0.611739,0.396197 -0.05943,0 -0.290519,-0.412481 -0.513526,-0.916625 z"
         id="path1279"
         inkscape:connector-curvature="0" />
      <path
         style="fill:#92b7bf;stroke-width:0.19809829"
         d="m 22.995461,104.24923 c -0.07264,-0.0726 -0.132065,-1.58808 -0.132065,-3.36767 v -3.235604 h 0.891442 0.891442 v 3.367674 3.36767 h -0.759377 c -0.417657,0 -0.818806,-0.0594 -0.891442,-0.13207 z m 3.631802,-3.2356 v -3.367674 h 0.77305 c 0.759721,0 0.793862,0.03245 1.980004,1.881934 0.663825,1.03506 1.257332,1.88193 1.318905,1.88193 0.06157,0 0.09337,-0.82458 0.07066,-1.832405 l -0.04129,-1.83241 0.826602,-0.06115 0.826601,-0.06115 -0.05437,3.329775 -0.05437,3.32977 h -0.792393 c -0.782085,0 -0.808478,-0.0245 -2.028824,-1.88193 l -1.236432,-1.88194 -0.0017,1.93146 -0.0017,1.93146 H 27.419613 26.62722 Z m 7.527735,0.012 v -3.379634 h 0.77305 c 0.759721,0 0.793862,0.03245 1.980004,1.881934 0.663825,1.03506 1.245912,1.88193 1.293527,1.88193 0.04762,0 0.08269,-0.82458 0.07794,-1.832405 l -0.0086,-1.83241 0.814483,-0.06092 0.814483,-0.06091 v 3.379065 3.37906 h -0.798958 c -0.791462,0 -0.810509,-0.0177 -2.030507,-1.8918 l -1.231548,-1.89181 -0.09905,1.84228 -0.09905,1.84228 -0.742869,0.0615 -0.742868,0.0615 v -3.37962 z m 8.798573,3.08487 c -2.197586,-0.99543 -2.422231,-4.805759 -0.35853,-6.081197 0.833165,-0.514925 2.727393,-0.560125 3.642474,-0.08692 1.814135,0.938126 2.080076,4.111927 0.474913,5.667707 -0.594025,0.57575 -0.82166,0.66097 -1.911056,0.71541 -0.762557,0.0381 -1.470999,-0.0443 -1.847801,-0.215 z m 2.520608,-1.49454 c 0.397189,-0.32163 0.467667,-0.55732 0.467667,-1.56399 0,-1.47531 -0.400244,-2.019286 -1.485737,-2.019286 -0.845018,0 -1.278505,0.391801 -1.47943,1.337166 -0.410585,1.93181 1.151135,3.33633 2.4975,2.24611 z m 4.98402,1.37721 c -0.916309,-0.55871 -1.31686,-1.45817 -1.32684,-2.9795 -0.01617,-2.464823 0.945856,-3.365726 3.595353,-3.366927 1.502492,-5.94e-4 1.634311,0.03122 1.634311,0.395456 0,0.362383 -0.132066,0.396196 -1.547433,0.396196 -1.297243,0 -1.619491,0.06713 -1.993118,0.41522 -1.190886,1.10948 -1.073184,3.523305 0.215826,4.426165 0.301826,0.21141 0.897284,0.30917 1.883067,0.30917 1.309592,0 1.441658,0.0363 1.441658,0.3962 0,0.36424 -0.131819,0.39613 -1.634311,0.39545 -1.271339,-5.9e-4 -1.775165,-0.0866 -2.268513,-0.38743 z m 5.48761,-2.9795 v -3.367674 h 2.377179 c 2.245114,0 2.37718,0.02201 2.37718,0.396197 0,0.368393 -0.132066,0.396196 -1.881934,0.396196 h -1.881933 v 0.990492 0.990489 h 1.782884 c 1.650818,0 1.782885,0.0293 1.782885,0.3962 0,0.36685 -0.132067,0.3962 -1.782885,0.3962 h -1.782884 v 1.08954 1.08954 l 1.535261,0.0293 c 2.389375,0.0456 2.32218,0.0312 2.390957,0.51544 0.06277,0.44194 0.04222,0.44572 -2.426704,0.44572 h -2.490006 z m 6.339145,0 v -3.367674 h 0.467496 c 0.379216,0 0.781359,0.473984 2.129557,2.510004 l 1.66206,2.51 0.05554,-2.52299 c 0.05457,-2.479009 0.0632,-2.521903 0.495246,-2.460478 0.433916,0.06169 0.439705,0.105544 0.439705,3.331138 0,3.21857 -0.0067,3.26957 -0.436589,3.33072 -0.363352,0.0517 -0.712278,-0.35455 -2.080032,-2.42173 -0.903895,-1.36611 -1.690105,-2.486071 -1.747136,-2.488807 -0.05703,-0.0027 -0.08983,0.953327 -0.07289,2.124587 0.03632,2.51118 -0.02222,2.8229 -0.530109,2.8229 -0.363384,0 -0.382847,-0.17121 -0.382848,-3.36767 z m 8.518226,0.39528 v -2.999935 l -1.040016,0.05597 c -0.945826,0.0509 -1.045818,0.01583 -1.104085,-0.387361 -0.06393,-0.442372 -0.05835,-0.443213 2.572832,-0.387958 2.296654,0.04823 2.645226,0.09878 2.70142,0.391789 0.05357,0.279319 -0.126644,0.346557 -1.061894,0.396197 l -1.126412,0.05978 -0.0252,2.872418 c -0.02474,2.81927 -0.03345,2.8736 -0.470921,2.93573 -0.445395,0.0633 -0.445722,0.0611 -0.445722,-2.93664 z m 4.445613,2.71645 c -0.05402,-0.14077 -0.07351,-1.63394 -0.04331,-3.31815 0.05389,-3.005786 0.06312,-3.063371 0.500628,-3.125507 l 0.445721,-0.0633 v 3.381447 c 0,3.2668 -0.01364,3.38145 -0.402413,3.38145 -0.221329,0 -0.44661,-0.11517 -0.500628,-0.25594 z m 3.4728,-2.86411 c -0.673005,-1.716026 -1.271353,-3.238582 -1.329662,-3.383459 -0.07613,-0.189174 0.04838,-0.245004 0.441811,-0.198099 0.509077,0.06069 0.606898,0.234287 1.383025,2.454368 0.45936,1.31397 0.921952,2.54406 1.027978,2.73352 0.152468,0.27244 0.403193,-0.2271 1.199091,-2.38905 0.856697,-2.327106 1.068257,-2.733525 1.422926,-2.733525 0.229136,0 0.416105,0.08914 0.415489,0.198099 -5.94e-4,0.108954 -0.557767,1.6013 -1.238114,3.316326 -1.661983,4.18955 -1.680159,4.18956 -3.322544,0.002 z m 5.948467,-0.25372 v -3.373769 l 2.424291,0.05562 c 2.125409,0.04876 2.432487,0.09836 2.490756,0.402294 0.05974,0.311619 -0.135309,0.346672 -1.929048,0.346672 h -1.995507 v 0.990492 0.990491 h 1.782884 c 1.650819,0 1.782885,0.0293 1.782885,0.3962 0,0.36685 -0.132066,0.3962 -1.782885,0.3962 h -1.782884 v 1.08954 1.08954 h 1.980983 1.980982 v 0.49524 0.49525 H 87.146289 84.67006 Z m 5.470728,-2.871603 c -0.378764,-0.378764 -0.414085,-0.911114 -0.08245,-1.242744 0.287304,-0.287304 0.627094,-0.31706 0.45581,-0.03992 -0.07053,0.114111 0.07121,0.176973 0.33498,0.148574 0.363192,-0.0391 0.457229,0.04766 0.457229,0.421856 0,0.261173 -0.188348,0.596141 -0.422696,0.751743 -0.369652,0.245438 -0.462877,0.24048 -0.742869,-0.03951 z m 0.753166,-0.214018 c 0.347526,-0.133358 0.435216,-0.870248 0.10356,-0.870248 -0.115385,0 -0.165838,0.07112 -0.11212,0.158033 0.05372,0.08692 0.02736,0.271793 -0.05857,0.410832 -0.122375,0.19801 -0.226884,0.182158 -0.482173,-0.07313 -0.257284,-0.257285 -0.325935,-0.26732 -0.325935,-0.04765 0,0.502819 0.294673,0.644955 0.87524,0.422169 z M 51.420402,92.941122 c -0.118419,-0.299624 -0.272615,-0.789917 -0.342654,-1.08954 -0.110551,-0.472917 -0.06744,-0.544771 0.32683,-0.544771 0.872736,0 2.273519,-0.871951 3.595746,-2.238259 l 1.332644,-1.37707 0.220004,0.56955 c 0.578067,1.496508 0.519103,1.715466 -0.832781,3.092439 -2.024408,2.061978 -3.846423,2.734737 -4.299789,1.587651 z m -1.42958,-2.476228 c -0.302221,-1.258998 -0.301686,-3.463751 0.0012,-4.780645 0.122341,-0.531991 0.183197,-1.006496 0.135233,-1.054457 -0.04796,-0.04796 -0.429851,0.0079 -0.848647,0.124231 -1.017963,0.282663 -3.761084,0.244319 -4.62436,-0.06464 -0.878109,-0.314267 -1.265173,-1.059337 -1.089747,-2.097677 0.158512,-0.938227 0.69355,-1.516442 0.69355,-0.749521 0,1.201286 1.915107,1.786518 4.628943,1.414545 l 0.920374,-0.126151 -1.553373,-1.618029 c -1.545506,-1.609836 -2.487233,-3.16296 -2.737776,-4.515223 -0.107883,-0.58227 -0.04068,-0.528128 0.672298,0.541654 0.842419,1.264002 1.613524,2.047962 3.503295,3.561703 1.096026,0.877938 1.192153,0.916973 1.436212,0.583201 0.143861,-0.196741 0.263174,-0.496676 0.265141,-0.666522 0.002,-0.169845 0.518185,-1.340816 1.147155,-2.602159 3.19525,-6.407791 7.004863,-10.014275 8.603863,-8.145106 0.383518,0.448316 1.05871,2.202219 0.720158,1.870705 -0.139085,-0.136192 -0.574176,-0.247623 -0.96687,-0.247623 -1.992082,0 -5.100599,3.46555 -7.614752,8.489358 -0.510049,1.019184 -0.883698,1.896725 -0.830332,1.950091 0.05336,0.05337 0.928084,-0.21435 1.943819,-0.594925 1.415999,-0.530543 1.846791,-0.777488 1.846791,-1.058649 0,-0.330822 0.209905,-0.372215 2.14549,-0.423086 1.224701,-0.03219 2.098546,0.01957 2.036111,0.12059 -0.06016,0.09734 -0.622967,0.523863 -1.250687,0.947831 -0.627718,0.423968 -1.31563,0.926854 -1.528693,1.117524 -0.467359,0.418237 -0.633021,0.433889 -0.771549,0.07289 -0.08349,-0.217583 -0.432403,-0.146422 -1.699755,0.346672 -0.877084,0.34125 -1.59707,0.67627 -1.59997,0.744489 -0.0088,0.206646 2.611991,1.514866 4.479998,2.23629 3.536312,1.365725 6.690883,1.656122 7.699296,0.708768 0.271518,-0.255107 0.493693,-0.582007 0.493693,-0.726444 0,-0.643687 0.35546,-0.168655 0.582744,0.778772 0.346214,1.443187 0.231483,1.93309 -0.582744,2.488308 -0.628843,0.428804 -0.840777,0.463249 -2.27813,0.370276 -2.921092,-0.188946 -7.452389,-1.91418 -10.965842,-4.175106 -0.801418,-0.515717 -1.479422,-0.909933 -1.506676,-0.876038 -0.08968,0.111545 -0.860753,3.214378 -0.999881,4.023596 -0.07493,0.435816 -0.129537,1.304973 -0.121347,1.931458 0.0082,0.626486 -0.01874,1.139066 -0.05984,1.139066 -0.0411,0 -0.187072,-0.468008 -0.324382,-1.040016 z m 14.730997,-5.928072 c -0.848422,-0.848421 -1.075531,-0.983314 -1.317475,-0.782518 -0.246274,0.204388 -0.451981,-0.02862 -1.305491,-1.478774 -0.557237,-0.946765 -0.973608,-1.760939 -0.925272,-1.809277 0.04834,-0.04834 0.875321,0.261409 1.837744,0.688322 1.509111,0.669414 1.741151,0.836272 1.686575,1.212811 -0.03915,0.270092 0.168622,0.70073 0.544771,1.129141 0.428452,0.487979 0.608052,0.895289 0.608052,1.378984 0,0.377547 -0.02335,0.68645 -0.05188,0.68645 -0.02854,0 -0.513195,-0.461311 -1.077022,-1.025139 z m -3.887378,-5.245026 c -0.05658,-0.201371 -0.160985,-1.044905 -0.232007,-1.874523 -0.118982,-1.389824 -0.09858,-1.516385 0.259519,-1.61003 0.295764,-0.07735 0.428144,-0.356002 0.553889,-1.165932 0.09088,-0.585363 0.155225,-1.175727 0.142989,-1.311919 -0.03425,-0.381204 0.275043,-0.293906 0.599402,0.16918 0.2102,0.300103 0.26085,0.718027 0.180903,1.492637 -0.08502,0.823736 -0.04052,1.132242 0.189887,1.316557 0.261791,0.209418 0.177861,0.442908 -0.645392,1.79544 -0.709501,1.165648 -0.972061,1.463092 -1.04919,1.18859 z M 46.016883,76.404577 c -0.484356,-0.905032 -0.548344,-1.696472 -0.165188,-2.043222 0.610359,-0.552367 1.868443,-0.718371 3.623315,-0.478095 2.401583,0.328822 2.746518,0.524095 3.149004,1.782701 0.186295,0.582566 0.31831,1.07962 0.293362,1.104568 -0.02495,0.02495 -0.579487,-0.08029 -1.232314,-0.233864 -1.690995,-0.397794 -3.883024,-0.40232 -4.670165,-0.0096 -0.790383,0.394295 -0.716617,0.403344 -0.998014,-0.122446 z"
         id="path1277"
         inkscape:connector-curvature="0" />
      <path
         style="fill:#e9b762;stroke-width:0.19809829"
         d="m 22.950846,104.12536 c -0.05402,-0.14077 -0.07351,-1.63394 -0.04331,-3.31815 l 0.05491,-3.062205 0.841917,-0.06092 0.841918,-0.06091 v 3.379065 3.37906 h -0.79861 c -0.469987,0 -0.839025,-0.10532 -0.896825,-0.25594 z m 3.676417,-3.09977 v -3.379634 h 0.779555 c 0.771285,0 0.791777,0.01989 1.931459,1.874797 0.633546,1.031137 1.218761,1.878007 1.300476,1.881937 0.08172,0.004 0.148574,-0.84512 0.148574,-1.886759 V 97.62204 l 0.742868,0.06148 0.742869,0.06148 v 3.26863 3.26862 l -0.744436,0.0616 c -0.742109,0.0614 -0.748301,0.0556 -1.980983,-1.86289 l -1.236547,-1.92446 -0.09905,1.86289 -0.09905,1.86288 -0.742868,0.0615 -0.742869,0.0615 z m 7.527735,0 v -3.379634 h 0.771407 c 0.760475,0 0.787848,0.02658 1.931458,1.875539 0.638028,1.031545 1.226909,1.878415 1.308625,1.881935 0.08172,0.004 0.148574,-0.84586 0.148574,-1.887499 V 97.62204 l 0.742868,0.06148 0.742869,0.06148 v 3.26863 3.26862 l -0.744436,0.0616 c -0.742109,0.0614 -0.7483,0.0556 -1.980983,-1.86289 l -1.236547,-1.92446 -0.09905,1.86289 -0.09905,1.86288 -0.742869,0.0615 -0.742868,0.0615 z m 8.730405,3.00873 c -0.373593,-0.1905 -0.847518,-0.57613 -1.053166,-0.85694 -1.234639,-1.68594 -0.578978,-4.680481 1.170434,-5.345605 0.769491,-0.29256 2.416395,-0.217473 3.180246,0.144998 2.214464,1.050832 2.099121,4.939487 -0.181709,6.126197 -0.736003,0.38294 -2.297651,0.34853 -3.115805,-0.0687 z m 2.569749,-1.403 c 0.339065,-0.27455 0.470642,-0.62861 0.538728,-1.44965 0.07795,-0.93994 0.02489,-1.16217 -0.393681,-1.64878 -0.558391,-0.64917 -1.541137,-0.740159 -2.140061,-0.19814 -0.760856,0.68857 -0.64895,2.97701 0.168912,3.45421 0.526417,0.30715 1.338713,0.23703 1.826102,-0.15764 z m 5.027098,1.37643 c -1.938239,-1.18194 -1.77954,-5.244478 0.237796,-6.087374 0.362367,-0.151407 1.325634,-0.27442 2.148877,-0.27442 1.360034,0 1.4921,0.03507 1.4921,0.396197 0,0.361286 -0.132066,0.396196 -1.49876,0.396196 -0.824319,0 -1.678737,0.09632 -1.898705,0.214044 -0.885715,0.474021 -1.246327,2.590877 -0.654004,3.839107 0.403386,0.85008 1.00607,1.0974 2.674101,1.0974 1.245302,0 1.377368,0.038 1.377368,0.3962 0,0.36424 -0.131819,0.39614 -1.634311,0.39546 -1.249392,-6e-4 -1.778015,-0.0884 -2.244462,-0.37281 z m 5.463559,-2.98803 v -3.373764 h 2.377179 c 2.245114,0 2.37718,0.02201 2.37718,0.396197 0,0.368148 -0.132066,0.396196 -1.865426,0.396196 -1.139737,0 -1.892697,0.08181 -1.935527,0.21031 -0.03856,0.115671 -0.03662,0.561392 0.0043,0.990491 l 0.0744,0.78018 h 1.762078 c 1.63001,0 1.762077,0.0297 1.762077,0.3962 0,0.36685 -0.132067,0.3962 -1.782885,0.3962 h -1.782884 v 1.20019 1.2002 l 1.931458,-0.0389 c 1.774974,-0.0358 1.931458,-0.009 1.931458,0.33506 0,0.34324 -0.199667,0.37859 -2.426704,0.42964 l -2.426704,0.0556 z m 6.471211,3.22951 c -0.07264,-0.0726 -0.132066,-1.58808 -0.132066,-3.36767 v -3.235604 h 0.467496 c 0.379246,0 0.781256,0.473952 2.129557,2.510644 l 1.66206,2.51064 0.09905,-2.45889 c 0.08612,-2.137964 0.144295,-2.467536 0.445722,-2.525165 0.319215,-0.06103 0.346672,0.201595 0.346672,3.315915 0,3.24799 -0.01569,3.3822 -0.395444,3.3822 -0.286682,0 -0.845151,-0.67969 -2.030508,-2.47126 -0.899285,-1.35919 -1.701921,-2.473491 -1.783637,-2.476227 -0.08172,-0.0027 -0.148574,1.109327 -0.148574,2.471257 0,1.93146 -0.05811,2.47623 -0.26413,2.47623 -0.145273,0 -0.323562,-0.0594 -0.396198,-0.13207 z m 8.518227,0 c -0.07264,-0.0726 -0.132067,-1.4098 -0.132067,-2.97147 v -2.839411 h -1.104065 c -0.944859,0 -1.094439,-0.04999 -1.037304,-0.346672 0.05949,-0.308916 0.346637,-0.346672 2.636615,-0.346672 2.260121,0 2.577661,0.04055 2.634638,0.336413 0.05395,0.28016 -0.127769,0.346407 -1.086827,0.396197 l -1.151614,0.05978 -0.04172,2.674335 c -0.02295,1.47088 -0.04523,2.78575 -0.04952,2.92195 -0.0083,0.26231 -0.445718,0.33796 -0.66813,0.11555 z m 4.420442,0.0971 c -0.0021,-0.0352 -0.01125,-1.53493 -0.02041,-3.33267 -0.01624,-3.187959 -0.0063,-3.270203 0.404804,-3.332563 0.4175,-0.06334 0.420949,-0.03266 0.36708,3.266093 -0.04881,2.98876 -0.08991,3.33686 -0.401052,3.39661 -0.19067,0.0366 -0.34836,0.0378 -0.350424,0.003 z m 3.380809,-3.07462 c -0.676688,-1.721763 -1.245347,-3.217506 -1.263685,-3.323873 -0.05125,-0.297261 0.794392,-0.357649 0.906058,-0.0647 0.05411,0.141953 0.525172,1.448518 1.046801,2.903473 l 0.948419,2.64539 0.566024,-1.55584 c 1.396738,-3.839249 1.577191,-4.230173 1.952689,-4.230173 0.400158,0 0.654069,0.264763 0.449804,0.469028 -0.07045,0.07045 -0.669751,1.486906 -1.331777,3.147675 -1.642378,4.12009 -1.658574,4.12014 -3.274333,0.009 z m 6.021013,2.85368 c -0.05402,-0.14077 -0.07351,-1.63394 -0.04331,-3.31815 l 0.05491,-3.062205 h 2.37718 c 1.980983,0 2.377179,0.04952 2.377179,0.297148 0,0.239937 -0.371872,0.308065 -1.931458,0.353845 l -1.931458,0.0567 v 0.983318 0.983314 h 1.782884 c 1.650819,0 1.782885,0.0293 1.782885,0.3962 0,0.36685 -0.132066,0.3962 -1.782885,0.3962 h -1.782884 v 1.18859 1.18858 h 1.980983 c 1.848916,0 1.980982,0.0264 1.980982,0.3962 0,0.37424 -0.132066,0.3962 -2.383395,0.3962 -1.765284,0 -2.408869,-0.0664 -2.481611,-0.25594 z m 5.381447,-6.792754 c -0.06614,-0.172341 -0.120244,-0.340198 -0.120244,-0.373015 0,-0.12937 1.170866,0.0083 1.317476,0.154923 0.0859,0.0859 0.0029,0.09736 -0.184449,0.02547 -0.235026,-0.09019 -0.340634,-0.03202 -0.340634,0.187628 0,0.410597 -0.515038,0.414422 -0.672149,0.005 z M 51.636147,93.23827 c -0.206553,-0.258178 -0.405432,-0.817057 -0.540699,-1.519436 -0.06444,-0.334614 0.02087,-0.412371 0.454049,-0.413881 0.84855,-0.003 2.491359,-1.074594 3.629511,-2.367599 0.576878,-0.655369 1.104093,-1.125787 1.171589,-1.045373 0.06749,0.08042 0.232562,0.53206 0.366817,1.003659 0.289907,1.018362 0.162535,1.276165 -1.389071,2.81153 -1.446659,1.431514 -3.192618,2.155537 -3.692196,1.5311 z M 50.09399,90.699703 c -0.288548,-0.46688 -0.309265,-3.307617 -0.03435,-4.709921 l 0.285072,-1.454111 -0.517597,0.130739 c -0.284679,0.07191 -1.364468,0.175545 -2.399531,0.230307 -3.057019,0.161744 -4.167895,-0.501083 -3.863123,-2.305012 0.158513,-0.938227 0.69355,-1.516442 0.69355,-0.749521 0,1.201132 1.915129,1.786514 4.628155,1.414652 l 0.919586,-0.126042 -1.50925,-1.579715 c -1.09393,-1.145002 -1.693712,-1.978958 -2.179576,-3.030545 -0.836658,-1.810839 -0.855248,-2.192958 -0.05161,-1.060801 0.928406,1.307924 1.882635,2.261112 3.668864,3.664852 1.662886,1.306809 1.853467,1.415597 1.853467,1.058013 0,-0.115384 -0.103059,-0.146095 -0.229022,-0.06825 -0.358552,0.221598 -0.07681,-0.86423 0.640504,-2.468464 0.358775,-0.802387 0.716283,-1.352106 0.832591,-1.280224 0.112108,0.06929 0.144847,0.03054 0.07276,-0.08611 -0.13369,-0.216315 0.07016,-0.822791 0.515107,-1.532488 2.206364,-3.519187 3.29617,-4.905069 4.784805,-6.084721 0.853534,-0.676375 1.079897,-0.762257 1.872053,-0.710255 0.76523,0.05023 0.951745,0.148771 1.236884,0.653449 0.184673,0.326863 0.390033,0.777009 0.456353,1.000326 0.108171,0.364231 0.04919,0.397695 -0.572974,0.325062 -0.381456,-0.04453 -0.902771,-0.02846 -1.158475,0.03572 -0.687533,0.17256 -2.297442,1.533661 -3.200977,2.706272 -0.435816,0.565604 -0.883655,1.129847 -0.9952,1.253874 -0.953698,1.060424 -3.756712,6.343032 -3.40505,6.417216 0.132102,0.02787 1.042484,-0.253344 2.023071,-0.624913 1.356993,-0.514198 1.782885,-0.762908 1.782885,-1.041159 0,-0.329398 0.212331,-0.371159 2.145489,-0.421967 1.224701,-0.03219 2.098546,0.01957 2.036112,0.12059 -0.06016,0.09734 -0.622968,0.523863 -1.250688,0.947831 -0.627718,0.423968 -1.31563,0.926854 -1.528693,1.117524 -0.467359,0.418237 -0.633021,0.433889 -0.771549,0.07289 -0.08349,-0.217583 -0.432403,-0.146422 -1.699754,0.346672 -0.877085,0.34125 -1.597071,0.692786 -1.599971,0.781191 -0.0029,0.0884 0.908455,0.596165 2.025234,1.128358 5.405169,2.575791 9.78765,3.121613 10.551957,1.314204 l 0.263159,-0.622316 0.213,0.5564 c 0.422466,1.103574 0.478116,2.086655 0.146751,2.592384 -1.25188,1.91061 -7.293353,0.545087 -13.149578,-2.972134 -1.157665,-0.695287 -2.125739,-1.24233 -2.151278,-1.21565 -0.245517,0.256484 -1.120313,4.257719 -1.143362,5.229624 -0.01638,0.69069 -0.0468,1.256086 -0.06761,1.256439 -0.02081,3.96e-4 -0.09649,-0.09427 -0.168185,-0.210272 z m 0.800313,-6.128233 c 0.06734,-0.108955 0.02803,-0.198099 -0.08736,-0.198099 -0.115384,0 -0.20979,0.08914 -0.20979,0.198099 0,0.108954 0.03931,0.198098 0.08736,0.198098 0.04805,0 0.142452,-0.08914 0.20979,-0.198098 z m 1.485737,-3.961966 c 0,-0.108954 -0.09441,-0.198098 -0.20979,-0.198098 -0.115384,0 -0.154695,0.08914 -0.08736,0.198098 0.06734,0.108954 0.161743,0.198098 0.20979,0.198098 0.04805,0 0.08736,-0.08914 0.08736,-0.198098 z m 1.455048,-3.277166 c -0.06452,-0.16813 -0.159792,-0.263205 -0.211718,-0.211278 -0.05193,0.05193 -0.03565,0.189489 0.03616,0.305692 0.195335,0.316058 0.309505,0.254657 0.175555,-0.09441 z m 0.846969,-1.203932 c 0.02499,-0.17026 -0.0099,-0.254244 -0.0775,-0.186631 -0.06761,0.06761 -0.14338,0.262241 -0.16837,0.432502 -0.02499,0.17026 0.0099,0.254244 0.0775,0.186631 0.06761,-0.06762 0.14338,-0.262241 0.16837,-0.432502 z m 3.204388,-3.631923 c -0.273332,-0.437673 -0.46578,-0.383118 -0.28749,0.0815 0.06452,0.16813 0.210002,0.305691 0.323298,0.305691 0.130381,0 0.117235,-0.142126 -0.03581,-0.387188 z m 1.526084,-1.989992 c 0.06734,-0.108954 0.02803,-0.198098 -0.08736,-0.198098 -0.115385,0 -0.20979,0.08914 -0.20979,0.198098 0,0.108954 0.03931,0.198099 0.08736,0.198099 0.04805,0 0.142452,-0.08915 0.20979,-0.198099 z m 1.485737,0.0062 c 0,-0.105535 -0.133716,-0.14057 -0.297147,-0.07785 -0.163431,0.06271 -0.297148,0.149061 -0.297148,0.191881 0,0.04282 0.133717,0.07785 0.297148,0.07785 0.163431,0 0.297147,-0.08635 0.297147,-0.191881 z m 3.868277,14.064202 c -0.711913,-0.722781 -1.079136,-0.958688 -1.379241,-0.886036 -0.341468,0.08266 -0.562013,-0.171381 -1.335642,-1.538524 -0.509652,-0.900644 -0.896633,-1.667542 -0.859959,-1.704216 0.03667,-0.03667 0.832524,0.273219 1.768556,0.688651 1.449004,0.6431 1.701877,0.825404 1.701877,1.226938 0,0.259384 0.267432,0.776196 0.594294,1.14847 0.415771,0.473537 0.594295,0.883073 0.594295,1.363317 0,0.377547 -0.02564,0.68645 -0.05697,0.68645 -0.03133,0 -0.493579,-0.443273 -1.02721,-0.98505 z m -3.944244,-5.779576 c -0.290303,-1.899023 -0.291672,-2.942191 -0.0039,-2.942191 0.343044,0 0.570142,-0.551163 0.760206,-1.845022 0.117034,-0.796699 0.186658,-0.914923 0.423197,-0.718612 0.195206,0.162006 0.283118,0.658024 0.283118,1.597399 0,0.776221 0.08524,1.362432 0.198098,1.362432 0.332229,0 0.230048,0.297587 -0.575505,1.676093 -0.977654,1.673018 -0.964132,1.66218 -1.085248,0.869901 z M 45.92055,76.131878 c -0.404519,-0.968146 -0.289937,-1.693375 0.318443,-2.015566 0.601698,-0.318653 4.316655,-0.215953 5.285934,0.146129 0.528112,0.19728 0.69563,0.428066 1.030515,1.419719 0.364519,1.079394 0.370066,1.175111 0.06272,1.082026 -2.115959,-0.64085 -4.880159,-0.761806 -5.664525,-0.24787 -0.673683,0.441414 -0.690664,0.435095 -1.033087,-0.384438 z"
         id="path1275"
         inkscape:connector-curvature="0" />
      <path
         style="fill:#79aeb2;stroke-width:0.19809829"
         d="m 22.950846,104.12536 c -0.05402,-0.14077 -0.07351,-1.63394 -0.04331,-3.31815 l 0.05491,-3.062205 0.841917,-0.06092 0.841918,-0.06091 v 3.379065 3.37906 h -0.79861 c -0.469987,0 -0.839025,-0.10532 -0.896825,-0.25594 z m 3.676417,-3.09977 v -3.379634 h 0.779555 c 0.771285,0 0.791777,0.01989 1.931459,1.874797 0.633546,1.031137 1.218761,1.878007 1.300476,1.881937 0.08172,0.004 0.148574,-0.84512 0.148574,-1.886759 V 97.62204 l 0.742868,0.06148 0.742869,0.06148 v 3.26863 3.26862 l -0.744436,0.0616 c -0.742109,0.0614 -0.748301,0.0556 -1.980983,-1.86289 l -1.236547,-1.92446 -0.09905,1.86289 -0.09905,1.86288 -0.742868,0.0615 -0.742869,0.0615 z m 7.527735,0 v -3.379634 h 0.771407 c 0.760475,0 0.787848,0.02658 1.931458,1.875539 0.638028,1.031545 1.226909,1.878415 1.308625,1.881935 0.08172,0.004 0.148574,-0.84586 0.148574,-1.887499 V 97.62204 l 0.742868,0.06148 0.742869,0.06148 v 3.26863 3.26862 l -0.744436,0.0616 c -0.742109,0.0614 -0.7483,0.0556 -1.980983,-1.86289 l -1.236547,-1.92446 -0.09905,1.86289 -0.09905,1.86288 -0.742869,0.0615 -0.742868,0.0615 z m 8.730405,3.00873 c -0.373593,-0.1905 -0.847518,-0.57613 -1.053166,-0.85694 -1.234639,-1.68594 -0.578978,-4.680481 1.170434,-5.345605 0.769491,-0.29256 2.416395,-0.217473 3.180246,0.144998 2.214464,1.050832 2.099121,4.939487 -0.181709,6.126197 -0.736003,0.38294 -2.297651,0.34853 -3.115805,-0.0687 z m 2.569749,-1.403 c 0.339065,-0.27455 0.470642,-0.62861 0.538728,-1.44965 0.07795,-0.93994 0.02489,-1.16217 -0.393681,-1.64878 -0.558391,-0.64917 -1.541137,-0.740159 -2.140061,-0.19814 -0.760856,0.68857 -0.64895,2.97701 0.168912,3.45421 0.526417,0.30715 1.338713,0.23703 1.826102,-0.15764 z m 5.027098,1.37643 c -1.938239,-1.18194 -1.77954,-5.244478 0.237796,-6.087374 0.362367,-0.151407 1.325634,-0.27442 2.148877,-0.27442 1.360034,0 1.4921,0.03507 1.4921,0.396197 0,0.361286 -0.132066,0.396196 -1.49876,0.396196 -0.824319,0 -1.678737,0.09632 -1.898705,0.214044 -0.885715,0.474021 -1.246327,2.590877 -0.654004,3.839107 0.403386,0.85008 1.00607,1.0974 2.674101,1.0974 1.245302,0 1.377368,0.038 1.377368,0.3962 0,0.36424 -0.131819,0.39614 -1.634311,0.39546 -1.249392,-6e-4 -1.778015,-0.0884 -2.244462,-0.37281 z m 5.463559,-2.98803 v -3.373764 h 2.377179 c 2.245114,0 2.37718,0.02201 2.37718,0.396197 0,0.368148 -0.132066,0.396196 -1.865426,0.396196 -1.139737,0 -1.892697,0.08181 -1.935527,0.21031 -0.03856,0.115671 -0.03662,0.561392 0.0043,0.990491 l 0.0744,0.78018 h 1.762078 c 1.63001,0 1.762077,0.0297 1.762077,0.3962 0,0.36685 -0.132067,0.3962 -1.782885,0.3962 h -1.782884 v 1.20019 1.2002 l 1.931458,-0.0389 c 1.774974,-0.0358 1.931458,-0.009 1.931458,0.33506 0,0.34324 -0.199667,0.37859 -2.426704,0.42964 l -2.426704,0.0556 z m 6.471211,3.22951 c -0.07264,-0.0726 -0.132066,-1.58808 -0.132066,-3.36767 v -3.235604 h 0.467496 c 0.379246,0 0.781256,0.473952 2.129557,2.510644 l 1.66206,2.51064 0.09905,-2.45889 c 0.08612,-2.137964 0.144295,-2.467536 0.445722,-2.525165 0.319215,-0.06103 0.346672,0.201595 0.346672,3.315915 0,3.24799 -0.01569,3.3822 -0.395444,3.3822 -0.286682,0 -0.845151,-0.67969 -2.030508,-2.47126 -0.899285,-1.35919 -1.701921,-2.473491 -1.783637,-2.476227 -0.08172,-0.0027 -0.148574,1.109327 -0.148574,2.471257 0,1.93146 -0.05811,2.47623 -0.26413,2.47623 -0.145273,0 -0.323562,-0.0594 -0.396198,-0.13207 z m 8.518227,0 c -0.07264,-0.0726 -0.132067,-1.4098 -0.132067,-2.97147 v -2.839411 h -1.104065 c -0.944859,0 -1.094439,-0.04999 -1.037304,-0.346672 0.05949,-0.308916 0.346637,-0.346672 2.636615,-0.346672 2.260121,0 2.577661,0.04055 2.634638,0.336413 0.05395,0.28016 -0.127769,0.346407 -1.086827,0.396197 l -1.151614,0.05978 -0.04172,2.674335 c -0.02295,1.47088 -0.04523,2.78575 -0.04952,2.92195 -0.0083,0.26231 -0.445718,0.33796 -0.66813,0.11555 z m 4.420442,0.0971 c -0.0021,-0.0352 -0.01125,-1.53493 -0.02041,-3.33267 -0.01624,-3.187959 -0.0063,-3.270203 0.404804,-3.332563 0.4175,-0.06334 0.420949,-0.03266 0.36708,3.266093 -0.04881,2.98876 -0.08991,3.33686 -0.401052,3.39661 -0.19067,0.0366 -0.34836,0.0378 -0.350424,0.003 z m 3.380809,-3.07462 c -0.676688,-1.721763 -1.245347,-3.217506 -1.263685,-3.323873 -0.05125,-0.297261 0.794392,-0.357649 0.906058,-0.0647 0.05411,0.141953 0.525172,1.448518 1.046801,2.903473 l 0.948419,2.64539 0.566024,-1.55584 c 1.408937,-3.872778 1.574899,-4.230173 1.964379,-4.230173 0.208383,0 0.375901,0.111431 0.372262,0.247623 -0.0036,0.136193 -0.560793,1.629359 -1.238114,3.31815 -1.675005,4.17632 -1.684254,4.17649 -3.302144,0.06 z m 6.021013,2.85368 c -0.05402,-0.14077 -0.07351,-1.63394 -0.04331,-3.31815 l 0.05491,-3.062205 h 2.37718 c 1.980983,0 2.377179,0.04952 2.377179,0.297148 0,0.239937 -0.371872,0.308065 -1.931458,0.353845 l -1.931458,0.0567 v 0.983318 0.983314 h 1.782884 c 1.650819,0 1.782885,0.0293 1.782885,0.3962 0,0.36685 -0.132066,0.3962 -1.782885,0.3962 h -1.782884 v 1.18859 1.18858 h 1.980983 c 1.848916,0 1.980982,0.0264 1.980982,0.3962 0,0.37424 -0.132066,0.3962 -2.383395,0.3962 -1.765284,0 -2.408869,-0.0664 -2.481611,-0.25594 z m 5.381447,-6.792754 c -0.06614,-0.172341 -0.120244,-0.340198 -0.120244,-0.373015 0,-0.12937 1.170866,0.0083 1.317476,0.154923 0.0859,0.0859 0.0029,0.09736 -0.184449,0.02547 -0.235026,-0.09019 -0.340634,-0.03202 -0.340634,0.187628 0,0.410597 -0.515038,0.414422 -0.672149,0.005 z M 51.636147,93.23827 c -0.206553,-0.258178 -0.405432,-0.817057 -0.540699,-1.519436 -0.06444,-0.334614 0.02087,-0.412371 0.454049,-0.413881 0.84855,-0.003 2.491359,-1.074594 3.629511,-2.367599 0.576878,-0.655369 1.104093,-1.125787 1.171589,-1.045373 0.06749,0.08042 0.232562,0.53206 0.366817,1.003659 0.289907,1.018362 0.162535,1.276165 -1.389071,2.81153 -1.446659,1.431514 -3.192618,2.155537 -3.692196,1.5311 z M 50.09399,90.699703 c -0.42983,-0.695479 -0.120373,-6.313162 0.32667,-5.930135 0.06358,0.05448 0.265174,-0.02509 0.447983,-0.176803 0.182809,-0.151719 0.380175,-0.228059 0.438588,-0.169645 0.05841,0.05841 -0.130913,0.976598 -0.420729,2.040412 -0.289814,1.063814 -0.540337,2.499315 -0.556716,3.190004 -0.01638,0.69069 -0.0468,1.256086 -0.06761,1.256439 -0.02081,3.96e-4 -0.09649,-0.09427 -0.168186,-0.210272 z m 11.893817,-1.502191 c -1.632512,-0.346252 -4.353979,-1.390616 -6.438194,-2.470658 -2.176251,-1.127734 -4.328315,-2.540335 -3.879425,-2.546428 0.208828,-0.0028 0.33296,-0.05188 0.275846,-0.108994 -0.05711,-0.05711 -0.895832,0.08083 -1.863821,0.306531 -1.502924,0.350438 -3.555427,0.502605 -4.89763,0.3631 -0.198587,-0.02064 -0.622022,-0.281297 -0.940967,-0.579237 -0.581935,-0.543607 -0.699281,-1.095632 -0.397191,-1.868487 0.151702,-0.388106 0.157633,-0.387486 0.290508,0.03041 0.178526,0.56148 1.357611,1.108537 2.620471,1.215813 1.09092,0.09267 4.330694,-0.390957 3.407996,-0.50874 -0.855889,-0.109256 -3.246183,-2.77383 -4.05109,-4.515948 -0.834198,-1.805511 -0.851876,-2.186228 -0.04899,-1.055139 0.928406,1.307924 1.882635,2.261112 3.668864,3.664852 1.662886,1.306809 1.853467,1.415597 1.853467,1.058013 0,-0.115384 -0.103059,-0.146095 -0.229022,-0.06825 -0.358552,0.221598 -0.07681,-0.86423 0.640504,-2.468464 0.358775,-0.802387 0.716283,-1.352106 0.832591,-1.280224 0.112108,0.06929 0.144847,0.03054 0.07276,-0.08611 -0.13369,-0.216315 0.07016,-0.822791 0.515107,-1.532488 2.206364,-3.519187 3.29617,-4.905069 4.784805,-6.084721 0.853534,-0.676375 1.079897,-0.762257 1.872053,-0.710255 0.76523,0.05023 0.951745,0.148771 1.236884,0.653449 0.184673,0.326863 0.390033,0.777009 0.456353,1.000326 0.108171,0.364231 0.04919,0.397695 -0.572974,0.325062 -0.381456,-0.04453 -0.902771,-0.02846 -1.158475,0.03572 -0.687533,0.17256 -2.297442,1.533661 -3.200977,2.706272 -0.435816,0.565604 -0.883655,1.129847 -0.9952,1.253874 -0.400456,0.44527 -2.04731,3.228693 -2.863548,4.839813 -0.702976,1.387559 -0.922518,1.660881 -1.412851,1.758948 -0.319301,0.06386 -0.621359,0.182147 -0.671244,0.262863 -0.103837,0.168013 1.038758,0.116991 1.485632,-0.06634 0.163431,-0.06705 1.099445,-0.422039 2.080032,-0.788865 1.231688,-0.460761 1.84334,-0.799099 1.978433,-1.094379 0.177314,-0.387569 0.348174,-0.427422 1.832409,-0.427422 0.900274,0 1.636861,0.03582 1.636861,0.0796 0,0.04378 -0.54569,0.485107 -1.212643,0.980728 -0.918784,0.682759 -1.338827,0.878417 -1.73336,0.807405 -0.321234,-0.05782 -1.157243,0.167385 -2.182267,0.587864 l -1.661549,0.681591 2.255844,1.098818 c 5.51473,2.68621 9.996533,3.284136 10.777294,1.437817 l 0.263159,-0.622316 0.213,0.5564 c 0.372135,0.9721 0.465865,2.043438 0.219114,2.504496 -0.523881,0.978881 -2.274931,1.221688 -4.85856,0.673704 z m -9.21157,-5.418436 c 0.163431,-0.105618 0.208003,-0.19203 0.09905,-0.19203 -0.108954,0 -0.331815,0.08641 -0.495246,0.19203 -0.163431,0.105618 -0.208003,0.192031 -0.09905,0.192031 0.108954,0 0.331814,-0.08641 0.495246,-0.192031 z M 52.38004,80.609504 c 0,-0.108954 -0.09441,-0.198098 -0.20979,-0.198098 -0.115384,0 -0.154695,0.08914 -0.08736,0.198098 0.06734,0.108954 0.161743,0.198098 0.20979,0.198098 0.04805,0 0.08736,-0.08914 0.08736,-0.198098 z m 1.455048,-3.277166 c -0.06452,-0.16813 -0.159792,-0.263205 -0.211718,-0.211278 -0.05193,0.05193 -0.03565,0.189489 0.03616,0.305692 0.195335,0.316058 0.309505,0.254657 0.175555,-0.09441 z m 0.846969,-1.203932 c 0.02499,-0.17026 -0.0099,-0.254244 -0.0775,-0.186631 -0.06761,0.06761 -0.14338,0.262241 -0.16837,0.432502 -0.02499,0.17026 0.0099,0.254244 0.0775,0.186631 0.06761,-0.06762 0.14338,-0.262241 0.16837,-0.432502 z m 3.204388,-3.631923 c -0.273332,-0.437673 -0.46578,-0.383118 -0.28749,0.0815 0.06452,0.16813 0.210002,0.305691 0.323298,0.305691 0.130381,0 0.117235,-0.142126 -0.03581,-0.387188 z m 1.526084,-1.989992 c 0.06734,-0.108954 0.02803,-0.198098 -0.08736,-0.198098 -0.115385,0 -0.20979,0.08914 -0.20979,0.198098 0,0.108954 0.03931,0.198099 0.08736,0.198099 0.04805,0 0.142452,-0.08915 0.20979,-0.198099 z m 1.485737,0.0062 c 0,-0.105535 -0.133716,-0.14057 -0.297147,-0.07785 -0.163431,0.06271 -0.297148,0.149061 -0.297148,0.191881 0,0.04282 0.133717,0.07785 0.297148,0.07785 0.163431,0 0.297147,-0.08635 0.297147,-0.191881 z m 3.868277,14.064202 c -0.711913,-0.722781 -1.079136,-0.958688 -1.379241,-0.886036 -0.341468,0.08266 -0.562013,-0.171381 -1.335642,-1.538524 -0.509652,-0.900644 -0.896633,-1.667542 -0.859959,-1.704216 0.03667,-0.03667 0.832524,0.273219 1.768556,0.688651 1.449004,0.6431 1.701877,0.825404 1.701877,1.226938 0,0.259384 0.267432,0.776196 0.594294,1.14847 0.415771,0.473537 0.594295,0.883073 0.594295,1.363317 0,0.377547 -0.02564,0.68645 -0.05697,0.68645 -0.03133,0 -0.493579,-0.443273 -1.02721,-0.98505 z m -3.944244,-5.779576 c -0.290303,-1.899023 -0.291672,-2.942191 -0.0039,-2.942191 0.343044,0 0.570142,-0.551163 0.760206,-1.845022 0.117034,-0.796699 0.186658,-0.914923 0.423197,-0.718612 0.195206,0.162006 0.283118,0.658024 0.283118,1.597399 0,0.776221 0.08524,1.362432 0.198098,1.362432 0.332229,0 0.230048,0.297587 -0.575505,1.676093 -0.977654,1.673018 -0.964132,1.66218 -1.085248,0.869901 z M 45.92055,76.131878 c -0.404519,-0.968146 -0.289937,-1.693375 0.318443,-2.015566 0.601698,-0.318653 4.316655,-0.215953 5.285934,0.146129 0.528112,0.19728 0.69563,0.428066 1.030515,1.419719 0.364519,1.079394 0.370066,1.175111 0.06272,1.082026 -2.115959,-0.64085 -4.880159,-0.761806 -5.664525,-0.24787 -0.673683,0.441414 -0.690664,0.435095 -1.033087,-0.384438 z"
         id="path1273"
         inkscape:connector-curvature="0" />
      <path
         style="fill:#f39618;stroke-width:0.19809829"
         d="m 22.937258,104.08995 c -0.04654,-0.12129 -0.05992,-1.59853 -0.02972,-3.28274 l 0.05491,-3.062205 0.84676,-0.06115 0.84676,-0.06115 -0.05437,3.322895 -0.05437,3.3229 -0.762674,0.021 c -0.41947,0.0115 -0.800755,-0.0782 -0.847299,-0.19954 z m 3.690005,-3.07293 v -3.371064 h 0.763007 c 0.749588,0 0.783554,0.03306 1.931458,1.879898 0.642648,1.033946 1.23531,1.880816 1.317025,1.881936 0.08172,10e-4 0.148574,-0.85022 0.148574,-1.891859 V 97.62204 l 0.742868,0.06148 0.742869,0.06148 v 3.26716 3.26716 l -0.792393,-0.0107 c -0.783738,-0.0106 -0.805836,-0.0319 -2.023071,-1.95179 l -1.230678,-1.94104 -0.05696,1.94956 -0.05696,1.94956 -0.742868,0.0566 -0.742869,0.0566 v -3.37106 z m 7.527735,-0.0232 v -3.347884 h 0.77453 c 0.768577,0 0.784186,0.01561 2.030508,2.030508 l 1.255977,2.030506 0.05658,-2.042043 0.05658,-2.042045 0.735813,0.06106 0.73581,0.06106 v 3.254788 3.25478 l -0.767803,0.0391 c -0.764335,0.0389 -0.773287,0.0306 -1.980984,-1.84904 l -1.213179,-1.88814 -0.09905,1.86289 -0.09905,1.86288 -0.742869,0.0297 -0.742868,0.0297 z m 8.918495,3.16637 c -1.212819,-0.4839 -1.805513,-1.51692 -1.813373,-3.16059 -0.01004,-2.100361 1.165582,-3.353664 3.14582,-3.353664 1.92771,0 3.015724,0.887611 3.311488,2.701544 0.164525,1.00904 -0.179356,2.3874 -0.75328,3.01931 -0.835949,0.92041 -2.646793,1.28969 -3.890655,0.7934 z m 2.556827,-1.68756 c 0.463804,-0.58963 0.553073,-1.92003 0.183291,-2.73161 -0.328651,-0.72131 -1.413659,-1.045064 -2.067219,-0.616835 -0.870967,0.57068 -1.140208,1.990665 -0.58209,3.069955 0.334514,0.64688 0.545382,0.76293 1.426002,0.78481 0.455504,0.0113 0.742899,-0.1286 1.040016,-0.50632 z m 5.004942,1.57672 c -1.420242,-0.69992 -2.013008,-3.52297 -1.062619,-5.060727 0.630055,-1.01945 1.511101,-1.372399 3.249772,-1.301867 1.183342,0.04801 1.447001,0.119252 1.501676,0.405779 0.05871,0.307672 -0.102777,0.34501 -1.407383,0.325398 -0.810537,-0.01218 -1.663096,0.07921 -1.894578,0.203093 -1.300694,0.696111 -1.381447,3.831094 -0.119975,4.657644 0.323897,0.21222 0.944979,0.31021 1.966162,0.31021 1.36064,0 1.492706,0.0351 1.492706,0.3962 0,0.36251 -0.130563,0.39581 -1.535262,0.39169 -1.011046,-0.003 -1.758992,-0.11477 -2.190499,-0.32742 z m 5.399129,0.15638 c -0.04872,-0.0487 -0.08858,-1.5446 -0.08858,-3.32419 v -3.235604 h 2.377179 c 2.230502,0 2.37718,0.024 2.37718,0.389024 0,0.356155 -0.163186,0.393813 -1.931458,0.445721 l -1.931459,0.0567 -0.06007,0.933393 -0.06007,0.933396 1.840689,0.0571 c 1.552394,0.0482 1.850848,0.11021 1.905539,0.39617 0.05685,0.29722 -0.16287,0.34611 -1.78062,0.39619 l -1.84547,0.0571 v 1.08955 1.08954 l 2.043671,0.0566 c 1.80649,0.05 2.036053,0.096 1.978043,0.39619 -0.05747,0.2974 -0.355828,0.34035 -2.400808,0.34564 -1.284351,0.003 -2.375046,-0.0338 -2.423766,-0.0825 z m 6.338719,-0.0785 c -0.05441,-0.14178 -0.07421,-1.63578 -0.04401,-3.31999 0.05321,-2.967375 0.06787,-3.062205 0.473477,-3.062205 0.315091,0 0.829311,0.612166 2.080032,2.476225 l 1.661462,2.47623 0.09905,-2.474 c 0.08617,-2.152365 0.144119,-2.482613 0.445722,-2.540275 0.319076,-0.061 0.346672,0.199586 0.346672,3.273765 0,3.18428 -0.01824,3.34141 -0.391367,3.36952 -0.294779,0.0222 -0.820359,-0.61395 -2.129557,-2.57757 l -1.73819,-2.607042 -0.09905,2.570192 c -0.0718,1.86324 -0.168676,2.58433 -0.352185,2.62156 -0.139223,0.0282 -0.297646,-0.0646 -0.352052,-0.20641 z m 8.566263,0.12616 c -0.07491,-0.0749 -0.136193,-1.41393 -0.136193,-2.9756 v -2.839411 h -1.104065 c -0.944859,0 -1.094439,-0.04999 -1.037304,-0.346672 0.0595,-0.30894 0.346765,-0.346672 2.639329,-0.346672 2.154115,0 2.572762,0.04833 2.573784,0.297148 7.93e-4,0.216377 -0.295271,0.324071 -1.08954,0.396196 l -1.090761,0.09905 -0.09905,2.856341 c -0.09202,2.65364 -0.235765,3.28005 -0.656201,2.85962 z m 4.420068,-3.23973 c 0,-3.128343 0.02739,-3.391449 0.346672,-3.329962 0.313431,0.06036 0.346672,0.379654 0.346672,3.329962 0,2.9503 -0.03324,3.26959 -0.346672,3.32996 -0.319281,0.0615 -0.346672,-0.20162 -0.346672,-3.32996 z m 4.751185,3.16761 c -0.294823,-0.18221 -2.76319,-6.278166 -2.605854,-6.435502 0.05488,-0.05488 0.248922,-0.09978 0.431205,-0.09978 0.246545,0 0.601412,0.740533 1.38565,2.891562 l 1.054227,2.89157 1.081494,-2.89157 c 0.865424,-2.31386 1.15587,-2.891562 1.45376,-2.891562 0.204745,0 0.372264,0.08604 0.372264,0.191191 0,0.43459 -2.458578,6.334901 -2.674132,6.417611 -0.128822,0.0494 -0.353198,0.0163 -0.498614,-0.0735 z m 4.632961,-0.0922 c -0.04636,-0.12081 -0.05958,-1.59765 -0.02938,-3.28186 l 0.05491,-3.062205 2.327655,-0.05581 c 2.226023,-0.05337 2.327655,-0.03824 2.327655,0.346672 0,0.376336 -0.122266,0.402484 -1.881934,0.402484 H 85.66056 v 0.990492 0.990487 h 1.782884 c 1.650819,0 1.782885,0.0293 1.782885,0.3962 0,0.36685 -0.132066,0.3962 -1.782885,0.3962 H 85.66056 v 1.18859 1.18858 h 1.980983 c 1.818449,0 1.980982,0.0311 1.980982,0.37873 0,0.35307 -0.162375,0.37745 -2.397322,0.35991 -1.556056,-0.0122 -2.426898,-0.0959 -2.481608,-0.23847 z M 51.620593,93.228442 c -0.117518,-0.141599 -0.273542,-0.631892 -0.346724,-1.089541 -0.128457,-0.803334 -0.114727,-0.83209 0.397346,-0.83209 0.68828,0 1.533007,-0.445075 2.496078,-1.315151 0.456798,-0.41269 0.869716,-0.638726 1.009265,-0.55248 0.151109,0.09339 0.18395,0.06146 0.09118,-0.08865 -0.08359,-0.135253 0.104864,-0.519184 0.445012,-0.906591 l 0.59001,-0.671983 0.228955,0.826458 c 0.125925,0.454555 0.273147,0.929632 0.327161,1.05573 0.16415,0.383211 -2.240573,2.776325 -3.340635,3.324509 -1.140677,0.568425 -1.584693,0.62687 -1.897644,0.249786 z m 0.957545,-0.06102 c 0,-0.163952 -0.384653,-0.256666 -0.472843,-0.113972 -0.05721,0.09257 0.02577,0.168314 0.18441,0.168314 0.158637,0 0.288433,-0.02446 0.288433,-0.05434 z m 0.300181,-0.47883 c 0.06901,-0.111652 0.05198,-0.190239 -0.03783,-0.174639 -0.401072,0.06967 -0.671688,-0.03512 -0.559495,-0.216648 0.06734,-0.108954 -0.02181,-0.198099 -0.198098,-0.198099 -0.176292,0 -0.265436,-0.08914 -0.198099,-0.198098 0.06734,-0.108954 -0.0042,-0.198098 -0.158936,-0.198098 -0.20018,0 -0.251256,0.157191 -0.177009,0.54477 0.0574,0.299624 0.141569,0.433461 0.187047,0.297415 0.06332,-0.189418 0.181965,-0.177819 0.506543,0.04953 0.503819,0.352888 0.478144,0.349098 0.63588,0.09387 z m 1.311533,-0.507335 c 0.446296,-0.281734 0.856072,-0.682883 0.91061,-0.891443 0.05454,-0.208557 0.215212,-0.379197 0.357049,-0.379197 0.315681,0 1.18209,-1.353224 0.989631,-1.545682 -0.07598,-0.07598 -0.242155,-0.142205 -0.369267,-0.147157 -0.127113,-0.005 -0.20662,-0.123009 -0.176682,-0.262348 0.02994,-0.13934 -0.03303,-0.199291 -0.139922,-0.133225 -0.223881,0.138364 -0.05871,0.701724 0.205733,0.701724 0.0973,0 0.176903,0.09868 0.176903,0.219292 0,0.121938 -0.144358,0.163897 -0.325166,0.09452 -0.271886,-0.104332 -0.28414,-0.07534 -0.07479,0.176904 0.22962,0.276674 0.213237,0.320775 -0.108267,0.29147 -0.156773,-0.01428 -0.878461,0.925412 -0.878461,1.143833 0,0.09883 -0.308629,0.326862 -0.685844,0.506742 -0.674033,0.321426 -0.985731,0.216095 -0.994958,-0.336217 -0.0016,-0.09987 -0.116692,-0.204618 -0.255608,-0.232765 -0.138917,-0.02815 -0.160648,-0.0057 -0.04829,0.04994 0.112358,0.05561 0.151221,0.186971 0.08637,0.29191 -0.07136,0.115464 -0.247835,0.08923 -0.446955,-0.06644 -0.293907,-0.229778 -0.300202,-0.220464 -0.05897,0.08725 0.148538,0.189469 0.355111,0.291932 0.459053,0.227691 0.103944,-0.06424 0.237956,0.07046 0.297807,0.299328 0.135373,0.517668 0.103199,0.520531 1.08003,-0.09612 z m 0.0226,-0.849681 c -0.02724,-0.122574 0.03962,-0.222861 0.148574,-0.222861 0.108954,0 0.183946,-0.06686 0.166648,-0.148574 -0.06689,-0.315978 0.281506,-0.833187 0.479012,-0.711123 0.115503,0.07139 0.14976,0.03437 0.07706,-0.08327 -0.07199,-0.116484 -0.0189,-0.256935 0.117965,-0.312115 0.174947,-0.07053 0.179321,-0.104975 0.01472,-0.115969 -0.252046,-0.01684 -0.990456,0.920392 -1.091157,1.384954 -0.03377,0.155783 -0.150541,0.356886 -0.259495,0.446896 -0.117496,0.09707 -0.0772,0.127294 0.09905,0.07429 0.163431,-0.04915 0.274862,-0.189655 0.247623,-0.312228 z m 8.072505,-2.105611 c -1.77044,-0.358496 -3.90026,-1.149336 -6.187281,-2.297447 -2.491264,-1.250644 -4.904796,-2.753243 -4.422362,-2.753243 0.206011,0 0.327837,-0.04673 0.270723,-0.103841 -0.05711,-0.05711 -0.895832,0.08083 -1.863821,0.306531 -1.502924,0.350438 -3.555427,0.502605 -4.89763,0.3631 -0.198587,-0.02064 -0.622022,-0.281297 -0.940967,-0.579237 -0.581935,-0.543607 -0.699281,-1.095632 -0.397191,-1.868487 0.151702,-0.388106 0.157633,-0.387486 0.290508,0.03041 0.320006,1.006445 2.610319,1.478277 5.0967,1.049985 1.348306,-0.232255 1.413641,-0.265042 0.836256,-0.41967 -0.866218,-0.231983 -3.086662,-2.675996 -3.815648,-4.199834 -0.954723,-1.995705 -0.947177,-2.325166 0.0233,-1.017149 0.914146,1.232098 2.582631,2.851821 3.921574,3.806965 0.592173,0.422431 0.748496,0.649537 0.669152,0.972152 -0.0914,0.371642 -0.02632,0.415499 0.555551,0.37437 0.362494,-0.02562 0.792795,-0.101446 0.956226,-0.168494 0.163431,-0.06705 1.099445,-0.422039 2.080032,-0.788865 1.231688,-0.460761 1.84334,-0.799099 1.978433,-1.094379 0.177314,-0.387569 0.348174,-0.427422 1.832409,-0.427422 0.900274,0 1.636861,0.03582 1.636861,0.0796 0,0.04378 -0.54569,0.485107 -1.212643,0.980728 -0.918784,0.682759 -1.338827,0.878417 -1.73336,0.807405 -0.320586,-0.0577 -1.151819,0.165214 -2.16277,0.580004 l -1.642052,0.673728 1.741101,0.896395 c 3.505007,1.804528 6.421509,2.713504 8.714746,2.716094 1.507403,0.0018 2.216666,-0.299852 2.548059,-1.08335 l 0.253397,-0.599097 0.213,0.5564 c 1.117952,2.92034 -0.361345,4.012757 -4.342299,3.206651 z M 52.77624,83.779078 c 0.163431,-0.105618 0.208003,-0.19203 0.09905,-0.19203 -0.108954,0 -0.331815,0.08641 -0.495246,0.19203 -0.163431,0.105618 -0.208003,0.192031 -0.09905,0.192031 0.108954,0 0.331814,-0.08641 0.495246,-0.192031 z m 11.990306,0.797835 c -0.707324,-0.718122 -1.08107,-0.95911 -1.379241,-0.889322 -0.340781,0.07976 -0.56207,-0.177233 -1.326653,-1.540702 -0.504706,-0.900038 -0.897894,-1.659251 -0.87375,-1.687139 0.02414,-0.02789 0.818053,0.284114 1.764244,0.693343 1.424138,0.615942 1.704311,0.808976 1.627213,1.121134 -0.05876,0.23792 0.158835,0.671452 0.589618,1.174723 0.481,0.561941 0.682749,0.991983 0.682749,1.455327 0,0.361727 -0.02564,0.657686 -0.05697,0.657686 -0.03133,0 -0.493579,-0.443273 -1.02721,-0.98505 z M 60.872267,78.92567 c -0.01676,-0.326862 -0.04005,-1.040016 -0.05176,-1.584786 -0.01171,-0.54477 -0.107851,-1.052502 -0.213649,-1.128294 -0.105799,-0.07579 -0.13024,-0.199925 -0.05431,-0.275852 0.07593,-0.07593 0.263011,-0.03434 0.415741,0.09241 0.231553,0.192173 0.321058,-0.03659 0.538722,-1.376912 0.23418,-1.442029 0.289404,-1.569814 0.536847,-1.242249 0.194627,0.257651 0.248264,0.729564 0.18222,1.603239 -0.07316,0.96778 -0.03369,1.238115 0.180741,1.238115 0.407405,0 0.352415,0.15887 -0.617106,1.782884 -0.812448,1.360906 -0.889532,1.435805 -0.917444,0.891442 z m 0.657803,-1.416678 c 0.113647,-0.234401 0.163746,-0.546406 0.111331,-0.693344 -0.05242,-0.146935 -0.01508,-0.423159 0.083,-0.613829 0.114042,-0.221731 0.104392,-0.346672 -0.02677,-0.346672 -0.212511,0 -0.276989,0.356739 -0.209901,1.161322 0.02146,0.257387 -0.03932,0.419556 -0.135079,0.360376 -0.09575,-0.05918 -0.187165,0.175953 -0.203136,0.522516 -0.01597,0.346561 0.01662,0.496397 0.07244,0.332965 0.05581,-0.163431 0.194465,-0.48893 0.308115,-0.723334 z M 45.93174,76.158657 c -0.768382,-1.838996 -0.0543,-2.392638 2.870864,-2.225842 2.816015,0.160572 3.277306,0.345492 3.659434,1.466978 0.477944,1.402684 0.461357,1.42792 -0.725814,1.104322 -1.579038,-0.430412 -4.102755,-0.433144 -4.756037,-0.0052 -0.701238,0.459414 -0.716351,0.454509 -1.048447,-0.340309 z"
         id="path1271"
         inkscape:connector-curvature="0" />
      <path
         style="fill:#6396a3;stroke-width:0.19809829"
         d="m 22.937258,104.08995 c -0.04654,-0.12129 -0.05992,-1.59853 -0.02972,-3.28274 l 0.05491,-3.062205 0.84676,-0.06115 0.84676,-0.06115 -0.05437,3.322895 -0.05437,3.3229 -0.762674,0.021 c -0.41947,0.0115 -0.800755,-0.0782 -0.847299,-0.19954 z m 3.690005,-3.07293 v -3.371064 h 0.763007 c 0.749588,0 0.783554,0.03306 1.931458,1.879898 0.642648,1.033946 1.23531,1.880816 1.317025,1.881936 0.08172,10e-4 0.148574,-0.85022 0.148574,-1.891859 V 97.62204 l 0.742868,0.06148 0.742869,0.06148 v 3.26716 3.26716 l -0.792393,-0.0107 c -0.783738,-0.0106 -0.805836,-0.0319 -2.023071,-1.95179 l -1.230678,-1.94104 -0.05696,1.94956 -0.05696,1.94956 -0.742868,0.0566 -0.742869,0.0566 v -3.37106 z m 7.527735,-0.0232 v -3.347884 h 0.77453 c 0.768577,0 0.784186,0.01561 2.030508,2.030508 l 1.255977,2.030506 0.05658,-2.042043 0.05658,-2.042045 0.735813,0.06106 0.73581,0.06106 v 3.254788 3.25478 l -0.767803,0.0391 c -0.764335,0.0389 -0.773287,0.0306 -1.980984,-1.84904 l -1.213179,-1.88814 -0.09905,1.86289 -0.09905,1.86288 -0.742869,0.0297 -0.742868,0.0297 z m 8.918495,3.16637 c -1.212819,-0.4839 -1.805513,-1.51692 -1.813373,-3.16059 -0.01004,-2.100361 1.165582,-3.353664 3.14582,-3.353664 1.92771,0 3.015724,0.887611 3.311488,2.701544 0.164525,1.00904 -0.179356,2.3874 -0.75328,3.01931 -0.835949,0.92041 -2.646793,1.28969 -3.890655,0.7934 z m 2.556827,-1.68756 c 0.463804,-0.58963 0.553073,-1.92003 0.183291,-2.73161 -0.328651,-0.72131 -1.413659,-1.045064 -2.067219,-0.616835 -0.870967,0.57068 -1.140208,1.990665 -0.58209,3.069955 0.334514,0.64688 0.545382,0.76293 1.426002,0.78481 0.455504,0.0113 0.742899,-0.1286 1.040016,-0.50632 z m 5.004942,1.57672 c -1.420242,-0.69992 -2.013008,-3.52297 -1.062619,-5.060727 0.630055,-1.01945 1.511101,-1.372399 3.249772,-1.301867 1.183342,0.04801 1.447001,0.119252 1.501676,0.405779 0.05871,0.307672 -0.102777,0.34501 -1.407383,0.325398 -0.810537,-0.01218 -1.663096,0.07921 -1.894578,0.203093 -1.300694,0.696111 -1.381447,3.831094 -0.119975,4.657644 0.323897,0.21222 0.944979,0.31021 1.966162,0.31021 1.36064,0 1.492706,0.0351 1.492706,0.3962 0,0.36251 -0.130563,0.39581 -1.535262,0.39169 -1.011046,-0.003 -1.758992,-0.11477 -2.190499,-0.32742 z m 5.399129,0.15638 c -0.04872,-0.0487 -0.08858,-1.5446 -0.08858,-3.32419 v -3.235604 h 2.377179 c 2.230502,0 2.37718,0.024 2.37718,0.389024 0,0.356155 -0.163186,0.393813 -1.931458,0.445721 l -1.931459,0.0567 -0.06007,0.933393 -0.06007,0.933396 1.840689,0.0571 c 1.552394,0.0482 1.850848,0.11021 1.905539,0.39617 0.05685,0.29722 -0.16287,0.34611 -1.78062,0.39619 l -1.84547,0.0571 v 1.08955 1.08954 l 2.043671,0.0566 c 1.80649,0.05 2.036053,0.096 1.978043,0.39619 -0.05747,0.2974 -0.355828,0.34035 -2.400808,0.34564 -1.284351,0.003 -2.375046,-0.0338 -2.423766,-0.0825 z m 6.338719,-0.0785 c -0.05441,-0.14178 -0.07421,-1.63578 -0.04401,-3.31999 0.05321,-2.967375 0.06787,-3.062205 0.473477,-3.062205 0.315091,0 0.829311,0.612166 2.080032,2.476225 l 1.661462,2.47623 0.09905,-2.474 c 0.08617,-2.152365 0.144119,-2.482613 0.445722,-2.540275 0.319076,-0.061 0.346672,0.199586 0.346672,3.273765 0,3.18428 -0.01824,3.34141 -0.391367,3.36952 -0.294779,0.0222 -0.820359,-0.61395 -2.129557,-2.57757 l -1.73819,-2.607042 -0.09905,2.570192 c -0.0718,1.86324 -0.168676,2.58433 -0.352185,2.62156 -0.139223,0.0282 -0.297646,-0.0646 -0.352052,-0.20641 z m 8.566263,0.12616 c -0.07491,-0.0749 -0.136193,-1.41393 -0.136193,-2.9756 v -2.839411 h -1.104065 c -0.944859,0 -1.094439,-0.04999 -1.037304,-0.346672 0.0595,-0.30894 0.346765,-0.346672 2.639329,-0.346672 2.154115,0 2.572762,0.04833 2.573784,0.297148 7.93e-4,0.216377 -0.295271,0.324071 -1.08954,0.396196 l -1.090761,0.09905 -0.09905,2.856341 c -0.09202,2.65364 -0.235765,3.28005 -0.656201,2.85962 z m 4.420068,-3.23973 c 0,-3.128343 0.02739,-3.391449 0.346672,-3.329962 0.313431,0.06036 0.346672,0.379654 0.346672,3.329962 0,2.9503 -0.03324,3.26959 -0.346672,3.32996 -0.319281,0.0615 -0.346672,-0.20162 -0.346672,-3.32996 z m 4.751185,3.16761 c -0.294823,-0.18221 -2.76319,-6.278166 -2.605854,-6.435502 0.05488,-0.05488 0.248922,-0.09978 0.431205,-0.09978 0.246545,0 0.601412,0.740533 1.38565,2.891562 l 1.054227,2.89157 1.081494,-2.89157 c 0.865424,-2.31386 1.15587,-2.891562 1.45376,-2.891562 0.204745,0 0.372264,0.08604 0.372264,0.191191 0,0.43459 -2.458578,6.334901 -2.674132,6.417611 -0.128822,0.0494 -0.353198,0.0163 -0.498614,-0.0735 z m 4.632961,-0.0922 c -0.04636,-0.12081 -0.05958,-1.59765 -0.02938,-3.28186 l 0.05491,-3.062205 2.327655,-0.05581 c 2.226023,-0.05337 2.327655,-0.03824 2.327655,0.346672 0,0.376336 -0.122266,0.402484 -1.881934,0.402484 H 85.66056 v 0.990492 0.990487 h 1.782884 c 1.650819,0 1.782885,0.0293 1.782885,0.3962 0,0.36685 -0.132066,0.3962 -1.782885,0.3962 H 85.66056 v 1.18859 1.18858 h 1.980983 c 1.818449,0 1.980982,0.0311 1.980982,0.37873 0,0.35307 -0.162375,0.37745 -2.397322,0.35991 -1.556056,-0.0122 -2.426898,-0.0959 -2.481608,-0.23847 z M 51.620593,93.228442 c -0.117518,-0.141599 -0.273542,-0.631892 -0.346724,-1.089541 -0.128457,-0.803334 -0.114727,-0.83209 0.397346,-0.83209 0.68828,0 1.533007,-0.445075 2.496078,-1.315151 0.456798,-0.41269 0.869716,-0.638726 1.009265,-0.55248 0.151109,0.09339 0.18395,0.06146 0.09118,-0.08865 -0.08359,-0.135253 0.104864,-0.519184 0.445012,-0.906591 l 0.59001,-0.671983 0.228955,0.826458 c 0.125925,0.454555 0.273147,0.929632 0.327161,1.05573 0.16415,0.383211 -2.240573,2.776325 -3.340635,3.324509 -1.140677,0.568425 -1.584693,0.62687 -1.897644,0.249786 z m 0.957545,-0.06102 c 0,-0.163952 -0.384653,-0.256666 -0.472843,-0.113972 -0.05721,0.09257 0.02577,0.168314 0.18441,0.168314 0.158637,0 0.288433,-0.02446 0.288433,-0.05434 z m 0.300181,-0.47883 c 0.06901,-0.111652 0.05198,-0.190239 -0.03783,-0.174639 -0.401072,0.06967 -0.671688,-0.03512 -0.559495,-0.216648 0.06734,-0.108954 -0.02181,-0.198099 -0.198098,-0.198099 -0.176292,0 -0.265436,-0.08914 -0.198099,-0.198098 0.06734,-0.108954 -0.0042,-0.198098 -0.158936,-0.198098 -0.20018,0 -0.251256,0.157191 -0.177009,0.54477 0.0574,0.299624 0.141569,0.433461 0.187047,0.297415 0.06332,-0.189418 0.181965,-0.177819 0.506543,0.04953 0.503819,0.352888 0.478144,0.349098 0.63588,0.09387 z m 1.311533,-0.507335 c 0.446296,-0.281734 0.856072,-0.682883 0.91061,-0.891443 0.05454,-0.208557 0.215212,-0.379197 0.357049,-0.379197 0.315681,0 1.18209,-1.353224 0.989631,-1.545682 -0.07598,-0.07598 -0.242155,-0.142205 -0.369267,-0.147157 -0.127113,-0.005 -0.20662,-0.123009 -0.176682,-0.262348 0.02994,-0.13934 -0.03303,-0.199291 -0.139922,-0.133225 -0.223881,0.138364 -0.05871,0.701724 0.205733,0.701724 0.0973,0 0.176903,0.09868 0.176903,0.219292 0,0.121938 -0.144358,0.163897 -0.325166,0.09452 -0.271886,-0.104332 -0.28414,-0.07534 -0.07479,0.176904 0.22962,0.276674 0.213237,0.320775 -0.108267,0.29147 -0.156773,-0.01428 -0.878461,0.925412 -0.878461,1.143833 0,0.09883 -0.308629,0.326862 -0.685844,0.506742 -0.674033,0.321426 -0.985731,0.216095 -0.994958,-0.336217 -0.0016,-0.09987 -0.116692,-0.204618 -0.255608,-0.232765 -0.138917,-0.02815 -0.160648,-0.0057 -0.04829,0.04994 0.112358,0.05561 0.151221,0.186971 0.08637,0.29191 -0.07136,0.115464 -0.247835,0.08923 -0.446955,-0.06644 -0.293907,-0.229778 -0.300202,-0.220464 -0.05897,0.08725 0.148538,0.189469 0.355111,0.291932 0.459053,0.227691 0.103944,-0.06424 0.237956,0.07046 0.297807,0.299328 0.135373,0.517668 0.103199,0.520531 1.08003,-0.09612 z m 0.0226,-0.849681 c -0.02724,-0.122574 0.03962,-0.222861 0.148574,-0.222861 0.108954,0 0.183946,-0.06686 0.166648,-0.148574 -0.06689,-0.315978 0.281506,-0.833187 0.479012,-0.711123 0.115503,0.07139 0.14976,0.03437 0.07706,-0.08327 -0.07199,-0.116484 -0.0189,-0.256935 0.117965,-0.312115 0.174947,-0.07053 0.179321,-0.104975 0.01472,-0.115969 -0.252046,-0.01684 -0.990456,0.920392 -1.091157,1.384954 -0.03377,0.155783 -0.150541,0.356886 -0.259495,0.446896 -0.117496,0.09707 -0.0772,0.127294 0.09905,0.07429 0.163431,-0.04915 0.274862,-0.189655 0.247623,-0.312228 z m 8.072505,-2.105611 c -2.554346,-0.517231 -6.34137,-2.161369 -9.486126,-4.118408 l -1.370678,-0.852997 0.932577,-0.331222 0.932578,-0.331223 1.51807,0.795472 c 3.387251,1.774923 6.515776,2.755192 8.801422,2.757774 1.507403,0.0018 2.216666,-0.299852 2.548059,-1.08335 l 0.253397,-0.599097 0.213,0.5564 c 1.117952,2.92034 -0.361345,4.012757 -4.342299,3.206651 z m 2.481589,-4.649052 c -0.707324,-0.718122 -1.08107,-0.95911 -1.379241,-0.889322 -0.340781,0.07976 -0.56207,-0.177233 -1.326653,-1.540702 -0.504706,-0.900038 -0.897894,-1.659251 -0.87375,-1.687139 0.02414,-0.02789 0.818053,0.284114 1.764244,0.693343 1.424138,0.615942 1.704311,0.808976 1.627213,1.121134 -0.05876,0.23792 0.158835,0.671452 0.589618,1.174723 0.481,0.561941 0.682749,0.991983 0.682749,1.455327 0,0.361727 -0.02564,0.657686 -0.05697,0.657686 -0.03133,0 -0.493579,-0.443273 -1.02721,-0.98505 z M 48.292137,81.518626 c -1.322203,-1.370218 -2.369873,-3.071747 -2.755291,-4.474891 -0.09889,-0.360022 0.03907,-0.251845 0.505263,0.396196 0.910547,1.265716 2.07655,2.449995 3.564555,3.620435 0.708201,0.557058 1.306389,1.021686 1.329307,1.032506 0.02292,0.01082 -0.0098,0.216353 -0.07263,0.456741 -0.08125,0.310701 -0.264685,0.43707 -0.634443,0.43707 -0.387233,0 -0.882136,-0.375134 -1.936761,-1.468057 z m 12.580127,-2.592958 c -0.01676,-0.326862 -0.04005,-1.040016 -0.05176,-1.584786 -0.01171,-0.54477 -0.107851,-1.052502 -0.213649,-1.128294 -0.105799,-0.07579 -0.13024,-0.199925 -0.05431,-0.275852 0.07593,-0.07593 0.263011,-0.03434 0.415741,0.09241 0.231553,0.192173 0.321058,-0.03659 0.538722,-1.376912 0.23418,-1.442029 0.289404,-1.569814 0.536847,-1.242249 0.194627,0.257651 0.248264,0.729564 0.18222,1.603239 -0.07316,0.96778 -0.03369,1.238115 0.180741,1.238115 0.407405,0 0.352415,0.15887 -0.617106,1.782884 -0.812448,1.360906 -0.889532,1.435805 -0.917444,0.891442 z m 0.657803,-1.416678 c 0.113647,-0.234401 0.163746,-0.546406 0.111331,-0.693344 -0.05242,-0.146935 -0.01508,-0.423159 0.083,-0.613829 0.114042,-0.221731 0.104392,-0.346672 -0.02677,-0.346672 -0.212511,0 -0.276989,0.356739 -0.209901,1.161322 0.02146,0.257387 -0.03932,0.419556 -0.135079,0.360376 -0.09575,-0.05918 -0.187165,0.175953 -0.203136,0.522516 -0.01597,0.346561 0.01662,0.496397 0.07244,0.332965 0.05581,-0.163431 0.194465,-0.48893 0.308115,-0.723334 z m -15.59833,-1.350335 c -0.768382,-1.838996 -0.0543,-2.392638 2.870864,-2.225842 2.816015,0.160572 3.277306,0.345492 3.659434,1.466978 0.477944,1.402684 0.461357,1.42792 -0.725814,1.104322 -1.579038,-0.430412 -4.102755,-0.433144 -4.756037,-0.0052 -0.701238,0.459414 -0.716351,0.454509 -1.048447,-0.340309 z"
         id="path1269"
         inkscape:connector-curvature="0" />
      <path
         style="fill:#326a7f;stroke-width:0.19809829"
         d="m 42.88598,103.94971 c -1.102094,-0.57802 -1.599444,-1.47662 -1.599444,-2.88983 0,-1.950728 0.845234,-3.080647 2.488849,-3.327121 1.285308,-0.192746 2.204997,0.05051 3.022099,0.799325 0.70105,0.642466 0.726654,0.714625 0.786491,2.216636 0.05105,1.28131 -0.0075,1.66314 -0.33496,2.1856 -0.557557,0.8895 -1.210192,1.2586 -2.43089,1.37479 -0.850131,0.0809 -1.225864,0.011 -1.932145,-0.3594 z m 2.709194,-1.4086 c 0.365293,-0.33434 0.445721,-0.61782 0.445721,-1.57102 0,-0.970724 -0.08041,-1.243472 -0.486242,-1.649302 -1.143497,-1.143498 -2.687499,-0.2044 -2.680411,1.630292 0.0037,0.95371 0.360484,1.66832 0.991476,1.98577 0.577966,0.29077 1.113221,0.16829 1.729456,-0.39574 z m 5.204028,1.49321 c -1.114745,-0.56007 -1.588735,-1.46128 -1.588735,-3.02069 0,-2.314417 1.126205,-3.36679 3.603602,-3.367367 0.72901,-1.68e-4 1.369424,0.07081 1.423142,0.157726 0.229317,0.37104 -0.263223,0.535311 -1.605045,0.535311 -1.294379,0 -1.483465,0.05175 -1.971263,0.539553 -0.448758,0.448758 -0.553072,0.751896 -0.619903,1.801437 -0.146761,2.30484 0.807679,3.21929 3.10905,2.97875 1.142445,-0.11941 1.183768,-0.10794 1.07734,0.29904 -0.09901,0.37861 -0.249178,0.42319 -1.424733,0.42291 -0.855579,-2e-4 -1.554592,-0.12116 -2.003455,-0.34667 z m -27.737708,-3.02069 v -3.169575 h 0.792393 0.792393 v 3.169575 3.16957 h -0.792393 -0.792393 z m 3.565769,-0.0428 v -3.236294 l 0.795923,0.0759 c 0.765015,0.07296 0.843864,0.149963 2.030507,1.983065 l 1.234585,1.907169 0.0567,-1.928312 0.0567,-1.928306 h 0.68617 0.686171 v 3.169578 3.16957 h -0.744743 c -0.724046,0 -0.777723,-0.0518 -1.931459,-1.86353 -0.652693,-1.02495 -1.231287,-1.81966 -1.285764,-1.76603 -0.05448,0.0536 -0.09905,0.86993 -0.09905,1.81401 v 1.7165 l -0.742868,0.0615 -0.742869,0.0615 z m 7.527735,0 v -3.236294 l 0.812528,0.07749 c 0.771699,0.07359 0.858798,0.152052 1.73336,1.561405 1.640832,2.644189 1.59997,2.633969 1.607585,0.402086 l 0.0066,-1.931458 0.742868,-2.4e-5 0.742869,-2.2e-5 -0.04397,2.921967 c -0.02419,1.60709 -0.04647,3.0334 -0.04953,3.1696 -0.0034,0.1532 -0.289528,0.24762 -0.750295,0.24762 -0.724047,0 -0.777724,-0.0518 -1.931459,-1.86353 -0.652693,-1.02495 -1.231287,-1.8198 -1.285764,-1.76634 -0.05448,0.0535 -0.09905,0.86976 -0.09905,1.81401 v 1.71681 l -0.742869,0.0615 -0.742868,0.0615 z m 21.790811,0.0428 v -3.169575 h 2.377179 c 1.980983,0 2.37718,0.04952 2.37718,0.297147 0,0.244424 -0.353324,0.297147 -1.991336,0.297147 h -1.991335 l 0.05988,1.040016 0.05988,1.040015 1.782885,0.0991 c 1.201945,0.0668 1.799022,0.17974 1.832409,0.34667 0.03684,0.1842 -0.432514,0.24763 -1.832409,0.24763 h -1.881934 v 1.18859 1.18858 h 2.080032 c 1.716853,0 2.080032,0.0519 2.080032,0.29715 0,0.24828 -0.407203,0.29715 -2.476228,0.29715 h -2.476229 z m 6.339145,0 v -3.169575 h 0.492958 c 0.411222,0 0.772538,0.418603 2.179081,2.524575 0.927367,1.38852 1.693772,2.43596 1.703122,2.32766 0.0093,-0.10831 0.0035,-1.24437 -0.01292,-2.52458 -0.02865,-2.229725 -0.0127,-2.327655 0.3792,-2.327655 0.396361,0 0.409105,0.09873 0.409105,3.169575 0,3.15637 -0.0018,3.16955 -0.445721,3.1646 -0.348568,-0.004 -0.812742,-0.55442 -2.129557,-2.52576 l -1.683835,-2.520777 -0.05544,2.525757 c -0.05185,2.36215 -0.08072,2.52575 -0.445721,2.52575 -0.372037,0 -0.390272,-0.14809 -0.390272,-3.16957 z m 8.518226,0.3075 v -2.862075 l -1.024445,-0.05988 c -0.597227,-0.03491 -1.058475,-0.163142 -1.106048,-0.307501 -0.0625,-0.189639 0.525297,-0.247622 2.510182,-0.247622 2.171744,0 2.591786,0.04816 2.591786,0.297147 0,0.228114 -0.253126,0.297147 -1.089541,0.297147 h -1.08954 v 2.872424 c 0,2.74036 -0.01821,2.87243 -0.396197,2.87243 -0.377914,0 -0.396197,-0.13207 -0.396197,-2.86207 z m 4.556261,-0.3075 c 0,-3.037509 0.0165,-3.169575 0.396197,-3.169575 0.379689,0 0.396196,0.132066 0.396196,3.169575 0,3.0375 -0.0165,3.16957 -0.396196,3.16957 -0.37969,0 -0.396197,-0.13207 -0.396197,-3.16957 z m 4.417435,2.8229 c -0.06951,-0.19067 -0.601581,-1.57321 -1.182371,-3.07232 -0.580791,-1.499101 -1.055983,-2.769407 -1.055983,-2.822899 0,-0.266654 0.768516,-0.05092 0.888507,0.249416 0.07617,0.190669 0.487365,1.313787 0.913756,2.495823 0.42639,1.18203 0.849261,2.28138 0.939715,2.44301 0.113886,0.20351 0.470542,-0.54873 1.159843,-2.44629 0.824616,-2.270065 1.068554,-2.751087 1.421884,-2.803819 l 0.426502,-0.06365 -0.371916,0.955097 c -0.204554,0.525301 -0.758132,1.957962 -1.230172,3.183692 -0.754073,1.95808 -0.914408,2.22861 -1.320817,2.22861 -0.260317,0 -0.517817,-0.15157 -0.588948,-0.34667 z m 5.051217,-2.82318 -0.05898,-3.169844 2.327655,1.98e-4 c 1.911245,1.98e-4 2.327655,0.05215 2.327655,0.290248 0,0.230861 -0.39373,0.301531 -1.931458,0.346672 l -1.931458,0.0567 v 0.990492 0.990484 l 1.584786,0.0385 c 0.871632,0.0212 1.696216,0.0434 1.832409,0.0495 0.136193,0.006 0.247623,0.14478 0.247623,0.30821 0,0.24339 -0.342268,0.29715 -1.891819,0.29715 h -1.891821 l 0.05941,1.13906 0.05941,1.13907 2.030507,0.0564 c 1.625591,0.0452 2.030507,0.11433 2.030507,0.34667 0,0.23879 -0.420273,0.2903 -2.36772,0.2903 H 84.887075 Z M 62.185905,89.191276 C 59.65144,88.624543 55.528147,86.813603 52.913184,85.118722 l -1.34879,-0.874216 0.793235,-0.311592 0.793237,-0.311591 2.277881,1.137351 c 3.71249,1.85366 7.352727,2.813967 9.120286,2.405965 1.039751,-0.240004 1.697887,-0.685699 1.697887,-1.149825 0,-0.617267 0.344013,-0.0081 0.572821,1.014306 0.281383,1.257354 0.10036,1.805009 -0.696811,2.108093 -0.49228,0.187163 -3.176922,0.224029 -3.937025,0.05406 z m 2.497217,-4.838634 c -0.697781,-0.77831 -0.925402,-0.925305 -1.14746,-0.741014 -0.165321,0.137205 -0.34753,0.157405 -0.451922,0.0501 -0.19731,-0.202817 -1.789277,-2.989678 -1.789277,-3.132265 0,-0.05071 0.73544,0.247865 1.634311,0.663495 1.194964,0.552541 1.63431,0.855277 1.63431,1.126135 0,0.203744 0.289719,0.762682 0.64382,1.242084 0.581046,0.786654 0.871931,1.833634 0.495246,1.78253 -0.08172,-0.01109 -0.540278,-0.457064 -1.019028,-0.991065 z m -16.266373,-2.75399 c -0.899743,-0.912328 -1.639604,-1.900091 -2.083596,-2.781741 -0.834067,-1.656235 -0.887647,-2.106322 -0.126188,-1.06003 0.685089,0.941357 2.61857,2.825038 3.765442,3.668459 0.943023,0.693506 1.075757,1.412276 0.28164,1.525129 -0.328417,0.04667 -0.801038,-0.301064 -1.837298,-1.351817 z M 45.9568,76.032853 c -0.486951,-1.217014 -0.413025,-1.542348 0.430767,-1.895705 0.564923,-0.236574 1.146212,-0.284683 2.426704,-0.200839 2.909525,0.190509 3.398408,0.492803 3.876294,2.396855 0.125057,0.498271 0.101074,0.53519 -0.234172,0.36047 -0.489701,-0.255218 -2.772031,-0.641563 -3.757398,-0.63604 -0.426891,0.0024 -1.1483,0.17331 -1.60313,0.379815 l -0.826961,0.375466 z"
         id="path1267"
         inkscape:connector-curvature="0" />
      <path
         style="fill:#03506f;stroke-width:0.19809829"
         d="m 23.061494,101.01363 v -3.169575 l 0.742868,-1.98e-4 0.742869,-1.99e-4 -0.05898,3.169852 -0.05898,3.16969 H 23.745385 23.0615 Z m 3.565769,-0.0321 v -3.137475 l 0.742869,5.94e-4 c 0.723394,5.94e-4 0.776388,0.05243 2.021544,1.980042 0.724455,1.121519 1.353329,1.904849 1.450913,1.807269 0.09473,-0.0947 0.143336,-0.98596 0.108012,-1.9805 l -0.06423,-1.808315 0.643819,3.97e-4 0.64382,3.96e-4 v 3.169572 3.16957 h -0.696993 c -0.660472,0 -0.759922,-0.096 -1.897929,-1.83241 -0.660514,-1.00782 -1.282882,-1.86212 -1.383038,-1.89844 -0.10264,-0.0371 -0.182104,0.75988 -0.182104,1.8265 v 1.89241 l -0.693344,-0.0261 -0.693344,-0.0261 z m 7.527735,0.0123 v -3.149761 h 0.744575 c 0.71318,0 0.789035,0.06791 1.798961,1.610477 0.579912,0.885764 1.101261,1.732634 1.158553,1.881934 0.05729,0.1493 0.227959,0.27146 0.379262,0.27146 0.219743,0 0.262708,-0.37867 0.213538,-1.881938 l -0.06156,-1.881933 h 0.65671 0.65671 v 3.169571 3.16957 h -0.67988 c -0.642373,0 -0.754384,-0.11201 -2.030507,-2.0305 l -1.350628,-2.03051 -0.05624,2.0107 -0.05624,2.0107 H 34.84163 34.154998 v -3.14976 z m 8.555589,2.87055 c -1.235634,-0.5397 -1.83628,-3.01169 -1.105814,-4.551038 0.981377,-2.068099 4.644218,-2.117061 5.673929,-0.07585 0.817062,1.619688 0.200547,4.076208 -1.166343,4.647338 -0.885466,0.36997 -2.530549,0.36008 -3.401772,-0.0204 z m 2.51985,-0.95946 c 1.666738,-0.8619 1.100133,-4.070354 -0.718815,-4.070354 -0.731005,0 -1.61985,0.707843 -1.667784,1.328164 -0.114584,1.48288 0.275674,2.5064 1.079049,2.83 0.602695,0.24277 0.678081,0.2377 1.30755,-0.0878 z m 5.564817,1.13776 c -1.352031,-0.49713 -2.031637,-2.96279 -1.299561,-4.714893 0.494939,-1.184554 2.173505,-1.8702 3.874838,-1.582762 1.221789,0.206421 0.9384,0.495246 -0.485925,0.495246 -2.232462,0 -2.881745,0.642207 -2.881745,2.850339 0,1.16104 0.06327,1.37417 0.579019,1.95042 0.559796,0.62546 0.628855,0.64654 2.080032,0.63472 1.112613,-0.009 1.501013,0.055 1.501013,0.24762 0,0.19339 -0.392653,0.25585 -1.535262,0.24421 -0.844394,-0.009 -1.668978,-0.0648 -1.832409,-0.1249 z m 5.181034,-3.04858 7.93e-4,-3.150025 h 2.355335 c 2.012245,0 2.338725,0.04328 2.24131,0.297147 -0.09016,0.234949 -0.503521,0.297147 -1.974767,0.297147 h -1.860757 v 1.089541 1.08954 h 1.782885 c 1.45272,0 1.782884,0.055 1.782884,0.29715 0,0.24212 -0.330164,0.29715 -1.782884,0.29715 h -1.782885 v 1.18859 1.18858 h 1.980983 c 1.647393,0 1.980983,0.0511 1.980983,0.30356 0,0.25716 -0.361092,0.29959 -2.362326,0.2776 l -2.362326,-0.026 7.92e-4,-3.15002 z m 6.506764,0.0196 c 0,-2.95178 0.02518,-3.169575 0.366461,-3.169575 0.405,0 2.698627,3.254035 2.509417,3.560185 -0.05993,0.097 -0.0046,0.24081 0.122974,0.31965 0.144853,0.0895 0.178867,0.0575 0.09059,-0.0854 -0.07774,-0.12579 -0.09878,-0.22871 -0.04676,-0.22871 0.05202,0 0.287413,0.31201 0.523095,0.69335 0.235681,0.38134 0.510384,0.69334 0.610451,0.69334 0.10082,0 0.181942,-1.10407 0.181942,-2.47623 0,-2.078971 0.04811,-2.476225 0.299857,-2.476225 0.255927,0 0.297478,0.464352 0.283612,3.169575 -0.02124,4.14443 -0.116445,4.16584 -2.51409,0.56541 l -1.734198,-2.604165 -0.05527,2.604165 c -0.04531,2.13485 -0.107787,2.60416 -0.346672,2.60416 -0.244322,0 -0.291397,-0.51204 -0.291397,-3.16957 z m 8.507577,2.92195 c -0.0059,-0.1362 -0.0012,-1.34727 0.0102,-2.69127 0.01214,-1.424185 -0.06463,-2.546636 -0.184041,-2.690519 -0.122617,-0.147743 -0.564216,-0.224865 -1.099739,-0.192058 -0.673508,0.04126 -0.894853,-0.01599 -0.894853,-0.23143 0,-0.234434 0.451218,-0.286248 2.492736,-0.286248 1.906652,0 2.473106,0.05822 2.409247,0.247622 -0.04592,0.136193 -0.387638,0.262229 -0.759376,0.280082 -0.371739,0.01785 -0.83189,0.04014 -1.022559,0.04952 -0.313441,0.01543 -0.346672,0.292415 -0.346672,2.889491 0,2.42121 -0.04668,2.87243 -0.297148,2.87243 -0.163431,0 -0.301939,-0.11143 -0.307797,-0.24762 z m 4.368812,-2.92195 c 0,-2.886473 0.03096,-3.169599 0.346672,-3.169849 0.318187,-1.98e-4 0.341826,0.260181 0.287688,3.169569 -0.04861,2.61218 -0.109596,3.16985 -0.346672,3.16985 -0.239532,0 -0.287688,-0.53056 -0.287688,-3.16957 z m 3.431603,0.008 c -1.029329,-2.711959 -1.154992,-3.178015 -0.856888,-3.178015 0.268439,0 0.563532,0.59705 1.274325,2.578275 0.508744,1.41806 0.862219,2.67985 0.785497,2.80399 -0.08178,0.13233 -0.05188,0.17155 0.07229,0.0948 0.116484,-0.072 0.241686,-0.0427 0.278231,0.0651 0.03655,0.10782 0.545519,-1.09508 1.131056,-2.67309 0.811579,-2.187202 1.146589,-2.869125 1.409521,-2.869125 0.351125,0 0.27771,0.224088 -1.752302,5.348655 -0.23021,0.58114 -0.489301,0.91161 -0.744323,0.9494 -0.335986,0.0498 -0.561412,-0.39052 -1.597411,-3.12005 z m 6.077115,-0.002 v -3.175855 h 2.294637 c 1.748224,0 2.274737,0.05897 2.211057,0.247622 -0.05856,0.173489 -0.641756,0.251092 -1.947966,0.25921 l -1.864384,0.01159 -0.05941,1.127478 -0.05941,1.127475 h 1.891821 c 1.549551,0 1.891819,0.0538 1.891819,0.29715 0,0.24328 -0.341169,0.29715 -1.881934,0.29715 h -1.881934 v 1.18859 1.18859 h 2.09654 c 1.589006,0 2.076643,0.0599 2.014345,0.24762 -0.05803,0.17482 -0.761787,0.26403 -2.393689,0.30343 l -2.31149,0.0558 z M 62.185905,89.113542 c -1.168126,-0.282377 -3.887084,-1.18771 -4.457211,-1.484122 -0.272386,-0.141615 -1.227598,-0.619285 -2.122693,-1.06149 -2.060424,-1.017914 -3.861674,-2.165377 -3.731011,-2.376793 0.05534,-0.08953 0.383255,-0.219319 0.728713,-0.28841 0.507494,-0.101499 1.050493,0.07977 2.827744,0.943976 3.289269,1.599442 5.952126,2.388751 8.078105,2.394468 1.621209,0.0044 1.753455,-0.02755 2.305924,-0.556389 0.664144,-0.635735 0.736361,-0.583532 0.923601,0.667635 0.109658,0.732736 0.06185,0.988776 -0.258453,1.384336 -0.350016,0.432255 -0.563001,0.489866 -1.947658,0.526833 -0.855068,0.02283 -1.911245,-0.04469 -2.347061,-0.150044 z m 2.436482,-4.873754 c -0.705513,-0.705512 -0.987882,-0.87508 -1.185985,-0.712207 -0.202589,0.166563 -0.464247,-0.129594 -1.184911,-1.341145 -1.043352,-1.754038 -1.074457,-1.737861 1.204107,-0.626221 1.007064,0.491316 1.10569,0.596849 1.087677,1.163865 -0.01226,0.386092 0.06489,0.591058 0.202597,0.538213 0.236925,-0.09091 0.955957,0.977671 1.047541,1.556799 0.08631,0.545745 -0.175485,0.416239 -1.171026,-0.579304 z M 63.740002,82.87909 c -0.06452,-0.16813 -0.159792,-0.263205 -0.211718,-0.211278 -0.05193,0.05193 -0.03565,0.189489 0.03616,0.305692 0.195335,0.316058 0.309505,0.254657 0.175555,-0.09441 z M 48.561999,81.612527 c -1.249071,-1.198982 -2.919791,-3.641845 -2.664989,-3.896645 0.04273,-0.04273 0.36277,0.277035 0.711191,0.710597 0.599931,0.746533 2.776308,2.71794 3.765165,3.410563 0.383978,0.268948 0.420949,0.385049 0.233906,0.73454 -0.122185,0.228306 -0.310255,0.415101 -0.417932,0.415101 -0.107678,0 -0.839982,-0.618369 -1.627341,-1.374156 z m -2.499698,-5.509759 c -0.123617,-0.299624 -0.263252,-0.746498 -0.310299,-0.993054 -0.20646,-1.081955 2.118043,-1.517713 4.732958,-0.887256 l 1.571639,0.378923 0.355198,1.044974 0.355198,1.044975 -0.441101,-0.141456 C 50.264865,75.888921 48.10044,75.819157 46.991699,76.377942 46.29708,76.728018 46.32349,76.735837 46.062301,76.102768 Z"
         id="path1265"
         inkscape:connector-curvature="0" />
    </g>
    <text
       xml:space="preserve"
       style="font-style:normal;font-weight:normal;font-size:10.58333302px;line-height:1.25;font-family:sans-serif;letter-spacing:0px;word-spacing:0px;fill:#000000;fill-opacity:1;stroke:none;stroke-width:0.26458332"
       x="44.107727"
       y="116.55003"
       id="text1285"><tspan
         sodipodi:role="line"
         x="44.107727"
         y="116.55003"
         style="font-style:normal;font-variant:normal;font-weight:300;font-stretch:normal;font-size:5.64444447px;font-family:'Helvetica Neue';-inkscape-font-specification:'Helvetica Neue Light';stroke-width:0.26458332"
         id="tspan1287">Challenge ID </tspan></text>
    <text
       xml:space="preserve"
       style="font-style:normal;font-weight:normal;font-size:10.58333302px;line-height:1.25;font-family:sans-serif;letter-spacing:0px;word-spacing:0px;fill:#000000;fill-opacity:1;stroke:none;stroke-width:0.26458332"
       x="49.637409"
       y="121.75883"
       id="text1293"><tspan
         sodipodi:role="line"
         id="tspan1291"
         x="49.637409"
         y="121.75883"
         style="font-style:normal;font-variant:normal;font-weight:normal;font-stretch:normal;font-size:4.93888903px;font-family:'Helvetica Neue';-inkscape-font-specification:'Helvetica Neue';stroke-width:0.26458332">9933907</tspan></text>
  </g>
</svg>
