<?xml version="1.0" encoding="UTF-8" standalone="no"?>
<!-- Created with Inkscape (http://www.inkscape.org/) -->

<svg
   xmlns:dc="http://purl.org/dc/elements/1.1/"
   xmlns:cc="http://creativecommons.org/ns#"
   xmlns:rdf="http://www.w3.org/1999/02/22-rdf-syntax-ns#"
   xmlns:svg="http://www.w3.org/2000/svg"
   xmlns="http://www.w3.org/2000/svg"
   xmlns:sodipodi="http://sodipodi.sourceforge.net/DTD/sodipodi-0.dtd"
   xmlns:inkscape="http://www.inkscape.org/namespaces/inkscape"
   width="95.25mm"
   height="68.791664mm"
   viewBox="0 0 95.25 68.791664"
   version="1.1"
   id="svg918"
   inkscape:version="0.92.2 5c3e80d, 2017-08-06"
   sodipodi:docname="ISC2016-tile.svg"
   inkscape:export-filename="/Users/kevindick/Documents/GitHub/chazingtheinfinite.github.io/images/project/ISC2016-tile.png"
   inkscape:export-xdpi="96"
   inkscape:export-ydpi="96">
  <defs
     id="defs912">
    <clipPath
       clipPathUnits="userSpaceOnUse"
       id="clipPath1036">
      <path
         style="fill:#ffffff;fill-opacity:1;stroke:#000000;stroke-width:0.26458332px;stroke-linecap:butt;stroke-linejoin:miter;stroke-opacity:1"
         d="M 61.524858,53.111964 36.83836,137.69005 -16.183942,138.76338 -0.51338267,47.530669 Z"
         id="path1038"
         inkscape:connector-curvature="0" />
    </clipPath>
  </defs>
  <sodipodi:namedview
     id="base"
     pagecolor="#ffffff"
     bordercolor="#666666"
     borderopacity="1.0"
     inkscape:pageopacity="0.0"
     inkscape:pageshadow="2"
     inkscape:zoom="1.2325395"
     inkscape:cx="258.84533"
     inkscape:cy="60.996718"
     inkscape:document-units="mm"
     inkscape:current-layer="layer1"
     showgrid="false"
     fit-margin-top="0"
     fit-margin-left="0"
     fit-margin-right="0"
     fit-margin-bottom="0"
     showguides="false"
     inkscape:window-width="1680"
     inkscape:window-height="1005"
     inkscape:window-x="0"
     inkscape:window-y="1"
     inkscape:window-maximized="1"
     inkscape:snap-grids="true"
     inkscape:snap-to-guides="false" />
  <metadata
     id="metadata915">
    <rdf:RDF>
      <cc:Work
         rdf:about="">
        <dc:format>image/svg+xml</dc:format>
        <dc:type
           rdf:resource="http://purl.org/dc/dcmitype/StillImage" />
        <dc:title></dc:title>
      </cc:Work>
    </rdf:RDF>
  </metadata>
  <g
     inkscape:label="Layer 1"
     inkscape:groupmode="layer"
     id="layer1"
     transform="translate(-9.5758815,-59.882449)">
    <rect
       style="fill:#37abc8;fill-opacity:0.71428573;stroke:#000000;stroke-width:0.43509191;stroke-miterlimit:4;stroke-dasharray:none;stroke-opacity:1"
       id="rect1463"
       width="94.814911"
       height="68.356575"
       x="9.7934275"
       y="60.099995" />
    <g
       id="g1032"
       clip-path="url(#clipPath1036)">
      <text
         id="text928"
         y="64.274551"
         x="10.434544"
         style="font-style:normal;font-weight:normal;font-size:10.58333302px;line-height:1.25;font-family:sans-serif;letter-spacing:0px;word-spacing:0px;fill:#ffffff;fill-opacity:1;stroke:none;stroke-width:0.26458332;"
         xml:space="preserve"><tspan
           style="font-style:normal;font-variant:normal;font-weight:normal;font-stretch:normal;font-size:4.23333311px;font-family:'Helvetica Neue';-inkscape-font-specification:'Helvetica Neue';stroke-width:0.26458332;fill:#ffffff;"
           y="64.274551"
           x="10.434544"
           id="tspan926"
           sodipodi:role="line">MESTPSRGLNRVHLQCRNLAW </tspan></text>
      <text
         id="text932"
         y="73.804672"
         x="10.534378"
         style="font-style:normal;font-weight:normal;font-size:10.58333302px;line-height:1.25;font-family:sans-serif;letter-spacing:0px;word-spacing:0px;fill:#ffffff;fill-opacity:1;stroke:none;stroke-width:0.26458332;"
         xml:space="preserve"><tspan
           style="font-style:normal;font-variant:normal;font-weight:normal;font-stretch:normal;font-size:4.23333311px;font-family:'Helvetica Neue';-inkscape-font-specification:'Helvetica Neue';stroke-width:0.26458332;fill:#ffffff;"
           y="73.804672"
           x="10.534378"
           id="tspan930"
           sodipodi:role="line">QEFLGGLSPGVLDRLYGHPAK</tspan></text>
      <text
         id="text936"
         y="69.196861"
         x="10.863874"
         style="font-style:normal;font-variant:normal;font-weight:normal;font-stretch:normal;font-size:4.23333311px;line-height:1.25;font-family:'Helvetica Neue';-inkscape-font-specification:'Helvetica Neue';letter-spacing:0px;word-spacing:0px;fill:#ffffff;fill-opacity:1;stroke:none;stroke-width:0.26458332;"
         xml:space="preserve"><tspan
           style="font-style:normal;font-variant:normal;font-weight:normal;font-stretch:normal;font-size:4.23333311px;font-family:'Helvetica Neue';-inkscape-font-specification:'Helvetica Neue';stroke-width:0.26458332;fill:#ffffff;"
           y="69.196861"
           x="10.863874"
           id="tspan934"
           sodipodi:role="line">SDDTSQLGPDKHARDVPSLDK</tspan></text>
      <text
         id="text940"
         y="78.65712"
         x="10.649207"
         style="font-style:normal;font-variant:normal;font-weight:normal;font-stretch:normal;font-size:4.23333311px;line-height:1.25;font-family:'Helvetica Neue';-inkscape-font-specification:'Helvetica Neue';letter-spacing:0px;word-spacing:0px;fill:#ffffff;fill-opacity:1;stroke:none;stroke-width:0.26458332;"
         xml:space="preserve"><tspan
           style="font-style:normal;font-variant:normal;font-weight:normal;font-stretch:normal;font-size:4.23333311px;font-family:'Helvetica Neue';-inkscape-font-specification:'Helvetica Neue';stroke-width:0.26458332;fill:#ffffff;"
           y="78.65712"
           x="10.649207"
           id="tspan938"
           sodipodi:role="line">TCLAVFRELPSLAKNWV</tspan><tspan
           id="tspan942"
           style="font-style:normal;font-variant:normal;font-weight:normal;font-stretch:normal;font-size:4.23333311px;font-family:'Helvetica Neue';-inkscape-font-specification:'Helvetica Neue';stroke-width:0.26458332;fill:#ffffff;"
           y="83.948784"
           x="10.649207"
           sodipodi:role="line">MRMLFLEQPLPQAAVAL</tspan><tspan
           id="tspan944"
           style="font-style:normal;font-variant:normal;font-weight:normal;font-stretch:normal;font-size:4.23333311px;font-family:'Helvetica Neue';-inkscape-font-specification:'Helvetica Neue';stroke-width:0.26458332;fill:#ffffff;"
           y="89.240456"
           x="10.649207"
           sodipodi:role="line">WVKKEFSKAQEESTG</tspan><tspan
           id="tspan946"
           style="font-style:normal;font-variant:normal;font-weight:normal;font-stretch:normal;font-size:4.23333311px;font-family:'Helvetica Neue';-inkscape-font-specification:'Helvetica Neue';stroke-width:0.26458332;fill:#ffffff;"
           y="94.53212"
           x="10.649207"
           sodipodi:role="line">LLSGLRIWHTQLLPG</tspan><tspan
           id="tspan948"
           style="font-style:normal;font-variant:normal;font-weight:normal;font-stretch:normal;font-size:4.23333311px;font-family:'Helvetica Neue';-inkscape-font-specification:'Helvetica Neue';stroke-width:0.26458332;fill:#ffffff;"
           y="99.823784"
           x="10.649207"
           sodipodi:role="line">GLQGLILNPIFRQNLR</tspan></text>
      <text
         xml:space="preserve"
         style="font-style:normal;font-weight:normal;font-size:10.58333302px;line-height:1.25;font-family:sans-serif;letter-spacing:0px;word-spacing:0px;fill:#ffffff;fill-opacity:1;stroke:none;stroke-width:0.26458332;"
         x="10.319715"
         y="104.63161"
         id="text977"><tspan
           sodipodi:role="line"
           id="tspan975"
           x="10.319715"
           y="104.63161"
           style="font-style:normal;font-variant:normal;font-weight:normal;font-stretch:normal;font-size:4.23333311px;font-family:'Helvetica Neue';-inkscape-font-specification:'Helvetica Neue';stroke-width:0.26458332;fill:#ffffff;">MESTPSRGLNRVHLQCRNLAW </tspan></text>
      <text
         xml:space="preserve"
         style="font-style:normal;font-weight:normal;font-size:10.58333302px;line-height:1.25;font-family:sans-serif;letter-spacing:0px;word-spacing:0px;fill:#ffffff;fill-opacity:1;stroke:none;stroke-width:0.26458332;"
         x="10.419549"
         y="113.63256"
         id="text981"><tspan
           sodipodi:role="line"
           id="tspan979"
           x="10.419549"
           y="113.63256"
           style="font-style:normal;font-variant:normal;font-weight:normal;font-stretch:normal;font-size:4.23333311px;font-family:'Helvetica Neue';-inkscape-font-specification:'Helvetica Neue';stroke-width:0.26458332;fill:#ffffff;">QEFLGGLSPGVLDRLYGHPAK</tspan></text>
      <text
         xml:space="preserve"
         style="font-style:normal;font-variant:normal;font-weight:normal;font-stretch:normal;font-size:4.23333311px;line-height:1.25;font-family:'Helvetica Neue';-inkscape-font-specification:'Helvetica Neue';letter-spacing:0px;word-spacing:0px;fill:#ffffff;fill-opacity:1;stroke:none;stroke-width:0.26458332;"
         x="10.749045"
         y="109.02475"
         id="text985"><tspan
           sodipodi:role="line"
           id="tspan983"
           x="10.749045"
           y="109.02475"
           style="font-style:normal;font-variant:normal;font-weight:normal;font-stretch:normal;font-size:4.23333311px;font-family:'Helvetica Neue';-inkscape-font-specification:'Helvetica Neue';stroke-width:0.26458332;fill:#ffffff;">SDDTSQLGPDKHARDVPSLDK</tspan></text>
      <text
         xml:space="preserve"
         style="font-style:normal;font-variant:normal;font-weight:normal;font-stretch:normal;font-size:4.23333311px;line-height:1.25;font-family:'Helvetica Neue';-inkscape-font-specification:'Helvetica Neue';letter-spacing:0px;word-spacing:0px;fill:#ffffff;fill-opacity:1;stroke:none;stroke-width:0.26458332"
         x="10.434542"
         y="117.74118"
         id="text997"><tspan
           sodipodi:role="line"
           id="tspan987"
           x="10.434542"
           y="117.74118"
           style="font-style:normal;font-variant:normal;font-weight:normal;font-stretch:normal;font-size:4.23333311px;font-family:'Helvetica Neue';-inkscape-font-specification:'Helvetica Neue';fill:#ffffff;stroke-width:0.26458332">TCLAVFRELPSLAKNWV</tspan><tspan
           sodipodi:role="line"
           x="10.434542"
           y="123.03284"
           style="font-style:normal;font-variant:normal;font-weight:normal;font-stretch:normal;font-size:4.23333311px;font-family:'Helvetica Neue';-inkscape-font-specification:'Helvetica Neue';fill:#ffffff;stroke-width:0.26458332"
           id="tspan989">MRMLFLEQPLPQAAVAL</tspan><tspan
           sodipodi:role="line"
           x="10.434542"
           y="128.32451"
           style="font-style:normal;font-variant:normal;font-weight:normal;font-stretch:normal;font-size:4.23333311px;font-family:'Helvetica Neue';-inkscape-font-specification:'Helvetica Neue';fill:#ffffff;stroke-width:0.26458332"
           id="tspan991">WVKKEFSKAQEESTG</tspan><tspan
           sodipodi:role="line"
           x="10.434542"
           y="133.61618"
           style="font-style:normal;font-variant:normal;font-weight:normal;font-stretch:normal;font-size:4.23333311px;font-family:'Helvetica Neue';-inkscape-font-specification:'Helvetica Neue';fill:#ffffff;stroke-width:0.26458332"
           id="tspan995" /></text>
    </g>
    <flowRoot
       xml:space="preserve"
       id="flowRoot1001"
       style="fill:#ffffff;fill-opacity:1;stroke:none;font-family:sans-serif;font-style:normal;font-weight:normal;font-size:40px;line-height:1.25;letter-spacing:0px;word-spacing:0px;"><flowRegion
         id="flowRegion1003"
         style="fill:#ffffff;"><rect
           id="rect1005"
           width="330.21255"
           height="260.4379"
           x="-64.095306"
           y="-30.457232"
           style="fill:#ffffff;" /></flowRegion><flowPara
         id="flowPara1007"></flowPara></flowRoot>    <path
       style="fill:#ffffff;fill-opacity:1;stroke:#000000;stroke-width:0.32921028;stroke-miterlimit:4;stroke-dasharray:none;stroke-opacity:1"
       d="m 59.298359,116.82201 c -0.127935,-0.0678 -0.360359,-0.25404 -0.516513,-0.41391 -0.15615,-0.15989 -0.317985,-0.30376 -0.359617,-0.31974 -0.04164,-0.016 -0.2073,-0.32471 -0.36815,-0.68603 -0.228603,-0.51351 -0.288843,-0.78978 -0.275902,-1.26523 0.02038,-0.74913 0.177615,-1.1688 0.672465,-1.79485 0.328801,-0.41598 0.875323,-0.82251 1.232345,-0.9167 0.08307,-0.0219 0.04286,-1.05291 -0.04745,-1.21594 -0.01807,-0.0325 -0.04239,-0.18888 -0.05408,-0.34732 -0.02063,-0.27968 -0.04088,-0.29707 -0.695025,-0.59667 -0.755848,-0.3461 -1.276492,-0.82131 -1.573862,-1.43628 -0.186895,-0.38651 -0.365974,-1.28564 -0.293601,-1.47415 0.03759,-0.0979 -0.148064,-0.1927 -1.073117,-0.54786 l -1.118576,-0.42945 -0.342875,0.33522 c -0.428622,0.41905 -1.289766,0.82505 -1.787802,0.84291 -0.208106,0.007 -0.455324,0.024 -0.549322,0.0367 -0.09401,0.0128 -0.446656,-0.0827 -0.783674,-0.21207 -0.761268,-0.29228 -1.339972,-0.84119 -1.66751,-1.58167 -0.217648,-0.49204 -0.306272,-1.17344 -0.191509,-1.47236 0.03294,-0.0858 0.02326,-0.16994 -0.02146,-0.18711 -0.0887,-0.0341 0.267366,-1.04041 0.386954,-1.09364 0.04005,-0.0178 0.199127,-0.18453 0.353507,-0.37044 0.510326,-0.61456 1.54599,-1.0597 2.327937,-1.00056 0.587359,0.0444 1.643982,0.55041 2.021176,0.96777 0.453391,0.50175 0.829124,1.52064 0.764823,2.07399 l -0.05091,0.43808 1.076918,0.41346 c 1.047263,0.40208 1.080134,0.40934 1.198902,0.25036 0.414939,-0.5548 1.442367,-1.18949 1.883224,-1.16334 0.10542,0.006 0.203143,-0.0184 0.217118,-0.0548 0.07224,-0.18815 1.446954,0.17915 2.041829,0.54554 l 0.263999,0.16252 0.848158,-0.67412 c 0.466495,-0.37079 0.888238,-0.72999 0.937218,-0.79826 0.04898,-0.0683 0.04034,-0.26518 -0.01922,-0.43759 -0.350327,-1.01432 0.304997,-2.613327 1.329725,-3.244544 l 0.41703,-0.256877 -0.119523,-0.941547 c -0.06574,-0.517849 -0.139484,-0.970195 -0.163874,-1.005224 -0.02442,-0.03498 -0.05501,-0.214714 -0.06804,-0.399329 -0.01303,-0.184605 -0.100562,-0.785031 -0.19452,-1.334269 -0.09396,-0.549229 -0.187799,-1.136587 -0.20853,-1.305243 l -0.0377,-0.306615 -0.70096,-0.220061 c -0.428421,-0.134598 -0.757414,-0.281154 -0.846092,-0.377435 -0.07986,-0.08647 -0.281833,-0.293441 -0.448901,-0.459763 -0.493108,-0.490903 -0.77652,-1.200564 -0.773972,-1.938019 8.93e-4,-0.257472 -0.03047,-0.511454 -0.0697,-0.564405 -0.09507,-0.12831 -1.988975,-0.852418 -2.146501,-0.820251 -0.06793,0.01378 -0.23737,0.158621 -0.376591,0.321992 -0.485119,0.569261 -1.344215,0.988065 -2.016588,0.98307 -0.230291,-0.0017 -0.465156,0.01408 -0.521976,0.0351 -0.13453,0.04979 -1.323865,-0.406833 -1.39051,-0.53386 -0.02815,-0.05365 -0.199132,-0.227059 -0.379948,-0.385365 -0.488823,-0.427927 -0.876263,-1.363328 -0.841293,-2.03112 0.03411,-0.6513 0.374337,-1.541069 0.753398,-1.97014 0.533903,-0.604457 1.50393,-1.036617 2.264089,-1.008695 0.202409,0.0074 0.664359,0.128075 1.026554,0.268079 0.564714,0.217786 0.712442,0.314072 1.036212,0.671662 0.447488,0.494217 0.834433,1.439856 0.810203,1.980032 l -0.01679,0.374278 1.201703,0.461371 1.201703,0.461371 0.30862,-0.349318 c 0.388657,-0.439908 1.153526,-0.792939 1.878433,-0.867006 0.488916,-0.04996 0.641476,-0.02316 1.30977,0.230075 l 0.756424,0.286558 0.470778,-0.367046 c 0.258931,-0.201882 0.476741,-0.382573 0.48403,-0.401558 0.0073,-0.01894 0.362243,-0.307969 0.788792,-0.642203 0.426551,-0.334233 0.822296,-0.652733 0.879432,-0.707771 0.05714,-0.05506 0.284106,-0.2408 0.504379,-0.412818 0.220271,-0.172008 0.559661,-0.45239 0.754194,-0.623053 l 0.353697,-0.310306 -0.148661,-0.570629 c -0.181611,-0.697096 -0.113946,-1.288069 0.234266,-2.045997 0.306977,-0.66818 0.70598,-1.08285 1.31162,-1.36313 l 0.408991,-0.189276 -0.05257,-0.455077 c -0.02898,-0.250243 -0.100554,-0.797835 -0.159116,-1.216822 l -0.106476,-0.761793 -0.481539,-0.129327 c -0.264831,-0.07117 -0.669156,-0.250054 -0.898543,-0.397412 -0.451659,-0.290311 -1.027048,-1.003977 -1.117724,-1.386337 -0.03107,-0.131037 -0.07479,-0.26626 -0.09716,-0.300507 -0.06188,-0.09471 -0.13227,-1.095122 -0.08563,-1.216613 0.03222,-0.08392 -0.253447,-0.219805 -1.335909,-0.635396 -1.357434,-0.521161 -1.37864,-0.52641 -1.501988,-0.366727 -0.184672,0.239026 -0.907657,0.762896 -1.222861,0.88607 -0.150938,0.05898 -0.538118,0.137897 -0.860397,0.175356 -0.51521,0.05988 -0.664498,0.03791 -1.236342,-0.182051 -0.534994,-0.205743 -0.720293,-0.321864 -1.044349,-0.654514 -0.494533,-0.507562 -0.866542,-1.3602 -0.849894,-1.947944 0.0068,-0.240457 0.0034,-0.513536 -0.0075,-0.606845 -0.0361,-0.307865 0.263365,-0.917009 0.700063,-1.423976 0.793742,-0.921472 1.941293,-1.265008 3.059729,-0.915983 0.595117,0.185702 1.378962,0.641848 1.328564,0.773116 -0.01428,0.0372 0.04596,0.125195 0.133926,0.195447 0.373965,0.298657 0.796867,1.754523 0.633366,2.180383 -0.04856,0.126495 0.07486,0.185782 1.388116,0.666765 l 1.441407,0.52796 0.258462,-0.277379 c 0.782669,-0.839956 2.098237,-1.095868 3.296711,-0.641303 l 0.493899,0.187695 0.330173,-0.269779 c 0.181592,-0.148371 0.3896,-0.314601 0.462234,-0.36939 0.07263,-0.05477 0.301707,-0.239745 0.509056,-0.411023 0.207345,-0.17128 0.601164,-0.479154 0.875154,-0.684181 0.697352,-0.52182 0.715363,-0.55045 0.615381,-0.978117 -0.201454,-0.861734 0.160583,-2.044491 0.819312,-2.676643 1.862854,-1.787694 4.995099,-0.512003 4.985475,2.030466 -8.31e-4,0.219339 0.01456,0.434887 0.03419,0.478993 0.08634,0.193972 -0.353929,1.078488 -0.764427,1.535721 -0.82427,0.918142 -2.0858,1.230579 -3.216494,0.796606 -0.331368,-0.127182 -0.695717,-0.326171 -0.827273,-0.45178 -0.225571,-0.21541 -0.245013,-0.218585 -0.480058,-0.07842 -0.134728,0.08034 -0.256498,0.176111 -0.270589,0.212814 -0.01409,0.0367 -0.174077,0.169063 -0.355518,0.29412 -0.181437,0.125049 -0.390787,0.287958 -0.465219,0.362017 -0.07443,0.07406 -0.396911,0.32812 -0.716622,0.564586 -0.319712,0.236467 -0.608135,0.4952 -0.640934,0.574952 -0.03279,0.07981 0.01322,0.315336 0.10227,0.523512 0.08905,0.208179 0.184251,0.58903 0.211555,0.846345 0.04242,0.399758 0.0065,0.580251 -0.246946,1.240345 -0.265229,0.690826 -0.340317,0.812049 -0.710167,1.146533 -0.227464,0.205706 -0.530902,0.421921 -0.674304,0.480466 -0.31528,0.128719 -0.371441,0.251965 -0.279013,0.612311 0.03875,0.151089 0.08233,0.426221 0.09684,0.611402 0.0145,0.185171 0.05718,0.558052 0.09483,0.828607 l 0.06846,0.491915 0.602244,0.23904 c 0.6839,0.271353 1.255238,0.736785 1.555016,1.2677 0.27214,0.481951 0.46252,1.203768 0.421532,1.598198 l -0.03595,0.345958 2.628546,1.00918 2.628541,1.009178 0.406256,-0.403815 c 0.610419,-0.606754 1.334124,-0.886031 2.220029,-0.85671 0.818105,0.02707 1.123385,0.121404 1.4728,0.455078 0.320458,0.306017 0.35729,0.315461 0.548715,0.14069 0.08903,-0.08128 0.34207,-0.288535 0.562315,-0.460562 0.220243,-0.172019 0.561181,-0.451583 0.757638,-0.621253 l 0.357199,-0.308485 -0.110355,-0.458772 c -0.158337,-0.658222 -0.121389,-1.139413 0.139705,-1.819468 0.238534,-0.621293 0.624837,-1.163006 0.97207,-1.363138 0.706915,-0.407433 0.959262,-0.501759 1.4851,-0.555117 0.518575,-0.05262 0.669881,-0.0283 1.279325,0.205688 0.609202,0.233892 0.737778,0.316976 1.08403,0.700274 0.530733,0.587558 0.81838,1.32978 0.804653,2.07627 -0.01346,0.732313 -0.201148,1.240698 -0.685549,1.856976 -0.295798,0.376334 -0.492024,0.527166 -0.959667,0.737694 -0.323312,0.145547 -0.805925,0.285866 -1.072474,0.311828 -0.427422,0.04162 -0.589519,0.0071 -1.373199,-0.292575 -0.700102,-0.267816 -0.906359,-0.318157 -0.972526,-0.237696 -0.04617,0.05615 -0.131349,0.12779 -0.189261,0.159218 -0.05789,0.03137 -0.42407,0.311678 -0.813674,0.622778 l -0.708379,0.565655 0.138092,0.553523 c 0.16557,0.663676 0.0765,1.346651 -0.262587,2.013428 -0.259886,0.511043 -0.834423,1.088251 -1.253515,1.259352 -0.314602,0.128444 -0.371052,0.251315 -0.280974,0.611558 0.03769,0.150681 0.119591,0.62082 0.182027,1.044754 0.163137,1.107655 0.207881,1.4003 0.365221,2.388765 0.07738,0.48609 0.135106,0.898325 0.12829,0.916079 -0.0068,0.01776 0.02619,0.171695 0.07337,0.342081 0.08307,0.300098 0.101865,0.314165 0.599798,0.449014 0.540294,0.146325 1.347714,0.646974 1.518761,0.941719 0.503414,0.867476 0.702038,1.507018 0.658458,2.120115 -0.01008,0.141787 0.115198,0.207507 1.160066,0.608664 l 1.171367,0.44972 0.445544,-0.41208 c 0.538708,-0.498247 0.814624,-0.642384 1.497112,-0.782094 0.680471,-0.1393 1.421541,-0.008 2.015804,0.356077 0.239869,0.14716 0.468885,0.25273 0.508866,0.23475 0.03998,-0.018 0.699409,-0.560127 1.465353,-1.204664 l 1.392641,-1.171894 -0.19692,-0.448365 c -0.108298,-0.246599 -0.227022,-0.675381 -0.263813,-0.952827 -0.06003,-0.452619 -0.03616,-0.584541 0.232265,-1.28369 0.352618,-0.918442 0.661394,-1.260136 1.481336,-1.63924 1.831577,-0.846823 3.900607,0.318626 4.127697,2.325075 0.0699,0.617956 0.0549,0.722419 -0.19895,1.383659 -0.24605,0.640872 -0.31955,0.754743 -0.707,1.095186 -0.52563,0.461856 -0.77884,0.591246 -1.45425,0.743106 -0.5302,0.11921 -1.22832,0.0508 -1.744497,-0.17093 -0.447336,-0.192217 -0.458604,-0.190405 -0.742788,0.11636 -0.148917,0.16077 -0.307242,0.299417 -0.351829,0.308107 -0.04458,0.009 -0.233191,0.15448 -0.419145,0.32397 -0.185952,0.16948 -0.695641,0.603587 -1.132666,0.964664 -0.615874,0.508887 -0.785496,0.691467 -0.754263,0.811947 0.282773,1.09065 0.247212,1.72314 -0.138416,2.46187 -0.23288,0.44614 -0.810141,1.03435 -1.203578,1.22644 -0.224938,0.10982 -0.225485,0.11191 -0.162348,0.61676 0.03486,0.27863 0.0821,0.56798 0.104972,0.64302 0.02281,0.0751 0.06146,0.34175 0.08571,0.59272 0.02426,0.25097 0.07702,0.63688 0.117225,0.85757 0.04021,0.22071 0.08857,0.60665 0.107433,0.85766 l 0.03432,0.45636 0.555085,0.21312 c 0.305293,0.11721 0.606177,0.2699 0.668643,0.3393 0.06248,0.0694 0.275143,0.28528 0.47266,0.47965 0.427592,0.42075 0.727128,1.12084 0.774953,1.81123 0.02805,0.40503 -0.01572,0.62914 -0.234721,1.20147 -0.24042,0.62836 -0.315483,0.74416 -0.701356,1.08361 -1.079933,0.94975 -2.371444,1.07934 -3.55874,0.35712 -0.788986,-0.47994 -1.241927,-1.21911 -1.378085,-2.24901 -0.05923,-0.44795 -0.03548,-0.57138 0.252589,-1.31266 0.292592,-0.75372 0.348748,-0.84279 0.708358,-1.1296 0.214709,-0.17126 0.582296,-0.39681 0.816851,-0.50122 l 0.426461,-0.18985 -0.261286,-1.85129 c -0.232678,-1.64859 -0.283043,-1.85623 -0.459952,-1.89645 -0.109275,-0.0248 -0.434702,-0.11462 -0.72314,-0.19966 -1.087181,-0.32035 -1.950607,-1.49066 -1.984817,-2.69052 -0.0081,-0.28536 -0.043,-0.56051 -0.07746,-0.61145 -0.03446,-0.0509 -0.508089,-0.26426 -1.052502,-0.47406 -1.027113,-0.39532 -1.27086,-0.41328 -1.391238,-0.0997 -0.08606,0.22415 -0.887384,0.76876 -1.350592,0.91791 -0.668562,0.21525 -1.419439,0.19524 -2.071775,-0.0552 -0.363588,-0.13959 -0.543472,-0.24743 -0.540243,-0.32404 0.0079,-0.18753 -0.318822,-0.033 -0.782572,0.37041 -0.413313,0.35946 -0.554095,0.47523 -1.824786,1.50065 -0.371763,0.3 -0.832824,0.68071 -1.024585,0.84602 -0.191763,0.16533 -0.413152,0.33187 -0.491986,0.37013 -0.213822,0.10375 -0.2595,0.31397 -0.127997,0.58906 0.06453,0.135 0.143617,0.50125 0.175746,0.81389 0.05196,0.50559 0.02726,0.64936 -0.223341,1.3 -0.2536,0.65838 -0.322795,0.7661 -0.692077,1.07702 -0.225673,0.19001 -0.57302,0.41228 -0.771879,0.49393 -0.365062,0.1499 -0.499449,0.31648 -0.413143,0.51212 0.02589,0.0587 0.07981,0.3922 0.119832,0.74111 0.153413,1.33764 0.08339,1.21687 0.878552,1.51539 0.386749,0.1442 0.82552,0.36729 0.981997,0.49716 0.510205,0.42315 1.065393,1.58762 1.031264,2.163 -0.01124,0.18947 0.03038,0.21196 1.28016,0.69179 l 1.291777,0.49595 0.289067,-0.28555 c 0.387709,-0.383 1.133877,-0.69962 1.784739,-0.75733 0.432232,-0.0383 0.64994,-0.003 1.150048,0.18543 0.958653,0.36163 1.27422,0.64859 1.667757,1.51644 0.374254,0.82531 0.408226,1.35206 0.137214,2.12748 -0.251798,0.72046 -0.54024,1.13482 -1.018536,1.46322 -0.595695,0.409 -1.057734,0.57921 -1.56216,0.57546 -0.230254,-0.002 -0.465155,0.0141 -0.521977,0.0351 -0.148588,0.055 -1.378545,-0.43136 -1.340624,-0.53013 0.0172,-0.0448 -0.03249,-0.10673 -0.110404,-0.13772 -0.229988,-0.0926 -0.663845,-0.58546 -0.827719,-0.94259 -0.275211,-0.59978 -0.324798,-0.84316 -0.294537,-1.44559 l 0.02988,-0.59499 -1.160586,-0.44559 -1.160603,-0.44559 -0.235079,0.32961 c -0.462897,0.64904 -1.289086,1.11029 -2.085162,1.16413 -0.237065,0.016 -0.507636,0.0387 -0.601239,0.0504 -0.205817,0.0257 -1.402209,-0.42162 -1.367704,-0.5115 0.01344,-0.035 -0.130003,-0.18084 -0.318722,-0.32418 -0.43031,-0.32685 -0.896867,-1.32718 -0.904096,-1.93841 -0.0027,-0.23198 -0.01343,-0.49792 -0.02374,-0.591 -0.02426,-0.21884 0.356912,-1.21375 0.473402,-1.23583 0.04908,-0.009 0.161518,-0.13429 0.249897,-0.27778 0.08838,-0.14351 0.379903,-0.3983 0.647823,-0.56621 0.267916,-0.1679 0.498721,-0.33549 0.51289,-0.37239 0.03552,-0.0925 -0.08824,-1.20025 -0.22185,-1.98538 -0.05175,-0.30411 -0.07299,-0.32214 -0.732263,-0.62165 -0.514954,-0.23402 -0.760322,-0.39795 -1.015837,-0.67889 -0.418025,-0.45972 -0.809649,-1.43078 -0.772914,-1.91653 0.01515,-0.20042 -0.0065,-0.42505 -0.04808,-0.49918 -0.05366,-0.0956 -0.818979,-0.41297 -2.633317,-1.0921 l -2.557676,-0.95733 -0.262449,0.29902 c -0.526701,0.6001 -1.237976,0.93582 -2.114994,0.99829 -0.58484,0.0417 -0.670031,0.0245 -1.275244,-0.25652 -0.356727,-0.16556 -0.71441,-0.33963 -0.794932,-0.38661 -0.110003,-0.0642 -0.274455,0.0162 -0.661496,0.32328 -0.283304,0.2248 -0.560347,0.45432 -0.615651,0.51006 -0.05532,0.0558 -0.201018,0.16291 -0.323804,0.23815 -0.267043,0.16364 -0.370466,0.39112 -0.246152,0.5414 0.04975,0.0601 0.10959,0.39638 0.132982,0.74722 0.08175,1.22615 -0.543057,2.29749 -1.663145,2.85175 l -0.441093,0.21826 0.128208,0.90181 0.128209,0.90181 0.672173,0.25807 c 0.369693,0.14194 0.778205,0.34773 0.907797,0.45733 0.65006,0.54979 1.102866,1.60454 1.027167,2.39269 -0.0456,0.47472 -0.458388,1.51243 -0.721738,1.81438 -0.548478,0.62887 -1.831418,1.16293 -2.331964,0.97075 -0.06558,-0.0252 -0.143333,-0.0195 -0.172793,0.0127 -0.06369,0.0695 -0.798678,-0.12687 -1.128275,-0.30151 z m 15.832583,-13.09603 c 0.512996,-0.51017 0.893668,-0.71249 1.583586,-0.84161 0.669904,-0.12538 1.231137,-0.0435 1.872055,0.27325 l 0.509738,0.25194 0.662584,-0.56382 c 0.364421,-0.31009 1.020747,-0.84616 1.458502,-1.19125 0.437757,-0.3451 0.843075,-0.67233 0.900708,-0.72717 0.05765,-0.0549 0.302983,-0.25456 0.54522,-0.4438 0.242237,-0.18924 0.463176,-0.40303 0.490978,-0.47511 0.02775,-0.072 -0.0062,-0.311427 -0.07561,-0.531897 -0.06939,-0.220467 -0.111119,-0.567644 -0.09273,-0.771514 0.01839,-0.20387 0.01636,-0.417107 -0.0045,-0.473877 -0.02088,-0.0568 0.04706,-0.32458 0.150965,-0.59515 0.228962,-0.596208 0.708416,-1.158589 1.286321,-1.508803 0.22882,-0.138669 0.425379,-0.27646 0.436803,-0.306214 0.02416,-0.06294 -0.190987,-1.568503 -0.246977,-1.728229 -0.0208,-0.05925 -0.05183,-0.23916 -0.069,-0.3997 -0.01717,-0.160542 -0.09322,-0.677729 -0.168995,-1.149309 -0.07578,-0.47158 -0.142918,-0.91721 -0.149188,-0.990306 -0.0063,-0.07308 -0.04671,-0.349662 -0.08985,-0.614599 l -0.07846,-0.481717 -0.841825,-0.338113 C 82.43752,89.808174 82.343987,89.748965 82.054721,89.385956 81.615702,88.83507 81.338383,88.121813 81.326843,87.513881 l -0.0098,-0.516283 -0.617494,-0.246823 c -0.682192,-0.272637 -2.621432,-1.016196 -3.850594,-1.476433 l -0.792316,-0.296375 -0.204276,0.280406 c -0.461348,0.633267 -1.660066,1.136587 -2.456696,1.031525 -0.256871,-0.0339 -0.724474,-0.181078 -1.067092,-0.335907 -0.601265,-0.271677 -0.612806,-0.272991 -0.817604,-0.09491 -0.378776,0.329398 -1.639887,1.3522 -2.239822,1.816563 -0.325068,0.251612 -0.602881,0.488337 -0.617364,0.526059 -0.01448,0.03772 -0.09072,0.09934 -0.169429,0.136941 -0.07871,0.03762 -0.272387,0.186657 -0.430411,0.33125 -0.158028,0.144602 -0.315305,0.273148 -0.349516,0.285674 -0.199891,0.07318 -0.251193,0.276944 -0.131605,0.522683 0.350567,0.720338 0.26674,1.755593 -0.207769,2.565963 -0.147193,0.251388 -0.275347,0.476511 -0.284763,0.500283 -0.03257,0.08204 -0.918865,0.703105 -1.034761,0.725033 -0.0823,0.01553 -0.102171,0.180716 -0.068,0.5659 0.02652,0.299162 0.0718,0.574891 0.100609,0.612752 0.02882,0.03785 0.06834,0.251643 0.08783,0.475085 0.01948,0.223459 0.07042,0.613361 0.113185,0.866455 0.04276,0.253104 0.130651,0.811666 0.195306,1.241262 0.06465,0.429605 0.134693,0.871645 0.155651,0.982325 0.02096,0.11066 0.05066,0.3045 0.066,0.43071 0.02615,0.21511 0.06076,0.23822 0.55279,0.36904 0.590646,0.157137 1.411079,0.631517 1.488668,0.860904 0.02739,0.081 0.0834,0.16016 0.124456,0.17592 0.298059,0.11443 0.701847,1.299847 0.654776,1.922257 l -0.02806,0.37101 2.609657,1.0017 2.609659,1.00169 0.422886,-0.42056 z"
       id="path1076"
       inkscape:connector-curvature="0" />
    <path
       style="fill:none;stroke:#000000;stroke-width:1;stroke-linecap:butt;stroke-linejoin:miter;stroke-miterlimit:4;stroke-dasharray:none;stroke-opacity:1"
       d="M 61.355168,56.01744 36.883337,137.16088"
       id="path1040"
       inkscape:connector-curvature="0" />
    <circle
       style="fill:#ffffff;fill-opacity:1;stroke:#000000;stroke-width:1;stroke-miterlimit:4;stroke-dasharray:none;stroke-opacity:1"
       id="path1042"
       cx="50.729244"
       cy="92.602859"
       r="11.055257" />
    <text
       xml:space="preserve"
       style="font-style:normal;font-weight:normal;font-size:10.58333302px;line-height:1.25;font-family:sans-serif;letter-spacing:0px;word-spacing:0px;fill:#000000;fill-opacity:1;stroke:none;stroke-width:0.26458332"
       x="44.626274"
       y="95.830345"
       id="text1046"><tspan
         sodipodi:role="line"
         id="tspan1044"
         x="44.626274"
         y="95.830345"
         style="font-style:normal;font-variant:normal;font-weight:300;font-stretch:normal;font-family:'Helvetica Neue';-inkscape-font-specification:'Helvetica Neue Light';stroke-width:0.26458332">vs</tspan></text>
  </g>
</svg>
