<?xml version="1.0" encoding="UTF-8" standalone="no"?>
<!-- Created with Inkscape (http://www.inkscape.org/) -->

<svg
   xmlns:dc="http://purl.org/dc/elements/1.1/"
   xmlns:cc="http://creativecommons.org/ns#"
   xmlns:rdf="http://www.w3.org/1999/02/22-rdf-syntax-ns#"
   xmlns:svg="http://www.w3.org/2000/svg"
   xmlns="http://www.w3.org/2000/svg"
   xmlns:sodipodi="http://sodipodi.sourceforge.net/DTD/sodipodi-0.dtd"
   xmlns:inkscape="http://www.inkscape.org/namespaces/inkscape"
   width="95.25mm"
   height="68.791664mm"
   viewBox="0 0 95.25 68.791664"
   version="1.1"
   id="svg918"
   inkscape:version="0.92.2 5c3e80d, 2017-08-06"
   sodipodi:docname="positome-tile.svg">
  <defs
     id="defs912" />
  <sodipodi:namedview
     id="base"
     pagecolor="#ffffff"
     bordercolor="#666666"
     borderopacity="1.0"
     inkscape:pageopacity="0.0"
     inkscape:pageshadow="2"
     inkscape:zoom="1.2325395"
     inkscape:cx="76.695228"
     inkscape:cy="125.90336"
     inkscape:document-units="mm"
     inkscape:current-layer="g1568"
     showgrid="false"
     fit-margin-top="0"
     fit-margin-left="0"
     fit-margin-right="0"
     fit-margin-bottom="0"
     showguides="false"
     inkscape:window-width="1680"
     inkscape:window-height="1005"
     inkscape:window-x="0"
     inkscape:window-y="1"
     inkscape:window-maximized="1" />
  <metadata
     id="metadata915">
    <rdf:RDF>
      <cc:Work
         rdf:about="">
        <dc:format>image/svg+xml</dc:format>
        <dc:type
           rdf:resource="http://purl.org/dc/dcmitype/StillImage" />
        <dc:title></dc:title>
      </cc:Work>
    </rdf:RDF>
  </metadata>
  <g
     inkscape:label="Layer 1"
     inkscape:groupmode="layer"
     id="layer1"
     transform="translate(-9.5758815,-59.882449)">
    <rect
       style="fill:#c00000;fill-opacity:1;stroke:#000000;stroke-width:0.43509191;stroke-miterlimit:4;stroke-dasharray:none;stroke-opacity:1"
       id="rect1463"
       width="94.814911"
       height="68.356575"
       x="9.7934275"
       y="60.099995" />
    <g
       id="g1568"
       transform="matrix(0.52503206,0,0,0.52503206,73.666395,50.706548)"
       style="fill:#ffffff">
      <g
         id="g1580"
         transform="matrix(1.1404654,0,0,1.1404654,1.8914728,-4.7183486)">
        <path
           style="fill:#ffffff;fill-opacity:1;stroke:#c00000;stroke-width:1.54242706;stroke-miterlimit:4;stroke-dasharray:none;stroke-opacity:1"
           d="m -200.81321,158.96398 -0.21086,-37.92982 -38.33549,-0.21077 -38.33548,-0.21078 V 104.40184 88.191064 l 38.33548,-0.210777 38.33549,-0.210778 0.21086,-37.929819 0.21085,-37.92982 h 16.21864 16.21864 v 38.132653 38.132653 h 37.72698 37.72699 v 16.226664 16.22666 h -37.72699 -37.72698 v 38.13265 38.13265 h -16.21864 -16.21864 z"
           id="path1562"
           inkscape:connector-curvature="0"
           transform="matrix(0.26458333,0,0,0.26458333,9.5758815,59.882449)" />
        <path
           style="fill:#ffffff;fill-opacity:1;stroke:#ffffff;stroke-width:3.80976391;stroke-miterlimit:4;stroke-dasharray:none;stroke-opacity:1"
           d="m -78.648299,120.97357 c -0.244065,-0.63602 -0.952343,-1.15641 -1.573954,-1.15641 -0.920027,0 -1.130195,-2.47056 -1.130195,-13.28557 0,-7.307072 -0.228187,-14.42652 -0.507083,-15.820998 -0.411784,-2.058936 -0.243002,-2.535416 0.898138,-2.535416 0.837936,0 1.237575,-0.436862 0.989956,-1.082164 -0.286587,-0.746824 1.257899,-1.622253 4.984027,-2.825013 16.493281,-5.323886 32.692356,-20.44844 39.80623,-37.165812 7.504863,-17.636165 6.312122,-39.1164423 -3.102943,-55.8813089 -13.384537,-23.8330661 -41.737195,-38.0828691 -68.743027,-34.5496611 -12.17082,1.592324 -23.07967,5.651577 -32.74128,12.183238 -8.43398,5.701737 -18.68533,17.930474 -22.76773,27.159416 -0.9065,2.0493023 -2.14833,3.72600395 -2.75961,3.72600395 -0.61128,0 -1.25303,0.42482939 -1.42611,0.94406469 -0.2392,0.71760626 -3.22336,0.71867236 -12.44044,0.004462 -6.66917,-0.51681103 -15.32038,-1.17439808 -19.22492,-1.46132439 -4.95282,-0.36395905 -7.09916,-0.83545315 -7.09916,-1.55949805 0,-0.570798 -0.39219,-1.1685443 -0.87154,-1.3283258 -2.04759,-0.6825315 6.87599,-18.8521484 13.7187,-27.9331084 16.14968,-21.432234 40.31645,-36.214303 69.09747,-42.264795 9.77421,-2.054783 35.678285,-2.052611 45.434654,0.0038 22.834847,4.813068 42.645523,14.780619 57.19898,28.779115 C 7.3785923,-17.867648 16.911212,18.449921 5.0446549,53.799774 -5.7443139,85.939556 -36.960937,112.77695 -73.084996,120.969 c -4.430276,1.00467 -5.179291,1.00529 -5.563303,0.005 z m 15.68998,-6.44156 C -27.991496,102.9201 -2.8540779,75.947292 4.7041546,41.929193 6.8946564,32.07019 6.8319729,16.091051 4.5617008,5.6124333 -3.6877226,-32.463308 -34.891518,-61.20752 -78.107116,-70.540158 c -9.797828,-2.115893 -35.608344,-2.119412 -45.434654,-0.0062 -22.35249,4.807064 -41.94826,15.09046 -56.85122,29.834169 -7.90947,7.824955 -13.66851,15.913136 -18.69346,26.25373 -4.14375,8.5272114 -4.61091,10.1341482 -2.95179,10.1534798 0.55779,0.00649 7.95107,0.5464442 16.4295,1.199878 19.87076,1.5314439 18.80235,1.5647321 19.35986,-0.6031953 0.97856,-3.8052306 7.83467,-14.2228405 13.10765,-19.9166085 25.05821,-27.057841 65.674788,-31.198553 96.940106,-9.882688 5.162683,3.519777 13.915465,12.42952 17.777305,18.096098 14.934832,21.9142629 15.226279,51.82326 0.725405,74.442187 -7.973643,12.437524 -21.616476,23.173602 -35.94637,28.287572 l -4.867998,1.737267 0.245436,13.555309 c 0.13499,7.45542 0.412669,14.0516 0.617068,14.65817 0.491092,1.45736 4.068202,0.79097 14.691959,-2.73701 z"
           id="path1564"
           inkscape:connector-curvature="0"
           transform="matrix(0.26458333,0,0,0.26458333,9.5758815,59.882449)" />
      </g>
    </g>
  </g>
</svg>
