<?xml version="1.0" encoding="UTF-8" standalone="no"?>
<!-- Created with Inkscape (http://www.inkscape.org/) -->

<svg
   xmlns:dc="http://purl.org/dc/elements/1.1/"
   xmlns:cc="http://creativecommons.org/ns#"
   xmlns:rdf="http://www.w3.org/1999/02/22-rdf-syntax-ns#"
   xmlns:svg="http://www.w3.org/2000/svg"
   xmlns="http://www.w3.org/2000/svg"
   xmlns:sodipodi="http://sodipodi.sourceforge.net/DTD/sodipodi-0.dtd"
   xmlns:inkscape="http://www.inkscape.org/namespaces/inkscape"
   width="95.25mm"
   height="68.791664mm"
   viewBox="0 0 95.25 68.791664"
   version="1.1"
   id="svg918"
   inkscape:version="0.92.2 5c3e80d, 2017-08-06"
   sodipodi:docname="Zika-tile.svg">
  <defs
     id="defs912" />
  <sodipodi:namedview
     id="base"
     pagecolor="#ffffff"
     bordercolor="#666666"
     borderopacity="1.0"
     inkscape:pageopacity="0.0"
     inkscape:pageshadow="2"
     inkscape:zoom="1.2325395"
     inkscape:cx="-69.344716"
     inkscape:cy="125.90336"
     inkscape:document-units="mm"
     inkscape:current-layer="layer1"
     showgrid="false"
     fit-margin-top="0"
     fit-margin-left="0"
     fit-margin-right="0"
     fit-margin-bottom="0"
     showguides="false"
     inkscape:window-width="1680"
     inkscape:window-height="1005"
     inkscape:window-x="0"
     inkscape:window-y="1"
     inkscape:window-maximized="1"
     inkscape:snap-grids="true"
     inkscape:snap-to-guides="false" />
  <metadata
     id="metadata915">
    <rdf:RDF>
      <cc:Work
         rdf:about="">
        <dc:format>image/svg+xml</dc:format>
        <dc:type
           rdf:resource="http://purl.org/dc/dcmitype/StillImage" />
        <dc:title></dc:title>
      </cc:Work>
    </rdf:RDF>
  </metadata>
  <g
     inkscape:label="Layer 1"
     inkscape:groupmode="layer"
     id="layer1"
     transform="translate(-9.5758815,-59.882449)">
    <rect
       style="fill:#708fca;fill-opacity:0.71428573;stroke:#000000;stroke-width:0.43509191;stroke-miterlimit:4;stroke-dasharray:none;stroke-opacity:1"
       id="rect1463"
       width="94.814911"
       height="68.356575"
       x="9.7934275"
       y="60.099995" />
    <path
       style="fill:#ffffff;fill-opacity:1;stroke:#000000;stroke-width:0.65015149;stroke-miterlimit:4;stroke-dasharray:none;stroke-opacity:1"
       d="m 55.834931,121.78349 c -0.0473,-0.0456 -0.194839,-0.17082 -0.327854,-0.27826 -0.322379,-0.26038 -0.40962,-0.82721 -0.190067,-1.23489 0.239345,-0.44444 0.626672,-0.58284 1.434027,-0.51241 0.58042,0.0506 0.683512,0.0392 0.729736,-0.0813 0.05914,-0.15412 -0.09504,-2.84083 -0.202402,-3.52703 l -0.06729,-0.43005 -1.009982,-0.0632 c -0.555492,-0.0348 -1.213466,-0.0999 -1.462165,-0.14469 -2.307677,-0.41577 -3.838279,-0.89585 -5.741586,-1.8009 l -0.386858,-0.18395 -0.14879,0.19327 c -0.08183,0.1063 -0.14965,0.21947 -0.150702,0.25147 -10e-4,0.032 -0.195435,0.35042 -0.431961,0.70759 -0.236527,0.35717 -0.430049,0.67235 -0.430049,0.7004 0,0.028 -0.106436,0.21343 -0.236525,0.41196 -0.578324,0.88255 -0.748906,1.20447 -0.656441,1.2388 0.502309,0.18651 1.298513,0.71005 1.40751,0.92551 0.07179,0.14192 0.159558,0.27094 0.195036,0.2867 0.111717,0.0497 0.0706,0.31347 -0.105759,0.67847 -0.133393,0.2761 -0.252637,0.38387 -0.55064,0.49768 -0.223006,0.0852 -0.463924,0.12128 -0.582319,0.0873 -0.238276,-0.0685 -1.902643,-0.8387 -1.96514,-0.90948 -0.04417,-0.05 -1.178868,-0.69859 -1.33315,-0.76201 -0.215188,-0.0884 -0.992925,-0.71416 -1.072516,-0.86289 -0.217607,-0.40659 -0.05155,-1.1077 0.307931,-1.30009 0.113038,-0.0605 0.205523,-0.14215 0.205523,-0.18146 0,-0.0393 0.149942,-0.0715 0.333205,-0.0715 0.308481,0 0.970091,0.28793 1.300979,0.56618 0.07096,0.0597 0.225774,0.13129 0.344038,0.15914 0.205175,0.0483 0.25554,-0.0311 1.099565,-1.73399 0.727842,-1.46849 0.862816,-1.80006 0.761911,-1.87165 -0.06745,-0.0479 -0.4223,-0.29989 -0.788563,-0.56006 -1.033946,-0.73448 -2.531719,-2.06524 -3.322155,-2.95171 -0.84108,-0.94328 -0.81775,-0.9146 -1.534773,-1.88634 -0.305424,-0.41392 -0.590224,-0.75258 -0.632886,-0.75258 -0.06688,0 -1.927027,0.97891 -2.291851,1.2061 -0.07096,0.0441 -0.312859,0.16335 -0.537559,0.2648 -0.224701,0.10146 -0.408546,0.2184 -0.408546,0.25988 0,0.0415 -0.05927,0.0754 -0.131714,0.0754 -0.274576,0 -0.22673,0.27175 0.140529,0.79817 0.313923,0.44996 0.373634,0.60147 0.375733,0.95336 0.0023,0.38105 -0.02755,0.44436 -0.334372,0.70958 -0.272857,0.23587 -0.408852,0.2912 -0.715723,0.2912 -0.219567,0 -0.432302,-0.0534 -0.505973,-0.12712 -0.06991,-0.0699 -0.173586,-0.157 -0.230382,-0.19352 -0.103581,-0.0666 -0.630483,-0.83446 -1.216228,-1.77241 -0.573746,-0.91873 -1.252304,-2.29709 -1.252304,-2.54381 0,-0.16102 0.113274,-0.37121 0.334206,-0.62017 0.299243,-0.3372 0.373835,-0.3766 0.713017,-0.3766 0.525208,0 0.833865,0.2765 1.224159,1.09662 0.174472,0.36662 0.368085,0.66657 0.430253,0.66657 0.06217,0 0.249772,-0.10643 0.416901,-0.23652 0.259981,-0.20237 1.041779,-0.72112 1.523067,-1.01062 0.293573,-0.17658 1.166722,-0.77768 1.269439,-0.87391 0.05861,-0.0549 0.154612,-0.11585 0.213342,-0.13543 0.09793,-0.0326 -0.113543,-0.5665 -0.571186,-1.44192 -0.06183,-0.11828 -0.160673,-0.36985 -0.219665,-0.55907 -0.05899,-0.18922 -0.160536,-0.46015 -0.225653,-0.60207 -0.189029,-0.41197 -0.465871,-1.39243 -0.655707,-2.322265 -0.09658,-0.47305 -0.209537,-0.9375 -0.251015,-1.03212 -0.04147,-0.0946 -0.123745,-0.71124 -0.182815,-1.37029 -0.106313,-1.18616 -0.109699,-1.19889 -0.334957,-1.25914 -0.125156,-0.0334 -1.111556,-0.0748 -2.191998,-0.0919 l -1.964441,-0.031 -0.01564,0.7939 c -0.01148,0.58281 -0.05604,0.86229 -0.167612,1.05116 -0.340233,0.57597 -1.306533,0.56325 -1.690161,-0.0222 -0.185653,-0.28334 -0.35883,-2.7262 -0.281284,-3.96784 0.0721,-1.15444 0.185486,-1.45794 0.611123,-1.63578 0.41554,-0.17363 0.579214,-0.16739 0.980608,0.0374 0.450672,0.22992 0.557604,0.56841 0.478721,1.51539 -0.04747,0.56986 -0.03562,0.73177 0.05613,0.76697 0.104371,0.0401 1.201673,-0.0204 3.59752,-0.19845 l 0.817092,-0.0606 0.06392,-0.8601 c 0.03516,-0.47305 0.10062,-1.07297 0.145477,-1.33314 0.144087,-0.83575 0.441681,-2.18798 0.520542,-2.36527 0.04208,-0.0946 0.139565,-0.40424 0.216626,-0.68808 0.192666,-0.709632 0.835092,-2.311741 1.16353,-2.901652 0.04573,-0.08215 0.08315,-0.192056 0.08315,-0.244249 0,-0.09576 -0.337876,-0.415337 -0.444722,-0.420637 -0.03172,-0.0015 -0.547629,-0.312497 -1.146456,-0.690937 -0.598827,-0.378441 -1.106584,-0.688076 -1.128347,-0.688076 -0.02176,0 -0.240724,-0.135463 -0.486578,-0.301036 -0.645115,-0.434447 -0.738499,-0.407347 -1.091515,0.316726 -0.315039,0.646178 -0.632956,0.929501 -1.043646,0.930096 -0.631218,7.43e-4 -1.0445,-0.416386 -1.057836,-1.0681 -0.0056,-0.273423 0.131655,-0.625485 0.622618,-1.597092 0.346385,-0.685497 0.659971,-1.266065 0.696856,-1.290147 0.03688,-0.02408 0.136258,-0.179257 0.220829,-0.344822 0.08457,-0.165566 0.244788,-0.4208 0.356039,-0.567182 0.111252,-0.146381 0.202277,-0.302225 0.202277,-0.346323 0,-0.128283 0.703543,-0.548659 0.918239,-0.548659 0.28057,0 0.706421,0.282869 0.896568,0.595545 0.255396,0.41996 0.207023,0.72608 -0.218739,1.384239 -0.210184,0.324909 -0.394029,0.657928 -0.408545,0.740031 -0.02065,0.116784 0.420899,0.373958 2.027918,1.181152 1.790147,0.899182 2.066648,1.014398 2.15024,0.895986 0.05277,-0.07474 0.153986,-0.222835 0.224944,-0.329101 0.228105,-0.341612 1.223661,-1.665853 1.410389,-1.87603 0.420768,-0.473618 1.848273,-1.888873 2.245105,-2.225846 0.371342,-0.315322 1.465403,-1.152879 1.96777,-1.50642 0.153502,-0.10802 0.132247,-0.169958 -0.421533,-1.22835 -0.320753,-0.613027 -0.60637,-1.133947 -0.634705,-1.157598 -0.02833,-0.02364 -0.240465,-0.410699 -0.471399,-0.860101 -0.564092,-1.097734 -0.552824,-1.087856 -0.988233,-0.865727 -0.195297,0.09963 -0.355086,0.209939 -0.355086,0.245119 0,0.149852 -0.736956,0.378678 -1.073977,0.333472 -0.48552,-0.06511 -0.904244,-0.525937 -0.904244,-0.995147 0,-0.419172 0.243159,-0.728347 0.925981,-1.177377 0.271248,-0.178372 0.51253,-0.346219 0.536183,-0.372985 0.02365,-0.02676 0.17847,-0.123169 0.344038,-0.21422 0.165569,-0.09105 0.320386,-0.190837 0.344039,-0.221758 0.02365,-0.03092 0.159117,-0.115595 0.301033,-0.188161 0.141916,-0.07254 0.587016,-0.3199 0.98911,-0.549618 0.620288,-0.354373 0.801006,-0.41808 1.192469,-0.420384 0.431136,-0.0022 0.480478,0.0194 0.752585,0.334156 0.582609,0.673984 0.32647,1.267136 -0.818111,1.894552 l -0.607979,0.333272 0.187819,0.308833 c 0.345924,0.568816 0.87948,1.340652 0.946791,1.369618 0.03664,0.01576 0.06662,0.06058 0.06662,0.0995 0,0.151569 1.392835,2.151087 1.498412,2.151087 0.06157,0 0.455979,-0.158117 0.876449,-0.351363 1.05879,-0.486625 1.231636,-0.559169 1.624587,-0.68181 0.189221,-0.05902 0.382742,-0.135633 0.430048,-0.170174 0.0473,-0.03456 0.4537,-0.151019 0.903101,-0.258839 0.449399,-0.10782 0.877973,-0.227027 0.952383,-0.264905 0.146313,-0.07448 2.331989,-0.420049 3.068566,-0.485161 l 0.451552,-0.03991 v -0.752295 c 0,-0.413761 0.0252,-1.504769 0.056,-2.424466 l 0.05601,-1.67217 -0.902565,0.03345 -0.902567,0.03345 -0.307457,-0.269951 c -0.532412,-0.467464 -0.499749,-1.252582 0.06936,-1.667146 0.284573,-0.207301 2.909749,-0.357904 4.322101,-0.247951 0.961978,0.07489 0.974224,0.07858 1.222142,0.368511 0.470518,0.550249 0.290757,1.341322 -0.376781,1.658092 -0.230937,0.109589 -0.435795,0.127272 -0.960483,0.08292 l -0.666935,-0.05642 0.06449,1.669375 c 0.03547,0.918158 0.08956,2.017721 0.120195,2.443472 l 0.0557,0.77408 0.688077,0.05627 c 0.788115,0.06444 2.416072,0.293758 2.924327,0.411873 0.968607,0.225102 2.09326,0.537331 2.322261,0.64472 0.141915,0.06652 0.37414,0.148627 0.516056,0.182401 0.272667,0.06489 1.204496,0.46562 1.627243,0.699798 0.245466,0.135975 0.255568,0.133485 0.451124,-0.110905 0.110018,-0.137492 0.200226,-0.27618 0.200461,-0.308186 2.12e-4,-0.03204 0.193949,-0.350419 0.430476,-0.707587 0.236526,-0.357168 0.430048,-0.664284 0.430048,-0.682472 0,-0.01821 0.193521,-0.326597 0.430047,-0.685333 0.236527,-0.358744 0.430049,-0.675797 0.430049,-0.704562 0,-0.02877 0.09676,-0.194694 0.215024,-0.368733 0.118263,-0.174039 0.215024,-0.35728 0.215024,-0.407191 0,-0.04995 -0.281721,-0.219423 -0.626047,-0.376686 -0.974649,-0.445143 -1.180155,-0.669807 -1.180155,-1.290185 0,-0.475015 0.38423,-0.917362 0.867798,-0.999056 0.312653,-0.05285 0.45695,-0.0022 1.480998,0.517887 1.371294,0.696676 1.679732,0.873376 2.744578,1.57237 0.328133,0.215395 0.66927,0.694654 0.66927,0.940241 0,0.244115 -0.435738,0.890657 -0.656941,0.974759 -0.367591,0.139759 -0.766394,0.09156 -1.096626,-0.132542 -0.525203,-0.356417 -0.839807,-0.495351 -0.926145,-0.409019 -0.04381,0.04385 -0.537438,0.996136 -1.096949,2.116273 l -1.017291,2.036615 0.311243,0.24387 c 0.171185,0.134124 0.408004,0.293914 0.526267,0.355094 0.118264,0.06117 0.314562,0.192569 0.436219,0.291982 0.121657,0.09941 0.351858,0.277504 0.511556,0.395767 0.569715,0.421892 1.56912,1.323542 2.276246,2.053591 0.726278,0.74982 1.761599,1.956795 1.768032,2.061166 0.0019,0.03122 0.1133,0.185039 0.247505,0.341886 l 0.244007,0.285174 1.252749,-0.693725 c 0.689011,-0.381547 1.2909,-0.693717 1.337531,-0.693717 0.04663,0 0.135927,-0.04839 0.198437,-0.107516 0.06251,-0.05909 0.303922,-0.204275 0.536467,-0.322531 0.677757,-0.344681 0.738319,-0.381421 0.738319,-0.44793 0,-0.06518 -0.518313,-0.85185 -0.611569,-0.928229 -0.02888,-0.02364 -0.115962,-0.166874 -0.193521,-0.318265 -0.279311,-0.54521 -0.117482,-1.26747 0.329637,-1.471188 0.290607,-0.132415 0.805789,-0.129509 1.068204,0.0059 0.225146,0.116278 0.757379,0.842142 1.402278,1.912442 0.22803,0.378448 0.452999,0.746134 0.499937,0.817095 0.258958,0.391478 0.773397,1.523299 0.773397,1.701545 0,0.632894 -0.578309,1.110949 -1.237612,1.023071 -0.273007,-0.03642 -0.416958,-0.12189 -0.631817,-0.375259 -0.153034,-0.180476 -0.278968,-0.366838 -0.279853,-0.41414 -7.43e-4,-0.04727 -0.07906,-0.213054 -0.173734,-0.368332 -0.154698,-0.253734 -0.191691,-0.272026 -0.365217,-0.180647 -0.1062,0.0559 -0.212437,0.124908 -0.236096,0.153309 -0.02364,0.02839 -0.178468,0.126127 -0.344034,0.217171 -0.165573,0.09105 -0.32039,0.193112 -0.344042,0.226812 -0.02364,0.03367 -0.164636,0.133366 -0.313294,0.221497 -0.321694,0.190703 -2.278268,1.490736 -2.382893,1.583289 -0.04009,0.03545 0.100043,0.426471 0.311413,0.868894 0.211371,0.442422 0.464825,0.978571 0.563228,1.191447 0.231578,0.500955 0.680259,1.845109 0.89002,2.666299 0.09063,0.35479 0.20128,0.78691 0.2459,0.96025 0.04462,0.17336 0.138498,0.73457 0.208619,1.24714 0.173342,1.2671 0.224482,1.49976 0.337256,1.53439 0.05322,0.0164 1.047303,0.047 2.209093,0.0681 l 2.112348,0.0384 -0.03754,-0.98092 -0.03754,-0.98093 0.358595,-0.34112 c 0.302804,-0.28805 0.415627,-0.34112 0.72521,-0.34112 0.294145,0 0.427319,0.0556 0.673716,0.28129 0.269966,0.24728 0.314912,0.34854 0.371632,0.83726 0.03553,0.30578 0.06682,1.40806 0.06957,2.44951 0.0045,1.62299 -0.01583,1.93327 -0.141245,2.17162 -0.357228,0.67885 -1.334908,0.73068 -1.787714,0.0948 -0.174038,-0.24441 -0.202536,-0.38665 -0.203636,-1.01658 l -0.0015,-0.7324 -0.344042,0.0183 c -2.451008,0.13042 -3.964265,0.22809 -3.998386,0.25808 -0.02307,0.0203 -0.06597,0.43083 -0.09533,0.91235 -0.06268,1.02788 -0.359794,3.0139 -0.542724,3.627805 -0.568624,1.90825 -1.024277,3.18304 -1.344572,3.76175 -0.134737,0.24344 -0.103897,0.29254 0.368891,0.58719 0.248353,0.15478 0.651631,0.41039 0.896175,0.56803 0.244542,0.15764 0.483219,0.28661 0.530392,0.28661 0.04718,0 0.09867,0.0291 0.114439,0.0645 0.02773,0.0624 0.664172,0.47065 1.26993,0.81462 l 0.295148,0.16759 0.139796,-0.18533 c 0.07689,-0.10192 0.214251,-0.37721 0.305265,-0.61174 0.09101,-0.23453 0.291849,-0.5489 0.44631,-0.69861 0.241194,-0.23377 0.343172,-0.2722 0.722385,-0.2722 0.3988,0 0.469612,0.0306 0.731424,0.31631 0.434626,0.47426 0.401973,0.77551 -0.213209,1.96742 -0.460202,0.89164 -0.741384,1.39659 -1.309079,2.35087 -0.112562,0.18922 -0.234698,0.38274 -0.271401,0.43005 -0.03672,0.0473 -0.136912,0.17808 -0.222686,0.29061 -0.116873,0.15333 -0.264169,0.215 -0.5878,0.2461 -0.548927,0.0528 -0.902289,-0.12086 -1.1018,-0.54129 -0.19207,-0.40476 -0.129043,-0.73336 0.255011,-1.32947 0.165246,-0.2565 0.299921,-0.52572 0.299259,-0.59827 -7.43e-4,-0.0857 -0.629676,-0.44052 -1.796596,-1.01352 -0.987469,-0.48487 -1.816273,-0.88159 -1.841788,-0.88159 -0.02552,0 -0.234227,0.2806 -0.463808,0.62356 -0.485414,0.72515 -0.789944,1.15292 -0.971177,1.36422 -0.07096,0.0827 -0.225776,0.27598 -0.344038,0.42945 -0.774885,1.00555 -2.846524,2.92468 -3.977946,3.68509 -0.2247,0.15101 -0.405629,0.30086 -0.402065,0.33299 0.0036,0.0321 0.17711,0.36805 0.385658,0.74648 0.20855,0.37845 0.440951,0.82003 0.516448,0.98129 0.221577,0.4733 0.990483,1.81403 1.04034,1.81403 0.0965,0 0.545353,-0.29843 0.545353,-0.36258 0,-0.0371 0.03736,-0.0675 0.08302,-0.0675 0.04566,0 0.266114,-0.11611 0.489892,-0.25803 0.487379,-0.30908 0.622751,-0.31729 1.063797,-0.0645 0.495781,0.28415 0.695065,0.94075 0.433736,1.42904 -0.09892,0.18484 -0.783326,0.72575 -1.253357,0.99057 -0.141916,0.08 -0.432198,0.2577 -0.64507,0.39497 -0.470652,0.30349 -0.613052,0.38481 -1.564096,0.89312 -0.931479,0.49785 -1.233403,0.5178 -1.677481,0.11083 -0.277987,-0.25475 -0.315489,-0.338 -0.321274,-0.71318 -0.0089,-0.57444 0.165276,-0.8087 0.893477,-1.20202 0.332828,-0.17977 0.605141,-0.36308 0.605141,-0.40736 0,-0.0699 -0.511136,-0.88696 -0.707165,-1.13043 -0.03809,-0.0473 -0.379549,-0.56014 -0.758803,-1.13963 -0.379254,-0.57949 -0.712156,-1.05362 -0.73978,-1.05362 -0.02763,0 -0.229635,0.0945 -0.448909,0.20994 -1.455123,0.76621 -3.630084,1.5495 -4.914189,1.76982 -0.307485,0.0528 -0.621538,0.12909 -0.697898,0.16964 -0.07636,0.0406 -0.662072,0.12306 -1.301585,0.18336 l -1.162746,0.10964 -0.05392,0.69252 c -0.02966,0.38088 -0.07807,1.28275 -0.107587,2.00415 l -0.05366,1.31165 h 0.938483 c 1.029531,0 1.217618,0.067 1.4503,0.51701 0.176734,0.34177 0.161449,0.55323 -0.065,0.89919 -0.218402,0.33368 -0.434049,0.45292 -1.053617,0.58264 -0.569721,0.11928 -4.273375,0.17473 -4.386491,0.0657 z m -4.24643,-11.8911 c 0.195192,-0.20105 0.558262,-0.67749 0.806824,-1.05874 0.467838,-0.7176 1.396452,-2.57443 1.588958,-3.17724 0.06043,-0.18922 0.139185,-0.38275 0.175018,-0.43005 0.03583,-0.0473 0.13617,-0.31823 0.222974,-0.60207 0.0868,-0.28383 0.181898,-0.5354 0.211319,-0.55906 0.02943,-0.0236 0.140828,-0.31393 0.247569,-0.64507 0.106742,-0.33114 0.246032,-0.73753 0.309536,-0.9031 0.151805,-0.39579 0.147656,-0.82344 -0.0121,-1.24714 -0.07135,-0.18922 -0.205617,-0.60662 -0.298381,-0.92757 -0.09276,-0.32094 -0.205169,-0.649935 -0.249791,-0.731085 -0.04462,-0.0812 -0.144534,-0.37977 -0.22203,-0.66361 -0.0775,-0.28383 -0.17425,-0.55668 -0.215008,-0.60633 -0.04076,-0.0496 -0.09846,-0.24318 -0.128227,-0.43005 -0.0456,-0.28627 -0.01912,-0.3804 0.168142,-0.5978 0.122243,-0.14191 0.222307,-0.28104 0.222366,-0.30916 5.7e-5,-0.0281 0.09682,-0.16359 0.215024,-0.30103 0.118205,-0.13745 0.214966,-0.27144 0.215023,-0.29776 8.6e-5,-0.0406 0.875481,-1.23573 1.10058,-1.50256 0.04095,-0.0485 0.148372,-0.20335 0.238728,-0.34403 0.09035,-0.14069 0.296319,-0.42997 0.457701,-0.64284 0.270539,-0.35686 0.288125,-0.36692 0.225492,-0.12902 -0.113834,0.4324 -0.152401,3.13848 -0.05517,3.87044 0.05027,0.37843 0.133897,1.03441 0.185827,1.4577 0.108874,0.887465 0.323445,1.424025 0.667429,1.668955 0.239142,0.17028 0.244539,0.17036 0.502947,0.007 0.170508,-0.10796 0.301275,-0.29244 0.376591,-0.53127 0.06346,-0.20123 0.145374,-0.406465 0.182031,-0.456045 0.152089,-0.20574 0.270395,-1.85077 0.279598,-3.8877 0.0054,-1.19441 0.0305,-2.1717 0.05577,-2.17174 0.02528,-5e-5 0.117712,0.12137 0.205403,0.26982 0.08769,0.14846 0.215958,0.3323 0.285035,0.40854 0.06908,0.0763 0.266931,0.33701 0.439671,0.57947 0.540206,0.75824 0.651956,0.91215 0.873136,1.20261 0.98245,1.29013 1.148701,1.58573 0.958095,1.70352 -0.04071,0.0252 -0.140068,0.28871 -0.220789,0.58565 -0.08072,0.29694 -0.199337,0.656 -0.263589,0.79792 -0.06425,0.14192 -0.164006,0.45155 -0.221675,0.68808 -0.05767,0.236525 -0.133803,0.468755 -0.169187,0.516065 -0.03539,0.0473 -0.144628,0.35551 -0.24276,0.68492 l -0.178425,0.59891 0.171799,0.69124 c 0.09449,0.38017 0.207574,0.76863 0.251298,0.86324 0.04372,0.0946 0.137402,0.36554 0.208177,0.60207 0.169755,0.56732 0.532594,1.54369 0.742791,1.99879 0.09262,0.20053 0.168651,0.39405 0.168957,0.43004 0.0012,0.13695 0.933233,1.89451 1.266243,2.38771 0.191645,0.28383 0.555904,0.74084 0.809464,1.01558 0.447684,0.48509 0.466616,0.49552 0.654541,0.36067 0.106438,-0.0764 0.193522,-0.19196 0.193522,-0.25684 0,-0.0649 -0.285014,-0.71098 -0.633364,-1.43578 -0.93958,-1.95495 -1.258848,-2.63986 -1.258848,-2.70053 0,-0.03 -0.09069,-0.23504 -0.201546,-0.45574 -0.110851,-0.2207 -0.270788,-0.61336 -0.355418,-0.87258 -0.08463,-0.25923 -0.183799,-0.51003 -0.220374,-0.55733 -0.03658,-0.0473 -0.132887,-0.31824 -0.214026,-0.60207 -0.08114,-0.28383 -0.177937,-0.55476 -0.215104,-0.60206 -0.155476,-0.19789 -0.188416,-0.89082 -0.05505,-1.15814 0.07291,-0.14615 0.194545,-0.48722 0.270305,-0.75793 0.07576,-0.27071 0.174553,-0.56962 0.21954,-0.66422 0.230899,-0.485615 0.858611,-2.570905 0.815126,-2.707915 -0.02764,-0.0871 -0.155154,-0.29529 -0.283373,-0.46272 -0.12822,-0.16741 -0.446,-0.59695 -0.706179,-0.95453 -0.260179,-0.35758 -0.608519,-0.83516 -0.774087,-1.06128 -0.165568,-0.22614 -0.475203,-0.65379 -0.688077,-0.95036 -0.212873,-0.29656 -0.590241,-0.80766 -0.838594,-1.13578 -0.248352,-0.32811 -0.451551,-0.63853 -0.451551,-0.68979 0,-0.12412 1.139485,-0.007 1.219241,0.12511 0.09095,0.15087 0.990417,1.37156 1.117786,1.51697 0.06284,0.0717 0.184546,0.23879 0.270467,0.37122 0.08592,0.13243 0.209573,0.30596 0.274784,0.38562 0.133806,0.16346 0.706137,0.93815 0.902146,1.22112 0.07096,0.10244 0.341889,0.4724 0.602068,0.82215 0.260178,0.34975 0.812329,1.09354 1.227001,1.65286 0.717039,0.96718 1.335018,1.56021 1.761833,1.69072 0.106438,0.0326 0.193522,0.0876 0.193522,0.122395 0,0.0348 0.203197,0.13542 0.45155,0.22366 0.248353,0.0882 0.470903,0.18648 0.494555,0.21831 0.06706,0.0903 1.345229,0.50635 2.107236,0.68599 0.378443,0.0892 0.835858,0.20597 1.01648,0.25947 0.383697,0.11364 0.574698,0.0124 0.574698,-0.30453 0,-0.15731 -0.08293,-0.22747 -0.408545,-0.34568 -0.224701,-0.0816 -0.602068,-0.23557 -0.838595,-0.34222 -0.236526,-0.10667 -0.565513,-0.25427 -0.731082,-0.328 -0.165567,-0.0737 -0.571963,-0.291905 -0.9031,-0.484815 -0.331138,-0.19291 -0.698828,-0.39758 -0.817092,-0.45481 -0.118262,-0.0572 -0.253728,-0.13593 -0.301033,-0.17486 -0.0473,-0.0389 -0.287593,-0.18421 -0.533973,-0.32283 -0.345137,-0.19419 -0.590024,-0.44462 -1.06684,-1.09096 -0.653921,-0.8864 -1.240682,-1.69322 -2.536016,-3.48711 -0.231925,-0.32118 -0.617569,-0.84369 -0.856988,-1.16113 l -0.435308,-0.57714 h 2.929587 c 1.893122,0 3.233881,-0.0393 3.789682,-0.11112 0.473053,-0.0611 1.169731,-0.15163 1.548173,-0.20116 0.716688,-0.0938 2.129131,-0.5341 2.17891,-0.67925 0.01577,-0.0459 0.07498,-0.0836 0.131591,-0.0836 0.05661,0 0.23352,-0.13846 0.393142,-0.30769 0.386997,-0.41029 0.461309,-0.99659 0.183323,-1.44637 -0.259307,-0.41957 -0.636156,-0.716963 -1.063137,-0.838995 -0.198916,-0.05686 -0.415823,-0.14482 -0.482015,-0.195497 -0.162677,-0.124537 -3.034269,-0.171281 -3.965107,-0.06452 -1.113193,0.127651 -3.542032,0.519151 -3.784423,0.610002 -0.118264,0.0443 -0.582715,0.14496 -1.032116,0.22364 -0.4494,0.0787 -0.855796,0.17247 -0.903102,0.20844 -0.0473,0.036 -0.425388,0.13129 -0.840186,0.21184 -0.738729,0.14345 -0.759145,0.14292 -0.996749,-0.0262 -0.133415,-0.095 -0.292255,-0.23258 -0.352977,-0.30575 -0.09303,-0.1121 -0.08469,-0.13303 0.05301,-0.13303 0.08988,0 0.239757,-0.0525 0.333066,-0.11677 0.09331,-0.06422 0.306241,-0.161172 0.473177,-0.215431 0.333303,-0.108318 1.49465,-0.843028 2.015171,-1.274865 0.383511,-0.318169 0.394499,-0.360075 0.676194,-2.578815 0.103109,-0.812115 0.216497,-1.505565 0.251977,-1.541004 0.03548,-0.03545 0.06567,-0.125711 0.0671,-0.200619 0.0014,-0.07489 0.469839,-0.697389 1.040923,-1.383317 1.554973,-1.867668 1.56804,-1.887127 1.395169,-2.078149 -0.07869,-0.08696 -0.185509,-0.158103 -0.237369,-0.158103 -0.05186,0 -0.313315,0.203197 -0.581011,0.451549 -0.267695,0.248352 -0.809507,0.740671 -1.204025,1.094026 -0.394518,0.353362 -0.913522,0.83717 -1.153342,1.075123 l -0.436035,0.432648 -0.105559,1.032111 c -0.05806,0.567664 -0.160419,1.341753 -0.227465,1.720193 -0.06705,0.378441 -0.142845,0.823546 -0.168435,0.989112 -0.03346,0.216413 -0.122982,0.349386 -0.318506,0.473052 -0.680493,0.430396 -1.395323,0.815385 -1.769956,0.953249 -0.224643,0.08267 -0.445211,0.182609 -0.490151,0.222099 -0.156893,0.137856 -0.360406,0.06987 -0.547188,-0.182757 -0.23511,-0.317998 -0.234458,-0.347521 0.0077,-0.347521 0.447198,0 0.88934,-0.585496 0.810239,-1.072938 -0.07448,-0.458953 -0.676131,-1.201965 -1.096852,-1.354552 -0.107984,-0.03917 -0.15529,-0.341002 -0.245711,-1.567755 -0.06159,-0.83558 -0.156227,-1.855686 -0.210308,-2.26689 l -0.09832,-0.74765 -0.271155,-0.02631 c -0.254495,-0.02468 -0.27408,-0.0059 -0.318739,0.301035 -0.02617,0.180052 -0.07009,1.062741 -0.0976,1.961544 -0.06707,2.191306 -0.06692,2.190511 -0.478742,2.446876 -0.186088,0.115847 -0.461763,0.337969 -0.61261,0.493604 -0.232008,0.239366 -0.279991,0.362096 -0.311414,0.796513 -0.03475,0.480367 -0.02025,0.530441 0.224352,0.77504 0.179559,0.179561 0.345576,0.2615 0.529812,0.2615 h 0.268312 l -0.240194,0.301036 c -0.132106,0.165565 -0.275568,0.301028 -0.318804,0.301028 -0.116736,7e-6 -0.69991,-0.258884 -1.41233,-0.626971 -0.690266,-0.35664 -0.687259,-0.354648 -1.155704,-0.765622 l -0.324386,-0.284587 -0.1866,-1.83509 -0.186601,-1.83509 -0.442551,-0.444161 c -0.461724,-0.463412 -2.092293,-1.982148 -2.632289,-2.451759 -0.365744,-0.318071 -0.426988,-0.328083 -0.630604,-0.103085 -0.148181,0.163737 -0.129425,0.196642 0.653245,1.146055 0.443192,0.537614 0.921918,1.126447 1.063834,1.308513 0.141916,0.182066 0.368565,0.459882 0.503665,0.617368 0.259949,0.303013 0.394002,0.724497 0.397384,1.249438 0.0011,0.175168 0.03844,0.407398 0.08292,0.516058 0.04448,0.10866 0.127622,0.720075 0.184769,1.3587 l 0.103902,1.161129 0.352792,0.329072 c 0.194035,0.180988 0.585018,0.48302 0.868849,0.671188 0.522403,0.346324 1.862973,1.020962 2.028749,1.020962 0.140796,0 -0.249828,0.49948 -0.437112,0.55892 -0.176104,0.0559 -1.616429,-0.19376 -1.763657,-0.3057 -0.0473,-0.036 -0.4537,-0.12977 -0.9031,-0.20844 -0.449401,-0.0787 -0.91498,-0.180147 -1.034624,-0.225494 -0.213398,-0.08088 -2.552229,-0.453988 -3.73891,-0.596459 -0.776442,-0.09322 -3.068508,-0.09378 -3.5694,-7.44e-4 -0.562506,0.104334 -1.284174,0.399097 -1.530054,0.62495 -0.507585,0.466227 -0.642473,1.238767 -0.305964,1.752337 0.175729,0.2682 0.84736,0.68361 1.319961,0.81641 0.212874,0.0598 0.430366,0.14122 0.483316,0.18091 0.102834,0.0771 1.235067,0.24374 2.914064,0.42895 0.633332,0.0699 2.064112,0.11385 3.703084,0.11385 h 2.670969 l -0.520728,0.71984 c -0.67542,0.93368 -1.285321,1.78371 -1.550857,2.16148 -0.116381,0.16557 -0.42677,0.59132 -0.689754,0.94611 -0.262984,0.35478 -0.544808,0.74183 -0.626275,0.86009 -0.787514,1.14322 -0.964286,1.31675 -1.934546,1.89918 -0.960282,0.57644 -2.486754,1.369195 -2.636415,1.369195 -0.04308,0 -0.09123,0.0315 -0.107001,0.0701 -0.01577,0.0386 -0.2996,0.16434 -0.630736,0.27953 -0.487016,0.16941 -0.607439,0.24732 -0.630173,0.40769 -0.04481,0.31611 0.118602,0.44622 0.441133,0.35123 0.151276,-0.0445 0.642739,-0.16123 1.092141,-0.2593 0.449399,-0.0981 0.855795,-0.20638 0.9031,-0.24069 0.04731,-0.0343 0.26018,-0.11123 0.473053,-0.17093 0.857906,-0.2406 2.320234,-0.992135 2.777352,-1.427375 0.1991,-0.18957 0.497465,-0.5429 0.663034,-0.78518 0.165568,-0.24228 0.533259,-0.75882 0.817091,-1.14786 0.283831,-0.38905 0.593466,-0.81549 0.688076,-0.94765 0.09461,-0.13215 0.404246,-0.55888 0.688078,-0.94826 0.283832,-0.38939 0.632171,-0.87022 0.774085,-1.06852 1.049159,-1.46599 1.522652,-2.10454 1.614129,-2.17681 0.12064,-0.0953 1.267194,-0.22595 1.267194,-0.14439 0,0.0294 -0.08016,0.15618 -0.178137,0.28193 -0.231546,0.29717 -1.464338,1.98845 -2.015108,2.76455 -0.236527,0.33329 -0.624805,0.86666 -0.862841,1.18527 -0.833101,1.11509 -0.844245,1.1351 -0.746028,1.33882 0.09895,0.20526 0.437608,1.22723 0.717356,2.16479 0.0988,0.331145 0.210565,0.640775 0.248358,0.688085 0.03779,0.0473 0.13323,0.33759 0.212082,0.64507 0.07885,0.30748 0.179074,0.59583 0.222714,0.64077 0.09962,0.10259 0.103213,0.41636 0.006,0.52466 -0.04033,0.045 -0.124183,0.27523 -0.186335,0.51175 -0.122337,0.46557 -0.51529,1.50875 -0.779696,2.06989 -0.09062,0.19233 -0.16477,0.37532 -0.16477,0.40666 0,0.0621 -0.387001,0.9093 -1.029683,2.25398 -0.226091,0.47306 -0.437852,0.94718 -0.470579,1.05362 -0.03273,0.10644 -0.0956,0.19352 -0.139719,0.19352 -0.04411,0 -0.08021,0.0411 -0.08021,0.0913 0,0.0502 -0.100666,0.30412 -0.223703,0.5642 -0.214235,0.45286 -0.217312,0.47993 -0.07268,0.63975 0.08306,0.0918 0.183771,0.16688 0.223797,0.16688 0.04003,0 0.232476,-0.16449 0.427669,-0.36554 z"
       id="path832"
       inkscape:connector-curvature="0" />
  </g>
</svg>
